<mxfile host="app.diagrams.net" modified="2022-10-03T09:02:22.648Z" agent="5.0 (X11; Linux x86_64) AppleWebKit/537.36 (KHTML, like Gecko) Chrome/106.0.0.0 Safari/537.36" etag="v7iZEv7m18Hj665FBsdW" version="20.4.0" type="github">
  <diagram id="C5RBs43oDa-KdzZeNtuy" name="Page-1">
    <mxGraphModel dx="1172" dy="672" grid="1" gridSize="10" guides="1" tooltips="1" connect="1" arrows="1" fold="1" page="1" pageScale="1" pageWidth="827" pageHeight="1169" math="0" shadow="0">
      <root>
        <mxCell id="WIyWlLk6GJQsqaUBKTNV-0" />
        <mxCell id="WIyWlLk6GJQsqaUBKTNV-1" parent="WIyWlLk6GJQsqaUBKTNV-0" />
        <mxCell id="iUEYl7UZDT7DJrYxAWYP-9" value="" style="shape=image;imageAspect=0;aspect=fixed;verticalLabelPosition=bottom;verticalAlign=top;strokeColor=#97D077;strokeWidth=2;fillColor=default;image=data:image/png,iVBORw0KGgoAAAANSUhEUgAAAp4AAAFXCAYAAAALeU5yAAAABHNCSVQICAgIfAhkiAAAABl0RVh0U29mdHdhcmUAZ25vbWUtc2NyZWVuc2hvdO8Dvz4AACAASURBVHic7N13fBVV3vjxz3duKukhhFBC6E1KQIoogitYUFfF3tZdV1BRf6uPuoryWNfyqKuP9dlVV1HBRXfXioIFpAoovYWWBAJJSEjv7d45vz9uQgop90ISit/368XrFe793jnnnpk5871nzsxI19BoQwNlVBLnjGr4slJKKaWUUkfNOt4VUEoppZRSvw6aeCqllFJKqXahiadSSimllGoXmngqpZRSSql24VniGTIJa/48rFF+YMUhb83HuqGHxmiMxpyKMUoppVQb8SzxHDIScW3DJFRCx2FIbC5sSdcYjdGYUzFGKaWUaiPS9O2UOiPT3sG6vnvjn3SlYv50B2b83zVGYzTmpI+Zjr3T1fj7SimlVCtpJvGMgg4RENQJefRlrJTncH2YiNzwAtaARdhPfI3JzQM/jdEYjTklYpzHowtSSin1a9L8qfbSPMgLQmIMJmEbZJdB50hITMAcqj5QaYzGaMypEaOUUkq1sZbneEb1guAs2FcMjjikJ5ikFI3RGI05FWOUUkqpNtT8HM9b3sS6Lg4cFjidgICPA1xOcKZh7rsbc+ZrGqMxGnPSx8zA3qVzPJVSSrUtR4h/0BMNX3TiItwOhH0bIXA04vc99oOvYPZFIafnYN/zOPYXizGpBZCkMRqjMSd/TBFo3qmUUqqN+TT7bn4uREZC4mZMSiqM6QjpGyDpQO1BqlJjNEZjTokYpZRSqo01P8fTEYv0dGASUwA/pG8s7EvGuDRGYzTmlItRSiml2ljzt1NSSimllFKqleiz2pVSSimlVLvQxFMppZRSSrULTTyVUkoppVS70MRTKaWUUkq1C008lVJKKaVUu9DEUx1fEohccAvWpQOOd02UUkop1cY08TwVBXRGzhiDhEs7FeiH3Pwajs/fxBri7+VnQ+DCq5ERMW1SM6WUUkqdODxLPEMmYc2fhzXKD6w45K35WDf0aJuYk1HMaOShv+L49Esc3/wbx1t/wZrSH9or72uo52+xnrgDiWmv3xW+0KMbhHSBaG8TT+UR3QeVUkqdApp/ZGaNISMR1zbshEroOAyJzYUt6W0Tc7LpegHWK/ciBcuw3/o35Dqg9zAk1A+OuDX/qaoE89Kd2J+ASSw83pU5Nek+qJRS6hTQzJOLOiPT3sG6vnvjn3SlYv50B2b831shZjr2zpPw2X0Shjz2Lla/ldgzXsUUNZFphgxCbroMGT4AiY6EYF8oz8e8/yD2Z6m1y7rsFuSiUUj3MMhNxHz+D+zPttcmsOFnY71wB9I9AhxOSN+B+eQt7O+S3TE+w7DmvIBENxzpNLBgFq6X1nlelieCJmH95yHEr045S/6C6+mVtTGOKOTa25BLRiMRBhJ/wX7/H5j12dV1iUZefh8rOhFTEYN0C4T07ZiP/oa9KKV2OR36INNvwxo/EMJ8obQQDvyI/dDbmFIv6nxSceg+qJRS6pTS/CMzO0RAUCfk0ZexUp7D9WEicsMLWAMWYT/xNSY3D/xaKcZ5PL7+MQqdjDXvPvjodux/Hmg6rsd1WO/cAAvewqxJgxIXBEdA2mrMgSrAH/nD/2JdWol575+YPaUQPxXrD/GY12ZgLzzkXo5PV+Ss7nAoDyQMzr8Fa0og5r9uw05wAv7QtRPS/2qsh0dinnsUO9kFGCjOhtxyz8vyhHSAbh3dEzYkEuuh55D0Z+sknh2QGa9iXezCvDcXkyJw/u+wJlqYh/6Evbm0NvHsuhXzzwWYNCdMuAHrwnDMEzOwVxUCPsiMf2CdexDz5seY9DII6ghdnJhv14J9FOvuZKH7oFJKqVNI86faS/OgsicSYzALt0G2gc6RkJiAOZTnjnG2Uow3/APB1+H+27igrOzI5KO1YpoT3Q18SiHxoAfBFbDqO8zaRo7uEecgV3bGvPJH7MUF7td27cUeMBfrvHHw7ZfukUhnOmZZndOiSX6Y3/w3DI6GhHR3GempmNAiMFWQcQD2u46uLE+YUkitHm6UCkxFg2mtHc9BLumGmXsH9mf73a9t2o8d+zes6yfCloW1sQkLsL9c5v57/V7suHewpk6E1fPBOCAiFIp+wWzaismvXkkbPazn0ThRtrETdR9USimljkLLczyjekFwFuwrBsdgpCeYn1PaJsbDKstt/8C6vJP7v3Ym5v5bsLc42yCmBcamVSZy9h6EBAbDg//E8ec6rzt84GA0YrlzFsKHIH+8CTm9FxJsQX4ZBIDx9239slpDr/6IzyHMpjrJsisNNmXC5P6IY2HjZZlM2J4J5/VGHGCcFZg5f8M8dTfWnLGYVcswi77HrEtto3m0J9A2BifgPqiUUkodnWYSTwdyy5tY18WBw4L//QoHAj4OuPMDHLelYe67G3Pma60QMwN7l6fZjgvz2dPYy2smFlZikhp+trViWpCdCa4g6BkNvxzDBRoCuA5innkce1+D4bCqInABEoPMehqr6ybst5/B7C+GsNORJ25pZIHNZGOelNUumssYxf3P1Ik58AP29F+QMRORc36D9eRVsHMe9hNzMYWtnX2eKNvYiboPKqWUUkenmcTThfn8L9jBf8Eauhr7mW9hyB+w7grCvvdNTFkVZFZCZmvEeHPAM5C2A5PWHjEtKNyI2VaFddHlyDd/w5QcZQK0dxfGeT709YfluxuP8emFDPDD/Gs2Zln1KJVPKFLZSJmVlRjpAEGN3M/Jk7Jay97d7rLiu8KO6lPtjm4Q3xmS9zQ9supTHZO0u36MswCz6ivMqq8g9gqsv01DLlyM+VdrX5V9omxjJ+o+qJRSSh2d5k+15+dCZCQkbsakpMKYjpC+AZIO1I6MVbZSzMnIZGHemYd56Q9YLwdjf7kaMsqgc38kbCf2Jxs8OxWcsxTz+WVY1z6FFfwvzC/7wOkP3TvB6vmYTAOu/Zi9LqxJ1yFJ30BWOQT1Bd9GksuMJCgJR67/HWJtBEdH8EvGLN/rWVmtJWcJ5usrsG6chVU1F5NiwXk3YfVOxzy0zN02NdXvNAAZmQd+MchFNyC90jAzq2PwR665A6nYgEnMBKcfDO6P+FZiCspar74nIt0HlVJKnUKaTzwdsUhPB2Z+CuCH9I2Fff+pPwrVWjEnqz2fYN+bhfWHqVi3TYAOBrL2Yr7f48VCyjDvPoR96Gbkt1dhXRQBdikc2IK99Rv3aJSdhnnuGcztN2I98Ez1LZmKIWc3Jr3B/YRKf8Z++XOsaRdhPX0NlGVivn4ds2IvGA/KajVlmLdnYhffgVz1AFa4geS12I++jdlcU+dy2LYFM+k8rOeuAFcx7P4Z+5H3MJurk0oJAN8QuORPWJ1DgArI3Iv56Fnsxaf4hTG6DyqllDqFNH87JaU8ZcUh//c3rD2P1d4vVCmllFKqDs+eXKTUEQQm3IQVnYHZXwgDLsHqVYr5lzcjvUoppZT6NdHEUx0lH6RjD7j0YqxOwVCUhpn3P9hLCo53xZRSSil1gtJT7UoppZRSql00fKi3UkoppZRSbUITT6WUUkop1S408VRKKaWUUu1CE0+llFJKKdUuPEs8QyZhzZ+HNcrPfb/Gt+Zj3dBDYzRGY07FGKWUUqqNeJZ4DhmJuLZhEiqh4zAkNhe2pGuMxmjMqRijlFJKtZFmbqfUGZn2Dtb13Rv/pCsV86c7MOP/rjEaozEnfcx07J36/EyllFJtq/n7eHaIgKBOyKMvY6U8h+vDROSGF7AGLMJ+4mtMbh74aYzGaMwpEeM8Hl2QUkqpX5PmT7WX5kFeEBJjMAnbILsMOkdCYgLmUPWBSmM0RmNOjRillFKqjbU8xzOqFwRnwb5icMQhPcEkpWiMxmjMqRijlFJKtaHm53je8ibWdXHgsMDpBAR8HOBygjMNc9/dmDNf0xiN0ZiTPmYG9i6d46mUUqptOUL8g55o+KITF+F2IOzbCIGjEb/vsR98BbMvCjk9B/uex7G/WIxJLYAkjdEYjTn5Y4pA806llFJtzKfZd/NzITISEjdjUlJhTEdI3wBJB2oPUpUaozEac0rEKKWUUm2s+TmejlikpwOTmAL4IX1jYV8yxqUxGqMxp1yMUkop1caav52SUkoppZRSrUSf1a6UUkoppdqFJp5KKaWUUqpdaOKplFJKKaXahSaeSimllFKqXWjiqZRSSiml2oUmnkoppZRSql1o4qmUUkoppdqFJp5KKaWUUqpdaOKplFJKKaXahSaeSimllFKqXWjiqZRSSiml2oUmnkoppZRSql1o4qmUUkoppdrF4cTTHM9aKKWUUkqpU97hxFOOZy2UUkoppdQpT0+1K6WUUkqpdqGJp1JKKaWUaheaeCqllFJKqXahiadSSimllGoXmngqpZRSSql2YeltlJRSSimlVHuwBDB17uJp9I6eSimllFKqDVgAUn0XT4M5/LdSSimllFKtqd4cT006lVKqrQUS2+tapvbtg+N4V0UppdqZXlyk1KlAophw7gc8OmIADmsQV/z2A+7qF3mK/JS0CO08ld+f9ypPX/khL0x9k5mT7uLMsOOZtvkSd9pfeGbqs1wc5e/dRyWIXr0u4czoTs13wKf0OlVK/Vr5tBwi0H8y1nUXI8N7QbAFh5IxKz7Fnr0cAs7Geut+JDoQMFCWB4mbMZ/PxV6eWl3KMKw5LyDRDbtZA/MfxvXKhtqXAsZiffQUEg6sehHXY4uqHyTvg9w5G+vKzo1X087E3H8LdsJgz8tqSY/rsN75I1KvlRosx787cvN0ZPJwJBRI24aZ9w724hT3+yHjsP46A+kcBh38wVkMKTsw38zF/mYXHk+pHTgNx2tXQ+Ic7HvmYqqA8ClYH/8XcvBj7GnvYVzVsU22IRA0Ces/DyGlP2Df9CKmDJjwMI7HzoHlz+B6arl360udGEwllS6DbTsxBqpcBpfLefht8ZvI9MtuJ+7g33nhp+UUVO9T/Ue9zvQOn/DE8qWUHLfKN0/8zuDKM68kLvszPt2yjXw7gJCgIArL7eNYK1/CQ2Po4GcR3cEXoaL1Z8e3sE6VUupk1ELiKXDWPThmTQE/oOAgZl8FEt0HGdMLeXc5xhEMkR2AItiejAntiQw9Fxkaj/X0ndhLc2sXZ8ph20ZMYU0XbSApv36R8eORMAMugfgJSNhiTL4BbMze9ZifwgE/OO10d2KVuA6TWQUmH1Nge1dWS0rTYNUqjKO6LXqNRLr61WmeCOS+57EmRUFZFiYNJG40MrMvln0X9pIccIRDXAz4lELSHoxfJ6TfGOTewVjl07EX5TZVeiME+l+NXLYM858DTYc12YZAeKR7nDtsDDIiELPagfxmNIi436s7nNIabajaSQXlVS5KKkoAi7IqF6WV5Q2SISGo69VMiVnPJwdLTprLCCW4BzE+OWza8SUbs6t/XWUd3zpBKVvWPsxLO4WsvOI2aktP1qlSSp1cmk88g8/AumcK+JVg5jyGPWcb2IB0gE4OcNWJde7CfnwWJj8QuftNrKldkckjYdmi2hiTi3nnL9jbm/rV7o+MHw3OnZgf/JEpw5ExoZjvCwAbFr6CvRCQKOTFD5ERBjP/Jeyv6yRvNd+oxbI8kL0C+8kVhxcsd85GroyufT9uCnJOFJRtwr5jFiYNmPosjrvikesvQpbPqT1IOBOwH5qFyfdDZvwN66puyNCe4FXiCUggcsOtyJIna0c462muDYHQcETKocAPmRAPCR2Q0x2QXw7h4YhVZxC2NdpQtRMnBaU55JXkYRuL3JIcgsobbCCmkOSsEuKHXcxPmf/iQCMDhuI/lmvO+R3DQ8IJECclxXvYsnMuX+1NoQKwIi7i1rGX0Cc4EGfJLrZmVhAbO5SOrr2sXv868w/mu7cfCaFX32u5sPdweoSEYsr2sn3PPL7YvcvzkVVrEFdc/N9M6OAeee88aS7nVH/XfZse4NVdmdVlRTJw0I1M6R1P1wAoyt/I6m3/ZHFGLjVfUfz6MW7wBcRH9yG6QxjBfn4YZwFJ257h7d3peDx26jueaZfdxZDDZ/kNlftf4ZHVv3B4L/GgPgCOyIu5bcotxAUHUFm8iw0JH/J1SiqVhyM8WKdKKXWSaT7xHDMZiRRIX4j5qDrpBDClcKipD7nAWR0oXk4h9R+CjImAlK8x3wYgF/RGzhwJPyzx/JR0uxEYMhRxCOxcjkmvPuwsX465PR7pMQTCpX5yDhASC7EhYMowe1K9LzbnEISfgXXjcFxzGnm/pTYMDgapxKzfiYyeiOwOQtiC2ToQOS0MnUB2snKRuvNlvnS605aETS+TWNFw43NycM/HpMffzSW9lvD3pLwjlmKqUtiQ8A/WlxZQQQjdel3H1FH3UFH4IF/lOLEC4+gVcohly+aQ2v12/tC7jMUrnyezx+1cP/IStiycyz7bn7jTHuaOvk5+2fou3+aVERw9hcuGPcCNzod5Jznbs93ZTuL7JX9mdcQlTD9jCLvXvMiSAvd3qiyvWUYgfYc/zK19bDZufYsFhUKXnldy0dmPELzsUT4/VAaABAzmjH6jMMlz+GJrBoVVNj5+YVCU5XnSCeBcz7+/u5/5AhDBqLEPM7FegGf1AcAqJ3XXbH4schEVO5WLx84kwDmTeWk1I6ierFOllDq5NJy9WCfvcCCx3UAMJO3GtDTo5dMXmfkUEtoL6d/Jfep78br6CaPVFXltQe2VnJUrsac+hSmv/v9pZyGRBlZsxST6Y4quRuLPRDoswXg7Aa2lso6ZhXSMcLdPYWHt9ywqAJcB33AkwsJkV7/uOwrr0+/cfxsbVr6EvaDJ7L1pyV9i512OdeEfkKWLjny/pTYMCnafVt/4M+asaVi/94Utb2DKBiFBoeCgNllu8zb8dXOMepBPF08nrpGff/a+2dwa/yybqjxfXlV5BjUTIcpLM2hsNZmq7SzasYcHB/+WfikfNlJwBnsOZBz+74F8P/r1uIdeUR2RnMzqhRSQmZtEgiOJ8t7BZGbvYhM7mdqjC50ckOI3jgsGdGLXuvv5LKXQvWvkHsAn8nVujDudsL3fke9R5llJcXE6pX7FuHBSUpJOZmH9xEsCxzG5TwzpCTP5eHcaNrArMw2fkOc4f+AZLD60hMI6y8tIX8amg8cwgm/KKCgqowBAKilyNZjM4EV9XNmLWbBnDVUAmQdwhL7Axf3GsSD9h8Pt48k6VUqpk0kzI57Gu1FGCUdGj63+aBHmjQewf2xwGrnhnEHnrjojgj7IuNFAJSYhCSr9MMlOZMRwZKg/Zk2FF5VpqaxWIl4MD5p8zNoEIBQZOBDG3411Ww72Wxu8a2dTiPlgHmb83VjX5mPqVaGlNqyEwADAgsINmF0+yDAXZtV6GDoNrCAIEg4fGdujDX/FXAmzuXf8fPwb2YxMRQ4H2mSGgyF/339YPeARJvdcyI8N3rX8B3L2sCsY07kHEX5CRXk5fg4hz+HbxGC4VO8GNjYWIoIV3pfujiCCx7zBi2PqRIoPUtyRMKC1ZgpbYX3oZmWz9lBG7cilOUjioWymxPUhxlpCYTteg+RRfRrb300We7OzsXrG0VnwMDFXSqmTT73Es/6BxWAyssD0hp59EMeyJuYUVqtah33dU3DN61jX9EBGnwZfHqifVDU3Z9DRBxkdBeJAHvkMxyM1b4QiowfCms3efbO2mJ/oqJ46YNuAjcnOA3pBSIi78QwQEgYOATsPk1fniOdMxDz/pPsin+jLsD64E7n0SuTjjbUX/ngq83vM/MuRa8bVX2cttuEW6BAIWCDZmA/exB7oglX5EO8ACYTAuomnzvFsU6U57E/IbfT3izEGu62SDzuZ5Tt38uDA84nLqfO6RHPmuAe5NHg7325+lR2FJYj/MKacdS2hjS3H2NimsWedCWIOsWbNX1lWYDf4SDF5rfy9mv75d3yyt6OtjyDQaHsqpdSpo5lJmAY2rsaUG4idgkztU6dH9YWIoEY+U4GZ9x4m28CYm7BGNRbThB6joYsDSvZjVq3C/LQKsy0DjAUjT0fa/ZZ9AoOGQ3D1l+7QFxkSAbgwWdmAgYTt7mR80ASkqw/gAxMnuG+/tH8bTR5hQ0LdLe/NiGk9lZhPP8EUU/8o12IbChJQPeJp2bB5AeaT7zD5tjuplgAkUCd5thfHqAf4LHcn6wqO/Ld2y0zifduqZEPB/vmslfGcGRNQ+7LE0jPSj4PJn7D4wA5SC/ZzIHsvea7Gt2NXxjs8+ulLrG8wHcAuSCTV7kjPcD9yC9PJrPPvUHEhXsweaJFdkESqHUWf6Jjazky60Dc6Cld+MhntfMelo66P1YV+x6nOSinVnpq/uChrEWbuZGTaEOSON3BclYrJdSJRXaH4C+zps4/8dV60BvuTrTjuGobcfBGs/3ftexKJTH8Uq+65pvLNmOe/wIwYgTgMbPon9mPVJwBjpmJ9MAPpOgw6C6R7MRbQZFmfNz9yWyNkLNYTTyBhxZCaC1HdIcQHitZilqS5Y/YuxPx0CTJhBNbfZ2MyBenZyT1SOG8Bpu4BxGcw1vOvYSQEievibvnVSzEFRzm+kbMUs+A65NrYmi8MLbahBYH+7oTXqvubQ9yviT/41kk8j7UNVbOOz6n2msJ3sSLxAGeOGITUnPc2aaQWOBkedxnj8xext6wC8e1JuMO7HyOmbDXf77mAGQP/zB2+8/kp4wDFth8hIR0pTf+BHSWtN6ZnylazKOkibh98D9fbn7KhUOgSdyXnh2eyetmaOvM724c39bE69GVQ5wLKHNH07X0554ZlsPI41FkppdpTC/fxrMR8Mgs741pk6kSkbzckwgmZezFrU5r4tIHvP8fcOAwZeBlW/FfYW6rfkgAY2uD0cEkpxhGKnN4PxIXZmVj7XvZuyLIhpg8yPAyT7sXMsKbKsvBsnqLzIOa7lTBpBBLXA8pzMb/8hHnvfUxG9YHTZGNemImdPQ2ZOASJBfatw8x7G3tJ9fxWZw7sOQCxnaBXf8SUQ+YOzMqvMXMXH8PZwCrMF59jLv1/7u8oHrZhQPVTVuolnlb12Lcf1H0Iy7G2oWpeaRb7th6vG1IacvctZMuggcQffimDFWteI3D4FUwc/RCX+vliu0opKUtmR3GZF5tqOXu3PsP/lV7NBX0u5po+YfiZMvILd7A0azE7WnXjKSNx87O8W/U7Lu5/O9MCoCh/M4tXzOWHuleQtxsP6mPKycreQUaPCdw0YQo+ppTc3A0sXPExS7OOR52VUqr9SNfQ6COOJ2VUEueMOh71UUqpk4N057zznmNi3os8vnaL/hZTSikPePDIzFOMFYvMvBfp3NT0VhsWvYo9f/+vsz5KqSYIEd2vYHxQFvsKi/CLnMyZYeUk7dzn3b1AlVLqV+zXl3hKINJvMNKjqauVXLA18NdbH6XamvTmkgufYnJo09v8oR2P8z9bktonofO4PvsJDuxGnz6TOatDEFRmkLTjdT47UKhXoiullIf0VLtSqp35ERrahZBm7qnhrDhIZlll0wGndH2UUurUpYmnUkoppZRqF14+TF0ppZRSSqmjY9V7sJDOVFJKKaWUUm3EqnuPRmnmYW9KqROYRDHh3A94dMQAHNYgrvjtB9zVL7KRPdoXefBTHIu/xprU1EVrAqffjPXuJzi++w7H4m9x/L/hbVt/pU5UPsOw5n2LY9F3OOZ/jPXUDUh4y8dKK/Qy7rv6LW7oGtBi7ImiPet8MrbPcedxP39iO3xVu6GpZwwL9J+Mdd3FyPBeEGzBoWTMik+xZy+HgLOx3rofiQ50L6UsDxI3Yz6fi708tbqUYVhzXkCiG57ZNzD/YVyvbKh9KWAs1kdPIeHAqhdxPbao+ibrPsids7Gu7Nz4N7EzMfffgp0w2POyWtLjOqx3/uh+BGZTy/Hvjtw8HZk8HAkF0rZh5r2DvTjF/X7IOKy/zkA6h0EHf3AWQ8oOzDdzsb/Z5fkN5MOnYH38X0hjj1Hc+DquP8+HAdNwvHY1JM7BvmcupqrO5w5+jD3tPUyHuusLqCyB9D2YJV9g/2c1VAATZuF4bCIkfYg9Y677CUw1bVG1BHvqizDdg3WxxYNH74SMw/rrXUj3SPADCjIwW1Zi5n6MSS6tH3us20ZNfZpczknMVFLpMti2E2OgymVwuRpp/6h+0NkHsGDUhUjRdszWPVBWpwEcfbDuuh7p4YTNP2JSS2FrDh63s+tWHK9cCdlfYP/u/zBOIP7/4fjrbyHzM+zf/x0T6MF6D5qE9Z+HkNIfsG96EVMGTHgYx2PnwPJncD213IOG8bDO24KRC65GLj4b6R0FpgSSN2P+NRt7RfWTykI82HcAwocgt/4Oa+xACPeFokOY7Wsw78/GJFc0Wo1GebScFvrnmueTNrfND/Sg3+jnQYx40M+HeHC88IQn/YYnfWawB/WxczCLvoHQDjBqAnLW7yBpDeaD5GYqaBHdfSzdKjfw7aHy6teCGTb6Sa6O7USQrw/YZRQVJbI96TMWJO6iuF4fFM6Ys1/k6s6+HNjyIK/vPnR4dfl0v4fnzjqDxr6Wca5i9uevsz3yJh7+zUg2L/4z83Nr7jDroMewF7inxybeWDCHvUfcMuLIOntS1hYbsDoz9LQbuKDnUDr7Q0nhVtZu/yffpWXS+FHgyLLE73SmTryRYcGRhPjYlBTvJyltET/s+In0qoYd9LG1zxa75eWckDzt509wLdxOSeCse3DMmlK9cx/E7KtAovsgY3oh7y7HOIIhsgNQBNuTMaE9kaHnIkPjsZ6+E3tpbu3iTDls24g5/AhGA0kNnkYUPx4JM+ASiJ+AhC3G5BvAxuxdj/kpHPCD0053d6KJ6zCZVWDyMQW2d2W1pDQNVq3COKrbotdIpKtfneaJQO57HmtSFJRlYdJA4kYjM/ti2XdhL8kBRzjExYBPKSTtwfh1QvqNQe4djFU+HXtRblOl11eViVm9Chy+MPh0JEIgeT3mYCUkZ9QJFOh/NXLZMsx/Dhy5nLrra1sSxrcT0jceuWU4jt7/g+vppR5Uxst10RxHOMRFT2fYKwAAIABJREFUg08JJB2EqB7IxOuQ0cOxH3gQs6vOgbq1to0ml3Myq6C8ykVJRQlgUVblorSyvE4nasE59+N4cDI1z+iU82cg5xv4+mFc/1vnB5kVDZ0sqNqA/djzmJLaZXjUzsEeVNeT9R4e6Z6FHjYGGRGIWe1AfjPa/XjX8Ej3L+UWV5un20Yg/GYK0rUYs28PBHVFBk1A/jsO608zsHc5Pdt3JA75y7NYg/0h/wBmSw4Ed0FGDcPM9uIp9ZYny/Ggf65ZXovbfAv9hscxNN/3enO8aI4n248nfaYn9bHTMO++jkFgSiiOB0Yh0VFAM4mndGN4bCwl6Z+QeDgvcBDcoRMd8j7j9Y0bqbKC6RRzPhcPn0k3n8d4dceBw7cPk6BxjI3cxcLtPkzueRad93xOzQPzXJlzeenbzxAgoNst3H0afLtkNtuqwJgS8o72HmSN1NmzsoIZNPIR/tA9l+Wb/pf/FAsxPa7i0jMfIXjlLP51sPjI3bSx9pFQosM7kZPwHO9lOoiIiOesgbdxT0x33lryCcl1ks/Wap/mlnNiaqmfPzkcTjwbHe0MPgPrningV4KZ8xj2nG1gA9IBOjnqPzbRuQv78VmY/EDk7jexpnZFJo+EZYtqY0wu5p2/YG9vKkP3R8aPBudOzA/+yJThyJhQzPcFgA0LX8FeCEgU8uKHyAiDmf8S9td1Oquab9RiWR7IXoH95IrDC5Y7ZyNXRte+HzcFOScKyjZh3zELkwZMfRbHXfHI9Rchy+fUbhDOBOyHZmHy/ZAZf8O6qhsytCd4mniWbMA8uQEjYciz/0TGCObrl7G/zD4yVgKRG25FljzZ9DPVnbuwn5iFyQeG3Y7jr1fAmRcgEcs82Ig9XBfecO5wt09xZ+Thl7DOGYg17XxcD86vTi5aYdugpeWczJwUlOaQV5KHbSxyS3IIKq+z8n2HYd0xGfwqMQvfwizNhJCO0LsfrN/RYFni7hBc5VDvDkIetvNp3lS7mfUeGo5IORT4IRPiIaEDcroD8sshPByxaHr79rbOHMQ8egOuynL39ubTD+vt15AeMdA9AHYV16lzM/uO/yikfwBUbcK+/SFMdvXeFBwMJV5kBJ09WI7H/bOH27wn/YYnMZ70vc0dL7w5ija3/XjTZ3pUHwNl1aOX0vzJTStsLPGhRWzbvIOGN+Gyq7JIz0+hAkjNTYbwN7ipxxg67zzAQQNgERN3NjHZX/Nesg+9B13KqIiv+Lp65NJU5ZBRkAMIHSLKMFgUFKZysLK24Zq6I623dfakLAk6m/N6hrB7w5N8tS8XA+zLScMK+StTB09gUcYCckzLZVWXSGnxXvZnl7E/eytbDx7ijvNv5Ip+P/FyQk1ifuztgwfL8ZwP4Z3P54KBExnUsQshDpuK8kPs3fUm7+5Oce+SPnGMHX4T53TvQyd/X1xVxRQW/cSny+ayowoCYv/EY+P68MuP9/FFdk35Fl0GP8MDA9L58OvX2VwFLfbzJ4nmr2ofMxmJFEhfiPmoulMDMKVwqKiJD7nAWR0oXl407z8EGRMBKesw364HOwA5c2RTcwCOM4EhQxGHwM7lmHQn4ITly92nFnsMgcbmAYXEQmwImDLMHi9OLXkj55D7oHTjcA/azkDibvdBxAqFkOPc2M4MzNwFGKfAkHFIWHV9WmvbOKm2MW+4SN35Ml8erATKSdj0Mkvy6nRI/p0gTIASWLMcs24tZsm37pGcTQ2fD16deLbn7+jG1ntwMEglZv1WGD0ROfcchC2YrRUQEtb666yiAkbdjPXMc1jvPOueavDzbMyq4iY+0Mi+U1oAlQYcPZDz4w+PLlNc7F1zerIcT/tnT7d5T/oNr/oWTxzD8aKupvqNtqpPs4t30DV2LNHl69mU1dK9X11UuWwQqT0YSyzDYzuReGAzpRWb2JoVydDuPY8qmfScN3WuSwiMGkx3SWZ7Rl6dHD2XhPRkJOI0evs2bCzPy7KLl7Mqo4ou3UcRXbOY1mqfVlmOEBZ7O3+acC39zWZ+XP8qby9/iY82f8+GnKzq9nDQc8h/cXV3m80bX+LVHx7n/1b9g++St5JV/dusInMdic6ODOzSo852EMNp3bpTkbmOPYdPlrTQz58kmjnV7kBiu4EYSNrtTqaaXVJfZOZTSGgvpH8n9ymsxevqd7ZWV+S1BbUrtnIl9tSnMDVTYE47C4k0sGIrJtEfU3Q1En8m0mFJndN9HmqprGNmIR0j3O1TWFj7PYsKwGXANxyJsDA1P659R2F9+p37b2PDypewFxxqrcrUl/wldt7lWBf+AVm6qPnYwGhk6gXueVClByHbhri2qZbH0veD04BvJyTKwuS7Wm/baM1t7Bg5Rj3Ip4unE9fIXmjvm82t8c+yyYuzs1XlGdRMJikvzaDepl6yFbO5GBkdiTw2G8eGFdjfLcCs2E39SVgC/fqDj0BW3rHlntGXY313uefxDdd7ULB7ZGnjz5izpmH93he2vIEpG4QEhbqHdVp7elPnwcgZI91/GycEhbmTvrJGGqKxfadkGfbfxuK4ewJy6//guDYNs2IR5ov5mMSmfqw3oqCl5XjRP3u6zXvSb3gS40nf68nxwluN9Rue8rQ+eXlgC8QNQAJ/wTS2XVg9ie8eQ2Ha++xtpgriCKVzzCVM7hZAdtJmMqsXZYWPZXjQbn7MLMUAuw4mc2W/0XTblsR+b06jSxcmnTeXSQ1etks2HXWdGymE4A4ROFwHyS+vf4+c4tIcnNKNsABx/4g6qrIqyS7KgehORAhkmNZrn1ZZjtWfc4eNI/DQbF5csZjcw19za50gB8EBIVC5iaTMHeyvcC98X50IU7mFTZkV3NhtFF237SXVgBU6lvjwUhISNlH3aodm+/mTxBGHPFP3L286AQlHRo+t/mgR5o0HsH9scJqz4dwf5646p4N8kHGjgUpMQhJU+mGSnciI4chQf8waLyblt1hWK2nhdEv9+uRj1iYAocjAgTD+bqzbcrDf2tD6A0umEPPBPMz4u7Guzcc0Vs26iTCAKcZ8/K92T76aVG/ErbW2jVbexo6RK2E2946ff3gwqy5TkcOB1kyqTAbm6Qexf38L1vkjYfRFWKOnQOoK7Kdfwuwpq3MRoEBBIubdL1v+wdmcioOY9XvdqzGsN3JaTMufObzeBQIDAAsKN2B2+SDDXJhV62HoNLCCIEigojV3HgNfz8S1MBB6jcK65z5k6LVYv9+E69WNtWHN7jtVsOAZXD9/ikw+Dzn/HOTCPyDnXYh57n7spVke1qWl5eR42G94sc170m94FONB3+vJ8eJoHO1Ivaf12fYZ9neDsM67EevrG+CLh3C9vrleiCNiLMOD89m6bjeN/W706XYnz11zJyICrjz27n2b2dv2VP+GctCl2ygisheyq3rbLszYRHr8RIaG/Zv93oxumWx++flllh2e324R0/+/uCH6yNCW6nz0jlwX3pdVdyNrrfZpneVIh77EdbDZl/ALeU1udpXs2P4BG8bfwh2XjCA5bTUbU5azPiOd2ly9mISUDZSNG8Pw8M9IzYMusePoUv4LX2U0PCN18vNpeDV77d8Gk5EFpjf07IM4ljU/n6pqHfZ1T8E1r2Nd0wMZfRp8eaD+dtfc3B9HH2R0FIgDeeQzHI/UvBGKjB4IazYf+ZnmtMYczyPqWD0IbtuAjcnOA3pBSEjthQ4hYeAQsPMwdWcxOxMxzz/pntAffRnWB3cil16JfLyxbS5syfweM/9y5JpxjZ8VMsWwcx+mtATSdmOWfo/ZnOl+z1W9ov18azcIXz/333Y7DOvH9naPuDkPYbJtcPRvnW2jtbexY1Waw/6E3EZ/vxhjsFt7syhOxLw5C9c/opCxv0FuvB7pezbWIwexp7+LsXMwi76FYaORLs5j/0FU8DPmyQZXtTen4XofHghYINmYD97EHuiCVfkQ7wAJhECPri7ynqsMEldgzz8fx+Cx0LcvWHUSz+b2nRo5OzGf7MT8azZywxNYtwxDbr4EWTHbg3mpniznfc/6Z2+3+Zb6DU9iPOl7PTleeKvh9uMNb+tTeQizbH313R7q8qFH7Bgiy9ayKafxtMqV+TGvbdxIhauUgtJcyutWVbowuGtX/MP/yGNX31L9ooVlgU+XLizMS8Xzb1ZFUdF+0g6P/DpwlDeaCrdY56YZisvycTkiCA8QKK1pMCG4QyQ+poCCeiOh3pblR1RIJJRmuRO71mqfVmtn993PW7oHurNoOR99t4mlXc5gZOyZnHfWJVyY+wUfrPyUxOrR4PKDy9lcfgbxPXrzbaEPY3p2ITvlLZJOvjPpLfJpeszOwMbVmPIxSOwUZOoyzKdJ1TuiL0T4QV7D4bEKzLz3MOc+joy5CWvUCuy1Hg6h9RgNXRxQsh+zObX+KMnI0xHHZu867GMmMGgYHNgCxQY69EWGRAAuTFY2YCBhO8Y10n31a9fv3RcXTZzgvv1S8jbIMxDayKJDQt2za+22nFhYifn0E8xFDyAhjbzt3In937MaT3pzs93zxaJ6u+ep5gB9+rinPOVk40XP572AOOQPUxCHgfU/YQoM9GylbeME28Ycox5o1VPtzRP3+Q2ngYpszPJ/YzJDcLx+HXTpB6ECuWmYd1/BhF2A9cn9yLTLkJVvHduop6eOWO8gAdUjnpYNmxdgNgP4Ig4LJAAJlNZLOyUYYgQOVp8OlzAkvhdgILfB6GJz+w7+0LMjpKS7P2OKMUkHgWFezkttaTke9s+ebPP1ym2h3/A4xhPHcLxoqLF+oy3qM+QKrAv6wurnsZ/98chFWH2J796RvNSfSWminzTOXDILUmns/IoVFM9poeksW/Eaqw9fjOag68AHuaHLcCJ3pJLdahu953VumqEsO4FUcxWnxUTwU7L74iIkksFd+2Dy/sPeurdC8rIsK+gszojxJWPXeg4ZsIJbp328a2chpNMkxncWdicuIqlOIm1K93KgzGJU91GE71vazKgnYBeSlvY9aWnf823IRdx2/vVc0nslr+7McLeZK4FVe9MZ2/tcRhT6cXrAHn5ITm71E7UnguZvp5S1CDN3MjJtCHLHGziuSsXkOpGorlD8Bfb02Ud2/EVrsD/ZiuOuYcjNF8H6f9e+J5HI9EexCut8qnwz5vkvMCNGuDuNTf/Efqx6h46ZivXBDKTrMOgskO7FHtdkWZ97llyEjMV64gkkrBhScyGqO4T4QNFazJLq+/rtXYj56RJkwgisv8/GZArSs5P7F/+8Be77X9bwGYz1/GsYCUHiurhbfvVSzzvIoJHIA5ciDl/o5wAEueQ+rNMrIfkb7A/WHvmZnKWYBdch18Z6VkaNxBWYA1cgPcdgvfMeJgukZ1fAiVm+sm2SM5+BWM+9CV16QogDCjZiv7UIjECrbButtZzW066n2kMmYL1zGyRtgQMZmBIHMup89w+gzL1Qdz8pLXYnqOERbX/RVXPrPdDfPZ3FqnuRh7hfE3844qKFYxA5Eeu9u5Dc/ZjsMoiMQ7oEgzMN8+Uaz0fiws/Geu0BpDIVsz/bfQp3QC8QG9b97Pm+48lyWuyf3/esX23Ik36juZjm+t6GsY0dL7xJfprcfji6PrOl+kREuPeZ4sYTZJ+oMxgamM2mA4lHkTAIITHxdKvaw7eZqWTWKbfgYCKuHvEMCFhAdmPzSo/BsdUZTPFyFqVcyK3D7ua39mdsLrKIibuKS6KL2fDTsnpXtLdcltAhuBexkTYhYcM4c/DF9C75lrd3H8BGCGuV9vGyna1+nDvmFn4TDKN89vPspl21dbd3snTbBuLH3MLdZ3dn2b7tZFQ4cfiEE8leVqelYuNH34E3M8C5lT35WZTavoR17E2YVUVWRd3T6C7Sk78nccDvuXokVKW9wdri9jsetScfUz2fqvEuvBLzySzsjGuRqRORvt2QCCdk7sWsTWkibTXw/eeYG4chAy/Div8Ke0v1WxIAQxucnikpxThCkdP7gbgwOxNr38veDVk2xPRBhodh0r24D2dTZVl4NtfTeRDz3UqYNAKJ6wHluZhffsK89z6m5kZfJhvzwkzs7GnIxCFILLBvHWbe29hLqucHOXNgzwGI7QS9+iOmHDJ3YFZ+jZm72PMDmm9nZNyZ9W+G3HsU0hvosL6JD1Vhvvgcc+n/8y5/qNqF/dhzWDNuRIb3QHobyE7CfD8He85ub5bUMlcBpOVCtzDoHQs5+zErl2Dmfo7JqHKPPLXGtiFtsI0dq9Is9m31dM7fMYrpCJVByNhJcEbNVDgDB9dg/89HTYxqtmHW2dJ6xwcC/N2x9RJPq/peHH7g34r18S2ANTswA+KQgUFQkYfZ+BPmkw8xG0pb/nwNycAsWgtjByFDYt3zHTN3YlZ8gZmz2vP93aPltNA/+3q4ze9tWLgn/UYzMc31vUdo5HixwYO51i1uPxxln3mU9XEXSO/YUYSVrGLTUV1pHET/mD6Qt5LUBsl3Rd4eDsrVDO4czKp9Ra04weRY6wxQTMKGZ/mw4ibOH3YfE/2huDCB1Wv+j2/T697Ds4WyTCFZBdkM6/8Q9w52UVKyn6QD/+DVHStJqzJAcCu1j5ftbGeQmJHG2B7CzqyDDX4XGXL3vc4rFRdywYAJTBp1PiE+QlV5Jvv3zWFjWiql+GNZQfQb8EcmdgjGh0pKSw+wJ+E1vkopqD8bsfQnlqRcTv9epSzduR4vep6TinQNjT78vWvme5ZRSZwz6vjVSinVBnygc0/k/v/FGmkwr92G/XXGkSNMvmdiffY44rMG+6rHT5wLzpQ6rgSmPI3jgVGw8L9x/bXBiKljGNdc/Gf67Huc57ckt+mMpFbTnnU+GdtHtYl6Y5Yn/a0MPWHFIjPvRTo3dY82Gxa9ij1//6+zPq3lVP1eJzUnZKZUn1Y3kJPT+GlNVzom3YX0GYn15IOYtDLY+Dn20ja67+zROhm3sZOxzu3pRGwfqxtyyxVIaCCMGg64MOlH3grPL/oMhvhn8POBlJMmqWrPOp+M7aPaRguPzDwFSSDSbzDSo6nbxLpga+Cvtz6t5VT9Xie9KszTl+J6upkQOwXz5oeYP12ODJuEjDDgXA4nWuJ5Mm5jJ2Od29OJ2D5WR2TyxUgngfI8zIrPMUckvv70jR1JUNFiNnlz/9Djqj3rfDK2j2or9U6119BT7UoppZRSqrUdwzPKlFJKKaWU8pwmnkoppZRSql1o4qmUUkoppdqFJp5KnQokignnfsCjIwbgsAZxxW8/4K5+kW1zp4r2LEsppdQp5YhntR9JoP9krOsuRob3gmALDiVjVnyKPXs5BJyN9db9SHQgYKAsDxI3Yz6fi728+ipYn2FYc15AohvmuQbmP4zrlQ21LwWMxfroKSQcWPUirseqn0KBD3LnbKwrOzdeTTsTc/8t2AmDPS+rJT2uw3rnj+5HYDa1HP/uyM3TkcnDkVAgbRtm3jvYi1Pc74eMw/rrDKRzGHTwB2cxpOzAfDMX+5tdXtxQOhp5+X2sYQbz/LXY3xc3HtdSfdwLa36d1jymscl14UV9VPswlVS6DLbtxBiochlcrjZ61mV7lqWUUuqU0syz2gEEzroHx6wp4AcUHMTsq0Ci+yBjeiHvLsc4giGyA1AE25MxoT2RoeciQ+Oxnr4Te2lu7eJMOWzbiDn8KDUDSQ2eFBM/Hgkz4BKIn4CELa5+JrKN2bse81M44Aenne5OiBLXYTKrwORjCmzvympJaRqsWoVxVLdFr5FIV786zROB3Pc81qQoKMvCpIHEjUZm9sWy78JekgOOcIiLAZ9SSNqD8euE9BuD3DsYq3w69qLcpkr3nif18WSd1iyvyXWhTjwVlFe5KKkoASzKqlyUVpa34hNOjldZSimlTiUNxvJM/YdnBp+Bdc8U8CvBzHkMe8429w2npQN0ctR/9KRzF/bjszD5gcjdb2JN7YpMHgnLFtUpIBfzzl+wtzc1OuKPjB8Nzp2YH/yRKcORMaGY7wsAGxa+gr0QkCjkxQ+REQYz/yXsr+skbzXfqMWyPJC9AvvJFYcXLHfORq6Mrn0/bgpyThSUbcK+YxYmDZj6LI674pHrL0KWz6k9GDsTsB+ahcn3Q2b8DeuqbsjQntCaiacn9Qn0dJ02ty7UicdJQWkOeSV52MYitySHoPK6O2gwA4fO4MLuPYgKDCPQ4aS4cDu/bP2Ab9Oza1e7RDJw0I1M6R1P1wAoyt/I6m3/ZHFGbp2bPrdUllJKKdW4euejj3hi+5jJSKRA+kLMR9tqn3JiSuFQUROLdIGzOlC8nELqPwQZEwEp6zDfrgc7ADlz5An6SCWBIUMRh8DO5Zh0J+CE5cvdz73uMQTCG6l4SCzEhoApw+xpzRtye1gfT9fpSbUuFLhI3fkyXx6sBMpJ2PQyS+o+D1kCiO40jFjnWj5d/QJvrXyP1aW9mDTuTsYH1+yngfQd/jC3DupO5u63+MfKt1le3IPzzn6Ey6IDPS9LKaWUakIzTy5yILHdQAwk7XYnL80uqS8y8ykktBfSv5P71PfidfXnMFpdkdcWcPiZFJUrsac+hSmv/v9pZyGRBlZsxST6Y4quRuLPRDos8f550S2VdcwspGOEu30KC2u/Z1EBuAz4hiMRFia7+nXfUViffuf+29iw8iXsBUc+dq1t6+MLnq7T1lwXqlGOUQ/y6eLpxDWyF9r7ZnNr/LNsqjryvaZUlWdQM5mkvDSDxjZ1u2Q32w5uowrYUxBIn4t/x6DOISwvLoDAcUzuE0N6wkw+3p2GDezKTMMn5DnOH3gGiw8todCLspRSSqmGmkk8jecXvgBIODJ6bPVHizBvPID9Y4PTyA3nXTp31Tm164OMGw1UYhKSoNIPk+xERgxHhvpj1lR4UZmWymol4sXwn8nHrE0AQpGBA2H83Vi35WC/tcG7dj6m+ni6Tlt5XahGuRJmc+/4+fg3stpMRQ4H2vh6HVN+iNwqoatfMEIBEtaHblY2aw9l1J5WNwdJPJTNlLg+xFhLKNSHLCullDoGhxPPI69uN5iMLDC9oWcfxLEM01ziVrUO+7qn4JrXsa7pgYw+Db48UD/RaW7epaMPMjoKxIE88hmOR2reCEVGD4Q1m737Zq0xx/OIOlafkrRtwMZk5wG9ICTE3XgGCAkDh4Cdh8mrc5R2JmKef9J9cU70ZVgf3IlceiXy8cZWumDHk/q4PFunrb0uVONKc9ifkNvo7wVjDHabX63jLkPqVKDpny566ZBSSqljd3gS5pEHHAMbV2PKDcROQab2qRPkCxFBjSyuAjPvPUy2gTE3YY1qLKYJPUZDFweU7MesWoX5aRVmWwYYC0aejjhaXkTrEhg0HIKrv3SHvsiQCMCFycoGDCRsdydugyYgXX0AH5g4wX37pf3bIK+Jg3VIqLvlvRkxbZEn9bE9W6cn3Lo4NTlGPcBnuTtZV3Dkv7VbZhLv2771sQuSSLWj6BMdU6dj6ELf6Chc+clk6GinUkqpY9TMqXYgaxFm7mRk2hDkjjdwXJWKyXUiUV2h+Avs6bOPHAcpWoP9yVYcdw1Dbr4I1v+79j2JRKY/ilVY51PlmzHPf4EZMQJxGNj0T+zHfnS/FzMV64MZSNdh0Fkg3YtRlybL+rz5kdsaIWOxnngCCSuG1FyI6g4hPlC0FrMkzR2zdyHmp0uQCSOw/j4bkylIz07u0dZ5CzB1D9Q+g7Gefw0jIUhcF3fLr16KKfB2JMmBXDETa3ydkdya7+VJfVpcp+97ti4OelAfvd6kWcf7VPsRZZatZlHSRdw++B6utz9lQ6HQJe5Kzg/PZPWyNYfndyqllFJHq/nEk0rMJ7OwM65Fpk5E+nZDIpyQuRezNqWJTxv4/nPMjcOQgZdhxX+FvaX6LQmAoePqj66WlGIcocjp/UBcmJ2Jte9l74YsG2L6IMPDMOle3IezqbIsPJvr6TyI+W4lTBqBxPWA8lzMLz9h3nsfk1GdLJpszAszsbOnIROHILHAvnWYeW9jL6me3+rMgT0HILYT9OqPmHLI3IFZ+TVm7uKjOINpQb8xSL/GvpcH9Wlpnfp6uC4OelIfb7/br0xpFvu2Zh3vWtRRRuLmZ3m36ndc3P92pgVAUf5mFq+Yyw+Hyo535ZRSSp0CpEtotKmbnBn4/+ydeXxV1bX4v+vcjJAREibJQBIwTElAEgYpWEUBpSpaxdbWV6vU8T1ttValTlR9tVZ/Tn19Pp9SClbtK4qiIggCYVRmEkKAEBIykJB5vknuPfv3x03IQG5yLgZE2N/Ph88n3LPP2Wuvtc856+y99l7YaSLKEfZdyaTRaDQajUajOQ/x6rys6LzfptGIQB59EBnobo9RE9a8irni2IUpj0aj0Wg0Gs0ZonMW8vPf8RR/ZPgoJNLdChknpPm7OXYByKPRaDQajUZzhpDBQeGqc8aiBj3VrtFoNBqNRqPpZQxw5WjXaDQajUaj0WjOJEaH/d2/MzE0Go1Go9FoNOc7J1e0KNT5H9+p0Wg0Go1Go/nOaJe5SLudGs33Fglj2uWLeWLcxdiMkdzwo8XcN7xfr9/V4vtD7r7pPV6Z5/r34pRJuEuw5DvgVn47900eGDkMt8muvMKIHpJERFe76Gt6h7PUNzQajcYK3eRqb0VgxAyMW65BEodBgAEnslEbl2EuSgW/H2C8+RAywN91lYYKyNqL+mgpZmp+Sy0JGEv+hAzovGWQghWP4XxlV9tPfhMx3l2IhABbXsT55JqWGAAv5N5FGDcO7LolZjHqodsxM0ZZr6snIm/BeOuXrpST7q7jOxS5bT4yIxEJAgrSUe+9hbk213U8cDLGn+9BBgZDH19w1ELuAdRnSzE/O+hZfEPIGOSOn2NMjIcQb6g5gdq/DfW3RajsRghsbwugqQ4KD6PWLcf811ZoBGQA8vLfMBIU6oV5mKtru6hnNsb7v0a68ih2v47ztyuReyzYYp+F1Dvxd2J77SbIWoL5wFJUc7v6j7+Peefblh3GAAAgAElEQVQ7bRmQ3PYNoO8VGP/6HVL/JebPXkQ1ANMew/bkZZD6HM6FqZ71w+8bqokmp8I0HSgFzU6F09n7qY9U0zf8c1UWvhLEuOTH+KHbkoJv3yGE+QTSHBSKjaNd5hMwgq7i1ksnsG/tb8lr1BkHzghnqW9oNBqNFXrIXCRw6QPYFswGH6DqOCqnERkQi6QMQ95ORdkCoF8foAb2Z6OCopGxlyNjkzCevRdzfXnb5ZQd0nejTqaxVHCkUzaipKlIsAKnQNI0JHgtqlIBJuroTtTmEMAHRl/ickCydqCKm0FVoqpMz+rqifoC2LIFZWvRxbDxyBCfduoJRX7zAsYVYdBQgioAiUpGHo3DMO/DXFcGthCIGgRe9XDkMMonHBmegjw4CsM+H3NNubvaO2JEIX94HmOUL1TmofaVQcBgZEICalGzq0x7W6QfQXmHI3FJyO2J2GL+iPPZ9dbqai5Gbd0CNm8YdQkSKpC9E3W8CbKL8NgWPSIw4ibkug2of+W5L+a2bwAh/Vzj98EpyDh/1FYb8sNkEHEd65AloRf6xjlHI/ZmJ3WNdYBBQ7OT+iZ778dtqzrKq+tA+hHr6O7qiuqjb/CnygE4q3Np6m05NB5wlvqGRqPRWMALWkc7uxjzDJiE8cBs8KlDLXkSc0k6mID0gXBbx5SIjoOYTy1AVfoj9/8FY+4QZMZ42LCmrYwqR731B8z97r62fZGpyeDIRH3pi8xORFKCUKurABNWvoK5EpAw5MW/I+MUasVLmJ+2c95aXeke67JA6UbMZzaevLDcuwi5cUDb8ajZyGVh0LAH8+4FqAJg7vPY7ktCfnI1krqk7eHuyMD83QJUpQ9yz18xfnwRMjYarDqeAycgI/ygeQ/mXb9DlbZcOSAA6jo5eY6DmE8vQFUCCXdh+/MNMGUmEroBVWGhrrpdqGd2oSQYef4fSIqgPn0Z8+PStjJWbOEJ4o/89A5k3TNucrx31zeAoBBE7FDlg0xLgow+yCU2qLRDSAhitBtc7o2+cc7hoKq+jIq6CkxlUF5XRl97R0WKVxQTE3/GZUNjCff1xtlcS3XNZpZtWMqBZoAA4sfezzWR0YT3CcBb1VNevost6e+z4UQlVj8lxPeH3HXtr4hvGVhuznuVx7dso7l9IWMkN1zze6b1cRW64sqlXAGAojb7jzy1fZ8HGVe9CBl4FTPjpzOy/2ACbSaN9hMcPfgX3j6U63pk9dB2v4j/4MnJsXzz1W9YXtpas8HgUc/x8MWF/P3T19nb3J0MrQQQP/YeZg2NJMw/GH+bg9rq/XyTtpgvCktPtkl8J3LzZT8nMTAEP3FQV3uYfZlL+eRoLo2AEXo1d0ycQ2yAP466g6QVNxIRMZb+zqNs3fk6K45XuvqzBDIsbh6zYhKJDAxCNRxl/+H3WH7oIHUnZeq5b2g0Gs3ZovsRz5QZSD+BwpWod1ucTgBVDyfcneQER0tBcZeNxw2+Y5CUUMj9FPWFHzIzBpkyHr5cdw4uuRcYMxaxCWSmogpbnJjUVNRdSUjkGAiRU/OVB0ZARCCoBtThfOvV1VdBkwK/SOSqJNSyPdCooLaLqfKTKMg6hHKCGEEQKGDF8fwuKDsBIZMwbk3EuaSL4z31jYAAkCbUzkwkeTpyqC/CPlRaPDI6+ALIjOAkP/NlPna4xhYz9rxMVoepaxvRY37NTUOLWbP7JfbXNGD4hBLe10FJq/8tfgwIH82QxpUs3rGbeiOMuNgbuXra4wRueJJPSuyWJFFNX/P+FwfxlWDGpzzO5V0VMo+wet1v2Ro6h/mTxnBo24usq3LJ62wqs+zkghAccRf/MSkFVbyKr3b+k2J7E16+A/GrK2l5bPTc9sbiHWQ5UogfHIlRetRVvwxi9EVDaSz+hMOWnE5adJhAhONLlm7dRR0hxMTdwlWT76V21bNsqHW1TDXnsivjf9lZX0UjgVw07BbmTniAxupH+KTMgeEfxbDAE2zYsIT8oXfxi5gG1m56geLIu/jJ+DnsW7mUHNOXqNGPcXecg2/S3uaLigYCBszmuoSHudXxGG9ll7a0v6e+odFoNGePbhxPGxJxEYiCI4dQPQ0OecUhjy5EgoYhI8Jd061rd3R0GI0hyGufty00aNqEOXchqvV9NvpSpJ+CjWmoLF9UzU1I0hSkzzpUHZ7RU13fGgPpH+rST3V1WztrqsCpwDsECTVQrYOE3hMwlq1y/a1M2PQS5uduvfdTqdqA+deJ2O6fhtzxR2zzClAb16CWr0Bl1XR9jv8AZO5MV6xm/XEo9WT6+yyT/TFmxfUYs36BrF9z6vGe+kbfANe0+u6vUZfeifFv3rDvDVTDSKRvENho+wg4433DGrYJj7Bs7XyiurgLzZxF3JH0PHusOjxAs72I1oABe30RHZtjI8AvEJr2cKT4AMcaXX0hp4vrmPXZHCg+QDOQVXwMZjzLD0dOYl3Jetz0tI6oeipr6kHs1Lh9bjRRW1tIvU8tThzU1RVSXH0azpAxgssTJuN/YhEvblxL+cnnTVq7Qj23XTXtY09xI7deNIEh6UfJV2AETSQppJ6MjD3UeyiWWXeI9OPpNAOHq/yJvebnjBwYSGptletRYRZxOK/oZPm8Sh+GRz7AsLD+SFlxi1BVFJcfIcN2BHtMAMWlB9lDJnMjBxNug1yfycy8OJyDOx7iw9xq13XL8/Dq9zq3Rl1C8NFVtEaidN83NBqN5uzRzeIi5dkoo4QgyRNbTq1BvfEw5ledpl07x9Y5DrYbEfRCJicDTaiMI9Dkg8p2IOMSkbG+qG2NnrSrh7p6CfFgGE1VorZnAEFIfDxMvR/jV2WYb+6yqOdm+Pw5nF8vQ2ZciVx1GTLrF8iVs1D/+RDm+pK2ou2dXABVi3r/ny4H7Vwd+VPVqMXvoabejzGvEtVBzp76RhP4+wEGVO9CHfRCEpyoLTth7J1g9IW+AtWtdZ2FvmEBZ8YiHpy6gq4WdKvGMvJ6NRKgiQP7F7Nr6u3cPWcc2QVb2Z2bys6iQuzd9T8zn8ziUq6MimWwsZ6ac+zbRfrEEdXHJCfjGyrctsNK22vJyN1Fw+QUEkM+JL8CBkdMZrD9Gz4pavhWMir7CcqbhSE+AQgux9PwjecHCTeQMjCSUB+h0W7HxyZU2LzdLvJ0PW5MTAxEBCMkjqG2vgSkvMGLKe1KihdS259g4PseuazRaM4/uhnxVKiiElAxEB2L2Da4ib1roXkH5i0L4ebXMW6ORJJHw8d5HZ2q7mLrbLFIchiIDXn8Q2yPtx4IQpLjYdtez1p2JuL4bC2hA6YJmKjSCmAYBAa6HDoFBAaDTcCsQFW0e0s7slAvPONaDDPgOozF9yLX3oi8v7ttgYwVyjJRH2Si/rkI+enTGLcnILfNQTYuahfDWAuZOaj6Oig4hFq/GrW3uDc0cGYpXo1acT1y8+SOL98e+8Y+6OMPGCClqMV/wYx3wpZKSLKB+IN/e8fzHInxrC/jWEZ5l98vSinMXg4vcdSk8u6qPawfPInxEVO48tI5zCpfzuJNy8hqcl+ZQoGcxoZrykpOtG+bN811fk9XsdJ2+/FU9tonkRQZwxfVXqRED6Y0902OfOuPEpctpdXQMoApkx/h2oD9fLH3VQ5U1yG+Ccy+dB5BXZ5uYnapS0HUCbZt+zMbOi3mU2ZtN464RqPRfHd02ihItdvPU8HurSh7ChIxG5m7AbXsSIsj6Q2hPlDRef67EfXeO6jLn0JSfoYxYSPmdotz5JHJMNgGdcdQe/Nd9QTHIKMHwfhLENve7h3fXkdgZALk7YNaBX3ikDGhgBNVUgooyNiPco5HRk5Dhqx2LS6aPs21/VJ2OlQounyTBAa5VmCbnrzKfSG6P+QWunSjalFHjgMJLme3/aUcmZi/X+CZQ3tO0IRa9gHq6oeRwHY/99g30sCvZcTTMGHv56i9AN6IzQDxQ/zlnAsTtk14uFen2i1hVlNQsJqCgtV8EXg1v7rqJ8yJ2cSrmUVd60fCiQkLw6zKpbjDR6QDh6kQL398ga7FbKLZqRCfvvi7K2M20Yw//j6nNxSv6o+S12AwYegEQnLWd+9s9dR2ZwZbjhYyMeZyxlX7cInfYb7Mzu79wXCJILqfD8czP2BtXr4rntQIpMKpunxcOIve4ollrr/b74dqVmWRb04jOsSHj/Ky3dhAo9Fozi26X1xUsga1dAZy5xjk7jew/TgfVe5AwoZA7XLM+YtOfVnVbMP8IA3bfQnIbVfDzv9rOyb9kPlPYFS3O8u+F/XCctS4cYhNwZ5/YD75levYoLkYi+9BhiTAQIFCD1wHt3V9ZM2BDZyI8fTTSHAt5JdD2FAI9IKa7ah1Ba4yR1eiNs9Bpo3D+O9FqGJBosNdI2rvfY5qPwjhNQrjhddQEohEDXZpfut6VJXFNoX8AOO1h5GmfNSxUldow8XDQEzY8fVpOOU25IZHMaa2G/Vr1Y/feOThaxGbNwy3AYLM+Q3GJU2Q/Rnm4u1nbrFX2XrU57cg8yJafhDosW8Y4O/rCn0w2i9oE9dv4gve7Rybb9s3eomzO9XuQ1z8bVzsSONwZQn1pjfB/WMINpopaew4lWwLm8HVw4XDtU7Chl7PzP7V7N68lY5dtY7i6gqM2Cu4MrqCzOYA+pHD1oL8dguD7BRWFiMXz2BWTAVpjX3pLzlsyc87WcaszaWoOYiE+Bs5IunUSCiDbLlsysuztsDIzGR9+i6SUm7n/h8MZUPOfooaHdi8QujH0RZ5rLbdSWH2arIu/jduGg/NBW+wvfYMdHRVQH6Vg8So65hauYajDY2IdzQhNs+cb9WwldWHZ3JP/G+523sFm4vyqDV9CAzsT33hlxyoO9c+tTQajabHfTybUB8swCyah8ydjsRdhIQ6oPgoanuum7MVrP4IdWsCEn8dRtInmPtaDokfjO00jVpXj7IFIZcMB3GiMrPajpUeghITBsUiicGoQg8iltzVZWAtns9xHLVqE1wxDomKBHs56pvNqHf+hipqeaCrUtSfHsUsvROZPgaJAHJ2oN77H8x1LfGtjjI4nAcR4TBsBKLsUHwAtelT1NK11h04KUKt2Q4TRyJjIlxxisWZqI3LUUu2noYjaMDwFGR4u59a9eM9EJk8peMG8jETkBigz05PK/KQZtTyj1DX/rvLdmKxb/j5tjSrveNptOTm8gHfdj9/277RW9SXkJNW0nO5XsEXw+jL8It/yfQ+AXjRRH19HoczXuOT3KqO3cf0J2r4L5na14emuoN88/V/8WlBbacu5iTn4CK+Cv43pkx4mCnOMvKz32ZXQT4N7coUHHyHVSF3MH38b0hxlpGX/TY78/Payjh289mOlQQkXM68qT9CHKXkHXmH7XntynSLojzndV5pnMXMi6dxxYSrCPQSmu3FHMtZwu6CfOo9aLuq38y63OsZMaye9Zk7PV5UZE3kIjZuew3/xBuYnvw7rvXxxnTWU9eQzYHaBg9uZTtH057jv+pvYmbsNdwcG4yPaqCy+gDrS9Zy4LsIXNZoNJoekEFB4R2ecwLYaSbKEfYdiaTRaL4TJIxpP/x//Mj+l1P33dRoNBqNphfoYcTzPMSIQB59EBnobo9RE9a8irni2IUpT29xvrZLo9FoNBrNaXPhOZ7ijwwfhUTa3BRwQpr/hStPb3G+tktzdpAY5sxayIwg9/3nxIGn+OO+Ix5sNn8eyaPRaDTfU/RUu0ajOQfxIShoMIHdJD9zNB6nuOFsZYE/1+TRaDSa7yedHE/XNvKN2vHUaDQajUaj0fQynb7fz9W0NhqNRqPRaDSa7zvdTBxpNBqNRqPRaDS9hy3At+/TnX90YhJi9vkOxNFoNKeFhDHt8r9yW8gBNp8YwNw5L3G5SmVH+bfLM/79wSBo4PXcMuUebhr3U2bFz+CSi4Zhlu8ir1FvpN4jF3z/0Wg0Zwt3W8C3Q2DEDIxbrkESh0GAASeyURuXYS5KBb8fYLz5EDLA33VmQwVk7UV9tBQzNb+llgSMJX9CBnQeYFWw4jGcr+xq+8lvIsa7C5EQYMuLOJ9c0yKQF3LvIowbB3bdErMY9dDtmBmjrNfVE5G3YLz1S1cKTHfX8R2K3DYfmZGIBAEF6aj33sJcm+s6HjgZ48/3IAODoY8vOGoh9wDqs6WYnx20vvF7YHs9A011UHgYtW455r+2QmPnMm5sYUVmoEe7K4s2DRmD3PFzjInxEOINNSdQ+7eh/rYIld1ovUxPxN+J7bWbIGsJ5gNLUc1AyGyM93+NHH8f88532rISue1jQN8rMP71O6T+S8yfvYhqAKY9hu3JyyD1OZwLUz3rz2cL1USTU2GaDpSCZqfC6fyOc9GfRcRnEjdOuZGo0g9Zti+dStOPwL59qbbrNeaWuMD7j0ajOXv0sJ2SwKUPYFswG3yAquOonEZkQCySMgx5OxVlC4B+fYAa2J+NCopGxl6OjE3CePZezPXlbZdTdkjfjTqZqlDBkU7ZiJKmIsEKnAJJ05DgtS05x03U0Z2ozSGAD4y+xOU4ZO1AFTeDqkRVmZ7V1RP1BbBlC8rWooth45EhPu3UE4r85gWMK8KgoQRVABKVjDwah2Heh7muDGwhEDUIvOrhyGGUTzgyPAV5cBSGfT7mmnJ3tXekvZ7Tj6C8w5G4JOT2RGwxf8T57PqOZdzZworMVuzeGg7cnZ6NKOQPz2OM8oXKPNS+MggYjExIQC1qtl7GMgIjbkKu24D6V577Ym77GBDSzxWAEpyCjPNHbbUhP0x2pd4M6dcxDLo3+liv0Yi92UldYx1g0NDspL7Jfs7lpz9TSEAkg7zK2HPgY3aXtnxhnK2kUOcFF3b/0Wg0Z4/uHc+ASRgPzAafOtSSJzGXpIMJSB8It3VML+g4iPnUAlSlP3L/XzDmDkFmjIcNa9rKqHLUW3/A3O/uS9oXmZoMjkzUl77I7EQkJQi1ugowYeUrmCsBCUNe/DsyTqFWvIT5aTvnrbVFPdZlgdKNmM9sPHlhuXcRcuOAtuNRs5HLwqBhD+bdC1AFwNznsd2XhPzkaiR1SduD25GB+bsFqEof5J6/Yvz4ImRsNFh1PE9e5yDm0wtQlUDCXdj+fANMmYmEbmjLDd+dLazI7G/B7lb0PHACMsIPmvdg3vU7VGmLNgICoM60XsYTxB/56R3Iumfc5F3vro8BQSGI2KHKB5mWBBl9kEtsUGmHkBDEaDdI3Rt9rNdwUFVfRkVdBaYyKK8ro6+9vQICiB97D7OGRhLmH4y/zUFt9X6+SVvMF4WlJ29l8Z3IzZf9nMTAEPzEQV3tYfZlLuWTo7k0Akbo1dwxcQ6xAf446g6SVtxIRMRY+juPsnXn66w4XunSjwQyLG4es2ISiQwMQjUcZf/h91h+6CB1njRL+hE/8lZmxyQxxA9qKnezNf0frC0qd+2XaYzkhmt+z7Q+rtHngVcs5bIWfeTseZhXDxZbdJ4CiB97P9dERhPeJwBvVU95+S62pL/PhhOVJ/fmFJ/hTB41k6QBsQzoE0yAjw/KUcWR9Of4n0OFrnI9yQyAFyEDr2Jm/HRG9h9MoM2k0X6Cowf/wtuHcluu07MOxSuKiYk/47KhsYT7euNsrqW6ZjPLNizlQLP1Mj33H41Go+kdunc8U2Yg/QQKV6LebXE+AFQ9nHB3khMcLQXFw7VLvmOQlFDI/RT1hR8yMwaZMh6+XHcaucjPNAJjxiI2gcxUVGGL85GairorCYkcAyFyau7vwAiICATVgDqcf8pVraMg6xDKCWIEQaBAVecynW1hUebE07F7F9RXQZMCv0jkqiTUsj3QqKC21rMynlB2AkImYdyaiHNJF8d76mMBASBNqJ2ZSPJ05FBfhH2otHhkdPA5vPGDk/zMl/nY4dpHMmPPy2Q1tut84seA8AQiHF+ydOsu6gghJu4Wrpp8L7WrnmVDrcvIqjmXXRn/y876KhoJ5KJhtzB3wgM0Vj/CJ2UODP8ohgWeYMOGJeQPvYtfxDSwdtMLFEfexU/Gz2HfyqXkmL5EjX6Mu+McfJP2Nl9UNBAwYDbXJTzMrY7HeCu71OLt7E9c4mPcEWuyO+1NPq8WBkffyNU/eJyADU/w0YkGMI+wet1v2Ro6h/mTxnBo24usq3K1u8lutZ5W/YxmSONKFu/YTb0RRlzsjVw97XECNzzJJyX2lmKjmDR8Aip7CcvTiqhuNvHyCYaakpbbxILMCMERd/Efk1JQxav4auc/KbY34eU7EL+6khaZrejQRvSYX3PT0GLW7H6J/TUNGD6hhPd1UHLyW8hKGQv9R6PRaHqJbhxPGxJxEYiCI4dQPQ3qeMUhjy5EgoYhI8JdU99rd3R0GI0hyGufczL3R9MmzLkLUfaW/4++FOmnYGMaKssXVXMTkjQF6bMO5dEwiYW6vjUG0j/UpZ/q6rZ21lSBU4F3CBJqoEpbfveegLFsletvZcKmlzA/98SL64T/AGTuTMQbqD8OpSZ4txxzawsrMnuDJ3bvTs9VGzD/OhHb/dOQO/6IbV4BauMa1PIVqKwaV3krZTwh+2PMiusxZv0CWb/m1OM99bG+Aa5p9d1foy69E+PfvGHfG6iGkUjfILDR9jHxLfuYbcIjLFs7n6gu7kIzZxF3JD3PHg+iDZrtRbRO9Nvri+hKDLPuEOnH02kGDlf5E3vNzxk5MJDU2ipXdzCLOJxXdLJ8XqUPwyMfYFhYf6Ss2PWjqqK4/AgZtiPYYwIoLj3IHjKZGzmYcBvk+kxm5sXhHNzxEB/mVruuW56HV7/XuTXqEoKPrqLSgkco/pOZETuIwoxHef9QASZwsLgAr8D/5Kr4Saw9sY5qmqitLaTepxYnDurqCimuPn2HyazP5kDxAZqBrOJjMONZfjhyEutK1tPWG5soKtzAnuOn3hyWZDZGcHnCZPxPLOLFjWspP6mLtLbr+FnRoY0Av0Bo2sOR4gMca3S5vjkdJLJSxoWV/qPRaDTflm4cT+XZKKOEIMkTW06tQb3xMOZXnaaRO8fEOQ62GxH0QiYnA02ojCPQ5IPKdiDjEpGxvqhtFheZWKqrlxAPhr9UJWp7BhCExMfD1PsxflWG+eYuz/Tc3oEFULWo9//pcppCWuVyZwubBZk9tHu3em6Gz5/D+fUyZMaVyFWXIbN+gVw5C/WfD2GuL7FYxhN5qlGL30NNvR9jXmVbLCrQcx9rAn8/wIDqXaiDXkiCE7VlJ4y9E4y+0Feg2krbe8aZsYgHp67AtwuTqMYy8s7wDL6yn6C8WRjiE4DgcjwN33h+kHADKQMjCfURGu12fGxChc3bzWCvtHQpExMDEcEIiWOorS8BKW/wYkq7kuKF1PYnGLASCWsEx3KRUcr2E0VtU9TqOFknSpkdFcsgYx3VZ3LtkJlPZnEpV0bFMthYT42FuqzIXNMnjqg+JjkZ31Dh5l6zpsMmDuxfzK6pt3P3nHFkF2xld24qO4sKsZ+8rpUyGo1Gc/bo1vFURSWgYiA6FrFtcBMz10LzDsxbFsLNr2PcHIkkj4aP8zo6Md3FxNlikeQwEBvy+IfYHm89EIQkx8O2vZ617EzE39laQgdMEzBRpRXAMAgMdE3BKiAwGGwCZgWqot2bypGFeuEZ1yKWAddhLL4XufZG5P3dbQtbLLWrFjJzUPV1UHAItX41am9xxzJubWFFZqdndrei57JM1AeZqH8uQn76NMbtCchtc5CNi9qubaWMVYpXo1Zcj9w8uaOz1GMf2wd9/AEDpBS1+C+Y8U7YUglJNhB/8G/veH7LPlZfxrGM8i6/BZRSmGfcMXDVIa0CyACmTH6EawP288XeVzlQXYf4JjD70nkEdXm6ialUF98pgqgTbNv2ZzZUmZ1OqXXrbHWF+8+ks+M1KRSIeBRh0bPMLp11pbn2V7GiQ0dNKu+u2sP6wZMYHzGFKy+dw6zy5SzetIysJmW5jEaj0ZwtugnCVLB7K8quIGI2Mje23RPVG0L7dnFOI+q9d1wLRFJ+hjGhqzJuiEyGwTaoO4basgW1eQsqvQiUAeMvQWw9X6J3ERiZCAEtje4Th4wJBZyoklJAQcZ+l1M0choyxAvwgunTXNsvHUvH7Rs2MMileU9GTFtxZGL+/iHMR57AfHXJqU7nSbqyhRWZzdOwuzt8IXpI2/mqFnXkuOvvwNZ4SStlPKUJtewDVC0dz++xjwni1zLiaZiw93PUB6tQlabro0P8EP/eC/K0TXiYD8sz2VF16r/t+x4lybvna/QqEkF0Px+OZ3/A2rwD5FcdI6/0KBXOrvuxs+gtnlj2Ejs7hQOYVVnkm/2JDvGhvLqQ4nb/TtRWYzV6wKw6Qr4ZRuyAQW0PKhlM3IAwnJXZFJ3pnZIknJiwMMyqXIot+mdWZFb1R8lrMIgeOoEQN93JIx2a1RQUrGbFtqd5btU/KAq9jjkxAzveOlbKaDQazVmg+8VFJWtQS2cgd45B7n4D24/zUeUOJGwI1C7HnL/o1G/2mm2YH6Rhuy8Bue1q2Pl/bcekHzL/CYzqdmfZ96JeWI4aNw6xKdjzD8wnv3IdGzQXY/E9yJAEGChQ6MlQibu6PrI2ghY4EePpp5HgWsgvh7ChEOgFNdtR6wpcZY6uRG2eg0wbh/Hfi1DFgkSHu0bC3vu8bZU5gNcojBdeQ0kgEjXYpfmt61FVZ3DEoStbWJHZE7t3p+fAH2C89jDSlI86VuoKAbh4GIgJO7522SHEQpnToWw96vNbkHkRrYJCj33MAH9f1weB0f6bTFy/iS94t3tVf8s+9l1PtZ9aaQH5VQ4So65jauUajjY0It7RhNg8c09Uw1ZWH57JPfG/5W7vFWwuyqPW9CEwsD/1hV9yoM5an1cNW1lz5GruGvUAPzGXsataGBx1I1eFFLN1w7aTA8+9iS1sBlcPFw7XOgkbej0z+1eze/NWrN6mlmQ2M1mfvouklNu5/wdD2ZCzn6JGBzavEPpxlK0F+ZiWdOhDXI2ToYIAACAASURBVPxtXOxI43BlCfWmN8H9Ywg2milpbN343UoZjUajOXv0sI9nE+qDBZhF85C505G4i5BQBxQfRW3Pdb/9/OqPULcmIPHXYSR9grmv5ZD4wdhO05919ShbEHLJcBAnKjOr7VjpISgxYVAskhiMKvRgj0R3dRlYi8NzHEet2gRXjEOiIsFejvpmM+qdv6GKWt5CqhT1p0cxS+9Epo9BIoCcHaj3/gdzXUt8q6MMDudBRDgMG4EoOxQfQG36FLV07RmeMezCFrssyGzF7if33+lGz1KEWrMdJo5ExkS4YiKLM1Ebl6OWbHW13UqZ06IZtfwj1LX/7pJNLPYxP1/X7x0cT6NlbsAHfNv9/G37WH0JOWnn0GaTqoiN217DP/EGpif/jmt9vDGd9dQ1ZHOgtsEDU9g5mvYc/1V/EzNjr+Hm2GB8VAOV1QdYX7KWA5YDYRvI2vs8bzf/nGtG3MWdflBTuZe1G5fy5Ykz5DSZ/kQN/yVT+/rQVHeQb77+Lz4tqPWg7VZkVpTnvM4rjbOYefE0rphwFYFeQrO9mGM5S9hdkE+9JR36Yhh9GX7xL5neJwAvmqivz+Nwxmt8klt1cnV8z2U0Go3m7CGDgsJPefbYaSbaEfZdyKPRaDRnHwlj2g//Hz+y/4XHt2yzHA6g0Wg0Gs/oYcTzPMSIQB59EBnoLrzVhDWvYq44dmHKc66h9aPRaDQazXnDhed4ij8yfBQS6W61khPS/C9cec41tH7OPySGObMWMiPIvU1PHHiKP+47wrdeP2S1rrRTsi9oNBqN5gygp9o1Gs1ZxoegoMEEdrOnhqPxOMUNTd+zujQajUbTE9rx1Gg0Go1Go9GcFTxMpq7RaDQajUaj0Zwe2vHUaDQajUaj0ZwVtOOp0ZwPSBjTLl/ME+MuxmaM5IYfLea+4f3OQGYaX0Ym/5WXZt7A4DOc9kZ8f8jdN73HK/Nc/16cMokukzmdtbZrNBqN5ttiYVW7wIgZGLdcgyQOgwADTmSjNi7DXJQKfj/AePMhZIA/oKChArL2oj5aipma31JLAsaSPyEDOvu5ClY8hvOVXW0/+U3EeHchEgJseRHnk2taNhH3Qu5dhHHjwK7FNItRD92OmTHKel09EXkLxlu/dKWTdHcd36HIbfORGYlIEFCQjnrvLcy1ua7jgZMx/nwPMjAY+viCoxZyD6A+W4r52UHrG6QHttcz0FQHhYdR65Zj/msrNHYu48YWVmQGerS7lY0OQ2ZjvP9rpCtvYffrOH+7Ai6+E9trN0HWEswHlqKa2513/H3MO985/exFFxKqiSanwjQdKAXNToXT2Zb6SHxSmDfjDsb1DcRHTBzNVZRWpLH9wAesL67wYPV4I1l5O6mNnkhi8MccrzxzxlFN3/DPVVn4ShDjkh/jh+4Ldtt2jUaj0Zw79OB4Clz6ALYFs8EHqDqOymlEBsQiKcOQt1NRtgDo1weogf3ZqKBoZOzlyNgkjGfvxVxf3nY5ZYf03aiTKQYVHOmUjShpKhKswCmQNA0JXouqVICJOroTtTkE8IHRl7ic06wdqOJmUJWoKtOzunqivgC2bEHZWnQxbDwyxKedekKR37yAcUUYNJSgCkCikpFH4zDM+zDXlYEtBKIGgVc9HDmM8glHhqcgD47CsM/HXFPurvaOtNdz+hGUdzgSl4Tcnogt5o84n13fsYw7W1iR2YrdrcjcXIzaugVs3jDqEiRUIHsn6ngTZBe1Kygw4ibkug2of+VZ04emE43Ym53UNdYBBg3NTuqb7O1Sm/YlpG8fjqU/xYeFDnz9IxgTfwtzpvan6Yvn2WQxjSVAc8nXpNunkzg0gtWVOd9+yyN3qDrKq+tA+hHr6E6+Htqu0Wg0mnOG7h3PgEkYD8wGnzrUkicxl6SDCUgfCLd1TAvoOIj51AJUpT9y/18w5g5BZoyHDWvayqhy1Ft/wNzvbjTCF5maDI5M1Je+yOxEJCUItboKMGHlK5grAQlDXvw7Mk6hVryE+Wk75621RT3WZYHSjZjPbDx5Ybl3EXLjgLbjUbORy8KgYQ/m3QtQBcDc57Hdl4T85GokdUnby8+Rgfm7BahKH+Sev2L8+CJkbDRYdTxPXucg5tMLUJVAwl3Y/nwDTJmJhG5oyw3fnS2syOzvgd27o24X6pldKAlGnv8HkiKoT1/G/Lj01LLij/z0DmTdM3qE87RwUFVfRkVdBaYyKK8ro6+9syIV9vp8jlc1QNVRjjX0J/6q2UQE2aDOdZ+IVxQTE3/GZUNjCff1xtlcS3XNZpZtWMqB1lFuZyZ7CquYFJHCkP055J+uhychDL/4J8yKGUdE3z6Is5ry6qPsSf8rXxR5kqbSSts1Go1Gcy7QfYxnygykn0DhStS7Lc4HgKqHEzVuTnKCo6WgeBhC6jsGSQmF3B2oL3aC6YdMGc+5GawlMGYsYhPITEUVOgAHpKaiHEDkGAjpQvDACIgIBNWAOpx/6nHLKMg65HLSjCAI7EpJnW1hUebTsvu3pOyE60Pn1sRz1N7nOk7yM1/m4+NNgJ2MPS+zrsKd82Xg4x9NUtxEwuq3s7estZyN6DG/5qahJnt3v8SrXz7Ff235X1Zlp1HS4futmaN5O6gKmEhSqLuN2XvCn5iEx/nV2Hjsx5bytw3P8dbXqdSHJDA8yNOEAJ60XaPRaDTfJd2MeNqQiItAFBw55HJMur1SHPLoQiRoGDIi3DX1vXZHxxhGYwjy2uecfFU1bcKcuxBlb/n/6EuRfgo2pqGyfFE1NyFJU5A+61B1Hrasp7q+NQbSP9Sln+rqtnbWVIFTgXcIEmqgWgf3vCdgLFvl+luZsOklzM9PnH71/gOQuTNd8ZP1x6HU5OTKC7e2sCKzN3hi994i+2PMiusxZv0CWb+m5/LnAbYJj7Bs7XyiurgLzZxF3JH0PHs8SBrebC+iNZjEXl/EqV3dizET/5eXJwoiAo48Nm/9F5lNrR3BRoBfIDTt4UjxAY41ur44crqoy1H6NekNV5AYMYyV5VmWB8FbEf9JXBk3hBMHFvBOeq7rfCOASQpCPLwWWGm7RqPRaM4FunE8lfWFLwASgiRPbDm1BvXGw5hfdZpG7hx36TjYbtrWC5mcDDShMo5Akw8q24GMS0TG+qK2NXogTE919RLiwdCcqkRtzwCCkPh4mHo/xq/KMN/c5Zme2zuwAKoW9f4/XY556xvbrS1sFmT20O69hapGLX4PNfV+jHmVqAtg1NOZsYgHp67At4u2qsYy8nrd6XeQlbaQDwub8fbpz5Ahs5k95Wl8v36af+RVoGjiwP7F7Jp6O3fPGUd2wVZ256ays6gQe+c+YR5mT0E5lw6dSERaFjkeBnoawXEMNUrZcTy/129LjUaj0Zy7dOt4qqISUDEQHYvYNnQfe9e8A/OWhXDz6xg3RyLJo+HjvI5OTHdxl7ZYJDkMxIY8/iG2x1sPBCHJ8bBtr2ct640Yz1NkbAkdME3ARJVWAMMgMNA1PayAwGCwCZgVqIp2b2NHFuqFZ1wLpQZch7H4XuTaG5H3d7csnrLarlrIzEHV10HBIdT61ai9xR3LuLWFFZmdntm9NylejVpxPXLz5Atjtr2+jGMZ5V1+CyilMM/AB4C9vsAV40kux0oO4Qx6g3lxKXyWv4pKBY6aVN5dtYf1gycxPmIKV146h1nly1m8aRlZTe0FcpCbt52KuGSS+n1ATqmn95kgKL0ASKPRaC4wugnCVLB7K8quIGI2Mje2XeydN4T27eKcRtR776BKFaT8DGNCV2XcEJkMg21Qdwy1ZQtq8xZUehEoA8ZfgpxuKNlpIzAyEQJaGt0nDhkTCjhRJaWAgoz9Lqds5DRkiBfgBdOnubZfOpYOFW5eq4FBLs17MmLaiiMT8/cPYT7yBOarS051Ok/SlS2syGyeht17iybUsg9QtVwQcZ62CQ/zYXkmO6pO/bd936MkdblpZW9iYAiuD5L2XdWspqBgNSu2Pc1zq/5BUeh1zIkZeIpJnOVfs6+uP2Mj4vD09jSrj3Jc9ScmPLznzYSVA4epEC9/fD2sR6PRaDTnFt2vai9Zg1o6A7lzDHL3G9h+nI8qdyBhQ6B2Oeb8RaeOWNRsw/wgDdt9CchtV8PO/2s7Jv2Q+U9gVLc7y74X9cJy1LhxiE3Bnn9gPvmV69iguRiL70GGJMBAgUIPxkfc1vWRtRG8wIkYTz+NBNdCfjmEDYVAL6jZjlpX4CpzdCVq8xxk2jiM/16EKhYkOtw12vre522rzAG8RmG88BpKApGowS7Nb12PqjqDYz5d2cKKzFbsbkWHfccjD1+L2LxhuA0QZM5vMC5pguzPMBdvP/WcsvWoz29B5kX0ri7OQc7+VDv4+Q8iPLARb58wIiOu55pBDg7v3EM1AD7Exd/GxY40DleWUG96E9w/hmCjmZLGhlMvZmazJ/8E0yMnMWxvJlkeTLer+q2sP3Ytd4x6kHnmR+ypFfqHX06MDU7d56GO4uoKjNgruDK6gszmAPqRw9aC/DO3lZNGo9Fozgg97OPZhPpgAWbRPGTudCTuIiTUAcVHUdtz3ZytYPVHqFsTkPjrMJI+wdzXckj8YGynadS6epQtCLlkOIgTlZnVdqz0EJSYMCgWSQxGFXqwD6e7ugysxXo6jqNWbYIrxiFRkWAvR32zGfXO31BFLc6iKkX96VHM0juR6WOQCCBnB+q9/8Fc1/L6dJTB4TyICIdhIxBlh+IDqE2fopauPcPxlF3YYpcFma3Y3YoOvQcik6d03EA+ZgISA/TZ6eakZtTyj1DX/vv5P+hZX0JOWsnZqUvVUVXfzPiE53g8UeF01FBRdYid259j9dGSlm7oi2H0ZfjFv2R6nwC8aKK+Po/DGa/xSW5VF13VSX7+dkovnkpS+LtkFXuwEopa9u/8I+82/5yrRt3LBK9GysqK3XQrJzkHF/FV8L8xZcLDTHGWkZ/9NrsK8unCHdZoNBrNOYwMCgo/5X3SSDNRjrDvQh6NRvN9QoZxzayFJJf8ied2pFlKaOUWYyK/uOF+gvb9htcPlej4T41GozkPcTdmef5iRCCPPogMdBdZZsKaVzFXHLsw5bHC91FmzZlBHWNv3nEuj5lErC2NTL1EXaPRaDTdYCFX+3mG+CPDRyGR7pZDOCHN0w2szyN5rPB9lFlzhnBSmP8NxSOvIGmAL5nHPdz2TKPRaDQXFF1OtdtpJlpPtWs0Go1Go9FoepFT5krP+wUdGo1Go9FoNJrvhFMcz/M6vlOj0Wg0Go1G853R497NGo1Gc/7jT2TMT/nx8OEeb4av0Wg0Gut06Xjq6XaN5nuGhDHt8sU8Me5ibMZIbvjRYu4b3u8M3Mu+jEz+Ky/NvIHB58SDopfkkb5ER89mYnj/b/81ftZsodFoNN8/LKxqFxgxA+OWa5DEYRBgwIls1MZlmItSwe8HGG8+hAzwBxQ0VEDWXtRHSzFT81tqScBY8idkQOdHuoIVj+F8ZVfbT34TMd5diIQAW17E+eSalvl/L+TeRRg3DuxaTLMY9dDtmBmjrNfVE5G3YLz1S1c6SXfX8R2K3DYfmZGIBAEF6aj33sJcm+s6HjgZ48/3IAODoY8vOGoh9wDqs6WYnx20HtsQ2F7PQFMdFB5GrVuO+a+t0Ni5jBtbWJEZ6NHuVjds7KmuaQuwPTkdjvwd856lrsxJrXpvXoc590WYb8Hu+85Amp/vE6qJJqfCNB0oBc1OhdPZphOvoQ/wn5dOoqssnMqxhUUfvc4+S2mAGsnK20lt9EQSgz/meOXp7J8khA5/ggWji3n7kzc50K5eryH3sPDS/nz+6XNsarByc/SGPJ7jHXgpP546n7ii/+T53Qc7bnzfgy00Go3mQqYHx1Pg0gewLZgNPkDVcVROIzIgFkkZhrydirIFQL8+QA3sz0YFRSNjL0fGJmE8ey/m+nYJ8JQd0nejTqaxVHCkUzaipKlIsAKnQNI0JHgtqlIBJuroTtTmEMAHRl/ick6zdqCKm0FVoqpMz+rqifoC2LIFZWvRxbDxyBCfduoJRX7zAsYVYdBQgioAiUpGHo3DMO/DXFcGthCIGgRe9XDkMMonHBmegjw4CsM+H3PNqQkCu6S9ntOPoLzDkbgk5PZEbDF/xPns+o5l3NnCisxW7G5FZkt19YSHdr9gacTe7KSusQ4waGh2Ut9kP2knZ/FSXvriQwTwu+h27h8NX6xbRHozKFVHhQcqbC75mnT7dBKHRrC6Mue00lY2ORpRhu3UaW2xYVONNDqsR5v3hjxWMXyjSRp+PVeNmMAAL6GyqKtS3dtCo9FoLmS6dzwDJmE8MBt86lBLnsRckg4mIH0g3NYxbaLjIOZTC1CV/sj9f8GYOwSZMR42rGkro8pRb/0Bc7+7r39fZGoyODJRX/oisxORlCDU6irAhJWvYK4EJAx58e/IOIVa8RLmp+2ct9YW9ViXBUo3Yj6z8eSF5d5FyI0D2o5HzUYuC4OGPZh3L0AVAHOfx3ZfEvKTq5HUJW0vG0cG5u8WoCp9kHv+ivHji5Cx0WDV8Tx5nYOYTy9AVQIJd2H78w0wZSYSuqEtN3x3trAis78Hdu8OT/TjFot2v+BxUFVfRkVdBaYyKK8ro6+9zVCquYyiKtdHRZ/QBhQGVdX5HG/qaAHximJi4s+4bGgs4b7eOJtrqa7ZzLINSznQOsrtzGRPYRWTIlIYsj+HfI89KkWTw44yvE5xPMXwwlCNNJlnU542vAb8hEeuu4tQH0Vd9X6+TvsbXxSWtTizNgbH/ZJrBhayedsbBCXeR0KXV+neFhqNRnMh073jmTID6SdQuBL1bovzAaDq4YS7k5zgaH1reBgt5TsGSQmF3E9RX/ghM2OQKePhy3Xn4HJ7gTFjEZtAZiqqsMXBTU1F3ZWERI6BEDnVSQuMgIhAUA2ow/mnXNU6CrIOoZwgRhAEClR1LtPZFhZlTjwdu3fGYl2aXsJJfubLfOxoAiBjz8tkNXrq7NiIHvNrbhpazJrdL7G/pgHDJ5Twvg5KOny/NXM0bwdVMRNJCl1GfrnnTpXZ3EATfbEZIF4DuaiPorTyBMqwoZprcc2ynz15TsrVkMba9G8ocwYwbPhPmDn5bqq/eJ5NdQpwUrD/KZ7dr1ASw5xEd1fpDVtoNBrN+Uk3KTNtSMRFIAqOHEL1NHDoFYc8uhAJGoaMCHdNga7d0dFhNIYgr33eNsrRtAlz7kKUveX/oy9F+inYmIbK8kXV3IQkTUH6rEPVediynur61hhI/1CXfqqr29pZUwVOBd4hSKiBKm353XsCxrJVrr+VCZtewvzcshd3Kv4DkLkzEW+g/jiUmpwM4HNrCysye4MndneLRf2cvga+99gmPMKytfOJ6uIuNHMWcUfS8+zxIPl5s72I1mASe30Rnnd1GwF+gdC0hyPFBzjW6PriyOmipKP0a9IbriAxYhgry7MsD4K3CVuHnWBs4kX0qMf49xHNrPnyUTYYXtBcc9LxPGvytGDWpLOzYB/NQFZ1ICOuuZXRAwLZfLS6pa8qS33229tCo9Fozk+6GfFUno0ySgiSPLHl1BrUGw9jftVpKrRz3KXjYLsRQS9kcjLQhMo4Ak0+qGwHMi4RGeuL2uZhKr5u6+olxIMRO1WJ2p4BBCHx8TD1foxflWG+ucszPbd3YAFULer9f7oc85BWudzZwmZBZg/t3h2e6OcCxJmxiAenrsC3CzWpxjLyzvp6lCYO7F/Mrqm3c/eccWQXbGV3bio7iwqxd+4T5mH2FJRz6dCJRKRlkeNhYKVrVNOGzXs4SUPsHDjuTULEMLbU2VBNtdSfZXm6lNFeTJlDGOIXgFB9QX8kaTQaTW/RreOpikpAxUB0LGLbgOrOcWvegXnLQrj5dYybI5Hk0fBxXkcnpru4S1sskhwGYkMe/xDb460HgpDkeNi217OW9UaM5ykytoQOmCZgokorgGEQGOjag0oBgcFgEzArUO1XbDiyUC8841ooNeA6jMX3ItfeiLy/u2XxlNV21UJmDqq+DgoOodavRu0t7ljGrS2syOz0zO5usaifgS0X9/Fu28fL28f1t3meT0/Wl3Eso7xL/1wphfkdeDqOmlTeXbWH9YMnMT5iCldeOodZ5ctZvGkZWR3iQR3k5m2nIi6ZpH4fkFPq2X2mGqupwwu/sImMbv6aRRk+/CxlEsOyvVCNVdS2fi+eJXm6xsQ0QTwNGdJoNBqNW7p5oirYvRVlVxAxG5kb226DT28I7dvFOY2o995BlSpI+RnGhK7KuCEyGQbboO4YassW1OYtqPQiUAaMvwQ567s6C4xMhICWRveJQ8aEAk5USSmgIGO/yykbOQ0Z4gV4wfRpru2XjqVDhRvPITDIpfnTGRF0ZGL+/iHMR57AfHXJqU7nSbqyhRWZzdOwe1dY1E95qSuGNCymJeZTIDbWFZJaVsoZXaL8HWOb8DAflmeyo+rUf9v3PUpSV3sfnQ3MagoKVrNi29M8t+ofFIVex5yYgafsQ+ks/5p9df0ZGxHn8abrylFDnelHbNR4Ggp2cLz8G9LMZCaE+2C3V9HBbTwL8mg0Go3m7HDKiGeHh3nJGtTSGcidY5C738D243xUuQMJGwK1yzHnLzp1+qlmG+YHadjuS0Buuxp2/l+7i/dD5j+BUd3uLPte1AvLUePGITYFe/6B+eRXrmOD5mIsvgcZkgADBQo9GAJyW9dH1kbwAidiPP00ElwL+eUQNhQCvaBmO2pdgavM0ZWozXOQaeMw/nsRqliQ6HDXaOt7n7etMgfwGoXxwmsoCUSiBrs0v3U9quoMDmt1ZQsrMluxuxUdWqkrayMq7wYkOgXjrXdQJSDRQwAHKnXTaY62fj8496bafYiLv42LHWkcriyh3vQmuH8MwUYzJY0NpxY3s9mTf4LpkZMYtjeTLE8+EsxKKhsjmD6wgNX7CjCVsLegkctGDuXE/oqW58pZlMcqtiDCAoLxloEEGILNZyCDgutobiqhpKFRT8drNBpND5x0PFtnQjs+OJtQHyzALJqHzJ2OxF2EhDqg+Chqe677pUmrP0LdmoDEX4eR9AnmvtZK/GDs5I7ObV09yhbE/2fvvuOjqvLGj3++d0ISQiokAQJpJEF6QgtFhBUQBCuytmV1V4VV0H30saKsrLLqroq71mdXWUUF+8+yoiAK0stCqAmhJbQU0gjpdeae3x8zIQlpMxhaOO/XKxpy79xz7jln7pw5VQbHgNhQ+1Jqj+UdgFwTukQhsX6oTBfW4WwqLAPnxnpaj6OWr4dxA5HwMKjIR23ZgHrvfVSWI5VUHuql2Zh505Ex/ZBQ4EgC6pN3MFc5xrdaT8DBNAgNgsieiKqA7L2o9d+hFq88y7P1G8mL7U7E2Zl8dyYNnUmf6v2Yc/+KMXMaEhuG9FCQl4r6cRHmogNnJVUuGGW5HEnMPd+xqMMDw+hAzGV3M8bLGzeqKCtL42Dy63x7tLCRomojPX0reZeNIi7oI1KyXZgJpU6QX2Yg1q0kFtlriMfTt5DX53oKy/IdDd3nMD5OMnwnMf2qG+lS82DxnsljEYqi1L/ybEJiqw8j1zRNa2uki29Qvee3AOVUE2ENPE9R0jTtoiGRXHP1PIbmvsTzCYlOb2h1ycRH0zRNq6dBm6Wije/VboQisx9COjc1vNWEFa9hLjl2acbHGRdjnLWzQx1jV9pxxvYYTpQlkX3nu8nvQouPpmmaVk8z63i2UdIeiemDhDU1/cAGie0v3fg442KMs3aW2MhM30J273HEBXuw77iLy561+fhomqZpdTXoageo0F3tmqZpmqZpWitrtK+0TXe1a5qmaZqmaeeFXhlZ0zRN0zRNOycarXi26TGemqZpmqZp2nmhu9o1TdM0TdO0c6KZvdprCPQcj3HbNUhsJHgbkHMIte5LzIVrwfMKjLcfQYLbAwrKT0LKLtTXizHXpjtCGYCx6CUk+PR6roIlT2J7dXvtnzyHYXw0D/EHNr6Mbe4KRxOsGzJrIcbUzo1H08xGPXIXZnIf58NqSdhtGAvutm/x2NR1PLojd85AxscivkBGEuqTBZgrj9qP+4zAmD8T6ewHXh5gLYGje1HfL8b8fv9ZaF5uIb/0woZtmkf0dTz5xfMM+fFubnwigXO++ZGmaZqmNaOF5ZQELn8Qy5xJ4A4UHkcdqUSCo5D4SOTdtSiLN3T0AophzyGUbwTSfyzSPw7juVmYq/PrXLgCknagTm1jqSD1tN2I4kYhfgpsAnGjEb+VqAIFmKjD21Ab/AF36DvYXjlNSUBlV4MqQBWaroXVkrIM2LgRZXGkReQgJMS99rgEIA+/iDEuEMpzURkg4UOR2dEY5v2Yq06AxR/Cu4BbGaQeRLkHITHxyEN9MCpmYK7Ibyr0M+BEfrViaNqFw9KpD+NnzmTG/eOJ8BKyz3eENE3TNK0RjVY8T3W1ew/HeHASuJeiFs3FXJQEJiBeEGSpv22idT/mn+egCtojD7yFMSUEGT8I1qyoPUfloxb8BXNPU+0wHsiooWDdh/rJA5kUi8T7on4sBExY9irmMkACkZc/RAYq1JJXML+rU3mruaMWw3JC3jrMZ9edurDMWohMDa49Hj4J+VUglO/EvG8OKgOY8gKW++OQ2ycjaxfVVvSsyZhPzEEVuCMz/4nx625I/whwtuJpdEce/iPSPwwJ8gOLDbL3oT57G3Npiv3bgrP55RGK3HE3Mi4OCTDg2C7UZ+9h/nzE8a1DIHosxo2/gn7RSLAfuFugvBB2f4z59Df2fdbdOiO334NcPQQJbAd5h1HLP8L8+L+camrrEI3cfRcyqg8S4AmVhXBkO+ZL81FpZ2Mz7UuRhag/PMsff3WIL+5+mMAXXmHs+Y6SpmmapjWi+Vnt8eORjgKZy1AfOSoxAKoMcoqbeJENrI4TxcVJ8x79kPgAOJqA+mEbmJ7IyEEX6KBTgX79EYvAvrWoTCtghbVrBE4kowAAIABJREFUUVYgrB/4NxJxn1AI9QFVjjqY7nxwRkdkcCzSzReyU1FpxRASizz0NEZ/RyusM/klnZE/zce4fSTiXYpKK4SIYciTL2NcG1Ib3sDrkEnDkNBO4C5QVQWefiDlKIW9tfeR+Ri/G4NYslBJh8A7BrlzLsbv+zjC8kYeeA7jxiGIJRe1azcqoxIig6BCt722HhsH/nYL141/gg9+SqdKJ62maZp2gWpmjKcFCe0GoiD1gL0y1eyVopHZ8xDfSKRnkL3re2VC/TGMRgjy+lJO7XdTtR5zyjxUhePffS9HOipYl4hK8UAV34zEjUS8VqFKXbyzlsL6xQykU4A9fYqKau+zuBBsCtr5IwEGKs/x93ZDML5cbv9dmbD+FcylOa4Hq3JR8/8XM7kD8sz7GKM6IyOiYPcB5/Kr/1SM4QFQshXz3rmoLAUT5mJ5fCTym6nID2+g6o4D3fo6tqe/h2oFbl7gZbPfa/QNyLjOkPcz5hPvosoUdL8R42+3IBOuQt5PRpmB0MMXVCXq42cxv8qwX9PTU1c8AcuQx/ly5QzCG3kXmkcWck/cC+x0dkyuUnoYhaZpmnbBa2aMp3Jt4ov4I0OHOS5QjHrzUcyfT+tGPn3cpXV/ne56N2TEUKAKlZwKVe6oQ1ZkYCzS3wO12cWt75oNq5WIC02xqgC1NRnwRXr1glEPYPzhBObb289sgpEqgcM5MCoC/H1xLr8EevW0t3Mnr0VlOxJk0waUdSTSMQY6G5Be50JVZfZKJ4C1DIoc1+nTB7EAQWMx3jutY9c3CNoLFKfDz/shqi8yawGWa3aiVq9C/bCmFb8AXLxsyQt5aNQSPBopRqryBGl6ZpCmaZrWxtSreAr2uov9c1ChsnJB9YCIKMSyBtVcxa06AfO2eXDLGxi3hCFD+8J/0upXhpobd2mJQoYGgliQp77C8lTNAV9kaC/YvMu1O2uNMZ4N4ugYOmCagInKOwlEgo9PbeL5+IFFwDyJOllnDKM1BfXis/aJUsE3YHwwC7l+KvLpDsfkKVcpVLUjQwwDl/NL1Qnz1JAIF75s1KTF0WWYCzbWf5150t4CihX12Wxs+8dhjL8cRsQhvx+C3HID6snHMJPKnQysjSo7wbHk/Ea/vyilMHUTpqZpmtbG1BuEWVPpPNXiuWMTqkJB6CRkSlSdsZbtIKBDI5erRH3yHipPQfxvMYY0dk4TwoZCVwuUHkNt3IjasBGVlAXKgEGD7a1r55RA71jwdty0VzTSLwCwoXLzAAXJe+yVu96jkRA3wA3GjLYvv3QsCU42UXPw8bWnvCstpi1yJr8U7DtgH/vZ+3Ik0Kgf5/wDkOPMhB8FKan263S9DKk+iNr8X/vPjv2oPQcdrcseEBEEiUsx58/BvPUOzO8zwSsGubpfK977xcky5FG+yt9HQmHDn627ZxPX7nzHUNM0TdNaV4Ou9toWTyB3BWrxeGR6P+S+N7H8Oh2Vb0UCQ6DkG8wZCxs2kBVvxvwsEcv9A5A7J8O2L2qPSUdkxtMYRXVeVbEL9eI3qIEDEYuCnR9jzv3ZfqzLFIwPZiIhA6CzQKYLTUBNhvV18y2BNXyGYTzzDOJXAun5ENgdfNygeCtqlWOs4uFlqA3XIqMHYvxrISpbkIgge2vrJ0vtM79ruPXBePF1lPgg4V3tKb9pNaqwFZu1nMmvxK8wt1yJMXw4xoL3UXkGEh4EFKE+/rr++M7mJH2FuWE0xqgeyN8+xJJ+DGXzQboGoN7+PeZ/8sAtBuP5+YhPPqRnoSraIVFdQFlRmWcwvrWNadWuds9OhEZ2wsMtjAB3wa1TKFF9Cqk8mc7R4+V6/KemaZp2QWhhHc8q1GdzMLNuRaaMQaK7IQFWyD6M2nq06Vf/+DVq2gCk1w0Ycd9i7nYcEk/oP6L+JPXSMpTFFxkcA2JD7UupPZZ3AHJN6BKFxPqhMl1Yh7OpsAycG+tpPY5avh7GDUTCw6AiH7VlA+q99+0TcgBUHuql2Zh505Ex/ZBQ4EgC6pN3MFc5xrdaT8DBNAgNgsieiKqA7L2o9d+hFq9s5QXkncivyizUc49i/n46cuUAJFTg2DbU5//G/DHT+aBUNur5hzBvmoZcNQTpFokYVZC5H0pq1jotRK1ZByP6Iz36IFIJx5NRX36B+cXR1rzxi1NZLkcSc1vlUpbev+PV1TPpUfOejHyJT283yfv3XUx+cKPeN0DTNE27IEgX36AGVZ8KqomwBp6P+GiapmmapmltVPMLyLdFRigy+yGkc1NrjJqw4jXMJccuzfhomqZpmqadJU7s1d7GSHskpg8S1tRsJRsktr9046NpmqZpmnaWNNrVXkk14bqrXdM0TdM0TWtFLu5pqWmapmmapmlnRlc8NU3TNE3TtHOi0YqnXvPvEicdIO4K5KbrkKA2PdVM0zRN07Rz6NKb1a61zBKD8dSfEP8MVPJSVG5rb3KvaZqmadqlqIUF5AEEeo7HuO0aJDYSvA3IOYRa9yXmwrXgeQXG248gwe3tryw/CSm7UF8vxlyb7ghlAMail5Dg0xtYFSx5Etur22v/5DkM46N5iD+w8WVsc1c4IuSGzFqIMbVz43diZqMeuQszuY/zYbUk7DaMBXfbt5Ns6joe3ZE7ZyDjYxFfICMJ9ckCzJWOBdJ9RmDMn4l09gMvD7CWwNG9qO8XY36/v/Wbl52Js9amefSZxkvfPs3IrNe4Zcw/Oay/N2iapmkXiBaWUxK4/EEscyaBO1B4HHWkEgmOQuIjkXfXoize0NELKIY9h1C+EUj/sUj/OIznZmGuzq+9nKqApB2oU9tYKkg9bTeiuFGInwKbQNxoxG8lqkABJurwNtQGf8Ad+g62V05TElDZ1aAKUIWma2G1pCwDNm5EWRxpETkICXGvPS4ByMMvYowLhPJcVAZI+FBkdjSGeT/mqhNg8YfwLuBWBqkHUe5BSEw88lAfjIoZmCvymwr9zLQUZ61Nc4u+mb9980d6mlV6yIymaZp2wWm+q917OMaDk8C9FLVoLuaiJDAB8YIgS/2tJ637Mf88B1XQHnngLYwpIcj4QbBmRe05Kh+14C+Ye5rahNoDGTUUrPtQP3kgk2KReF/Uj4WACctexVwGSCDy8ofIQIVa8grmd3UqbzV31GJYTshbh/nsulMXllkLkanBtcfDJyG/CoTynZj3zUFlAFNewHJ/HHL7ZGTtotoPf2sy5hNzUAXuyMx/Yvy6G9I/ApyteBrdkYf/iPQPQ4L8wGKD7H2oz97GXJpS23LaUpwBPEKRO+5GxsUhAQYc24X67D3Mn4/Ub4E1OiGPLsDStTNU5aBWfoj5ziqochzvEI3cfRcyqg8S4AmVhXBkO+ZL81FpJtq5Jb5DeWDR/+L7zkz+GvIaL8ef7xhpmqZpWn0NJhcJdeoe8eORjgKZy1AfOSqdAKoMcoqbuKQNrI4TxcVJ8x79kPgAOJqA+mEbmJ7IyEEX6KBTgX79EYvAvrWoTCtghbVrUVYgrB/4NxJxn1AI9QFVjjqY7nxwRkdkcCzSzReyU1FpxRASizz0NEZ/F1o0pTPyp/kYt49EvEtRaYUQMQx58mWMa0NOO9cTAg3UkQzwDEFufAzLPf0cx7yRB57DuHEIYslF7dqNyqiEyCCo0G1t55wRxPjXXmb83nnM/nsiZToLNE3TtAtQM13tFiS0G4iC1AP2ylSzV4pGZs9DfCORnkH2ru+VCae1oIUgry/l1B49Vesxp8xDVTj+3fdypKOCdYmoFA9U8c1I3EjEaxWq1MU7aymsX8xAOgXY06eoqPY+iwvBpqCdPxJgoPIcf283BOPL5fbflQnrX8FcmuN6sCoXNf9/MZM7IM+8jzGqMzIiCnbvde71/adiDA+Akq2Y985FZSmYMBfL4yOR30xFfngDVXMvZibqyemYe00YPRvL3Cth/ETk3SSUNRB6+IKqRH38LOZXGfbXeHrqiqeTLEMe58uVMwhv5F1oHlnIPXEvsLPamSsZBN/8DI8NXsczY5aTa1oIb+3IapqmaVoraPCRp6hpYFSuTXwRf2ToMMdFilFvPor582ndyKePu7Tur9Nd74aMGApUoZJTocoddciKDIxF+nugNle6cl8thNVKxIWmWFWA2poM+CK9esGoBzD+cALz7e1nNsFIlcDhHBgVAf6+zkYYevW0t3Mnr0VlOxJk0waUdSTSMQY6G5BVE0ZNGVCwYxvKeiXi3Q06CmSlw8/7IaovMmsBlmt2olavQv2wphUr922bLXkhD41agkcjxUhVniDNyVEi0nEsf5wXS8Ls69l0Ulf6NU3TtAtXM7PaFSorF1QPiIhCLGtQzVXcqhMwb5sHt7yBcUsYMrQv/CetfqWquXGXlihkaCCIBXnqKyxP1RzwRYb2gs27XLuz1hjj2SCOjqEDpgmYqLyTQCT4+NSOUfDxA4uAeRJ1ss44R2sK6sVn7ROlgm/A+GAWcv1U5NMdjslTrlKoakeGGM0MaagX57ovrxPmqSERzXzZsFhqzzEBrKjPZmPbPw5j/OUwIg75/RDklhtQTz6GmVTu0t1ckspOcCw5v9HvL0opTCeLRYerpnJVt0As765j3Lv2v4lbO9zkQT7LHMLfYqfzVZaukGqapmnnX70ai9T7v4Idm1AVCkInIVOi6oy1bAcBHRq5XCXqk/dQeQrif4sxpLFzmhA2FLpaoPQYauNG1IaNqKQsUAYMGoxYWr5E6xLoHQvejpv2ikb6BQA2VG4eoCB5j70y3ns0EuIGuMGY0faljI4lQVOtTz6+9pR3pcW0teK874C94tj7ciTQqB/n/AOQ09ikIDcYc4X9nLxUyFeAB0QEQeJSzPlzMG+9A/P7TPCKQa7u18r31TZZhjzKV/n7SChs+LN192zi2jl3nbKlz3LroMncPPw6bh1+HbcOn8K8/5eHdd+HPDz6T/yUqyudmqZp2oWh+eWUclegFo9HpvdD7nsTy6/TUflWJDAESr7BnLGwYQNZ8WbMzxKx3D8AuXMybPui9ph0RGY8jVFU51UVu1AvfoMaOBCxKNj5Mebcn+3HukzB+GAmEjIAOgtkuvAB2mRYXzffclvDZxjGM88gfiWQng+B3cHHDYq3olY5xjMeXobacC0yeiDGvxaisgWJCLK3tn6yFFW3DufWB+PF11Hig4R3taf8ptWowlasFDgT58SvMLdciTF8OMaC91F5BhIeBBShPv4aVU1tqTA6I0+8hmF2QsI7AiWo//etfbyvWwzG8/MRn3xIz0JVtEOiuoCyojLPYOzqJai1utrN4iyO1pvr50bgSSuq8iQZKccp1ut4apqmaReI05cZP00V6rM5mFm3IlPGINHdkAArZB9GbT3adEf9j1+jpg1Aet2AEfct5m7HIfGE/iPqT1IvLUNZfJHBMSA21L6U2mN5ByDXhC5RSKwfKtOFdTibCsvAubGe1uOo5eth3EAkPAwq8lFbNqDee98+IQdA5aFemo2ZNx0Z0w8JBY4koD55B3OVY3yr9QQcTIPQIIjsiagKyN6LWv8davHK1l1A3qk4Z6GeexTz99ORKwcgoQLHtqE+/zfmj5n2c8x81LYkGNAdCe6BuFXD4a2or97H/KFmJn4has06GNEf6dEHkUo4noz68gvML4624k21YWW5HEnMPd+x0DRN07RzRrr4BjWo+lRSTbg18HzER9M0TdM0TWujWti5qA0yQpHZDyGdm5qQY8KK1zCXHLs046NpmqZpmnaWOLFXexsj7ZGYPkhYU7OVbJDY/tKNj6ZpmqZp2lmiu9o1TdM0TdO0c6LR5ZQ0TdM0TdM0rbXVq3i26S52TdM0TdM07bxqMKOlZgMeTdM07XxpT1iP3/DrmBjO+d4ZmqZpZ1GDrnZd6dS0i5AEMnrsBzw98DIsRm9uuu4D7o/peMEOnxGPK7nv5k949Vb7z8sjh+PkRk2XBulARMQkhgV1atg6UO+8iyvfNU3TGiwgL5w+1lOg53iM265BYiPB24CcQ6h1X2IuXAueV2C8/QgS3N5+hfKTkLIL9fVizLWOxcbdBmAsegkJPv0RqmDJk9he3V77J89hGB/NQ/yBjS9jm7vCURt2Q2YtxJjaufE7MbNRj9yFmdzH+bBaEnYbxoK77VtFNnUdj+7InTOQ8bGIL5CRhPpkAeZKxyLqPiMw5s9EOvuBlwdYS+DoXtT3izG/3+98TV+Ckb+/jzFAoV68FfPHksbPayk+TsW5bp4CVaWQeRC16hvM/7cJKnEuT32cKBta61BVVNkUpmlFKai2KWw2J7c+Og9U1RY+X56Ch/gycOiTXHm+I3SxusjyXdM0rV6VqqbCqer+5fIHscyZBO5A4XHUkUokOAqJj0TeXYuyeENHL6AY9hxC+UYg/cci/eMwnpuFuTq/NgBVAUk7UKe2sVSQetpuRHGjED8FNoG40YjfSlSBAkzU4W2oDf6AO/QdbK+cpiSgsqtBFaAKTdfCaklZBmzciLI40iJyEBLiXifBApCHX8QYFwjluagMkPChyOxoDPN+zFUnwOIP4V3ArQxSD6Lcg5CYeOShPhgVMzBX5DcVuuuciY9Tca6Tp0mpqHZBSHQcclcslh5/w/bc6towm0tnV8qG9gtVUlFto7SyFDAor7ZRVlVx4fZgqFLyi0pBOhJlvWBjeRG4yPJd07RLXqNbZp5q8fQejvHgJHAvRS2ai7koCUxAvCDIUn/rSet+zD/PQRW0Rx54C2NKCDJ+EKxZUSeAfNSCv2DuaeobuQcyaihY96F+8kAmxSLxvqgfCwETlr2KuQyQQOTlD5GBCrXkFczv6lRgau6oxbCckLcO89l1py4ssxYiU4Nrj4dPQn4VCOU7Me+bg8oApryA5f445PbJyNpFtR8A1mTMJ+agCtyRmf/E+HU3pH8EtGbF05n4hLoS5/2Yz8xBFQAD7sUy/yYYOREJWIMqcpzjTDo3Vzb0J2QrsVJYdoKTpScxlUF+6Qk6VJy+N6wb/p0nMLHXGHp36oqPxaSyIofD+9/i3QNH7W9tt3CGxf6WX3WPIsijHbbqEoqKN/DlmsXsrQbP0P9h7ogotvz8MN/k1VzfoGuf53n0skw+/O4NdlW34m1JR3r1nsakHnGEeEJxwQ42JX3Myqx8TKfP8aZX/we4JiyCIC9v2qky8vO3szHpU9bkFNS5jg+R0bdydY9Ywnx8UeWH2XPwE745sJ/SmlPcYxjRZyJxwVEEe/nh7e6OshaSmvQ87xzIxMQ5LaVzDbfg23n8hnsJcFeUFu3hv4nv80PmiTrhOJPvmqZpF45TFc+64ztP1QXixyMdBTKXoT5yVDoBVBnkNHVJG1gdJ0qzo5Ma8uiHxAfA0e9QP3giE3sgIwfBT6suwAqKQL/+iEVg31pUpqPitXYt6t44JKwf+EvDfeF9QiHUB1Q56mBrdjc7Ex/jzOKMgpQDKBuI4Qs+AkWnn+OMX1A2tBbYSN/3d/5jrQIgeeffSamsm5GCX+i9/M/weFT2cn7e9jnZFVW4eXTGszTX8fayENHvf7m5ezYrdrzCnuJyDPcAgjpYyXUUlcrsBFKs8fTqGoaRd9j+SJAu9O3WncrsbznYmpVO2hMd+yT3RJnsSHybpUVC14ipTL7iKbzXPM3XOeXOnSOeBAf1JaRyGR8k7KDMCCQ6aiqTRz+Fz5q5fJtbAXgQ3vdJ7ou2siXxXX44WY538CRuGPAo06xPsuBQnn0okmcfhscMQR1axDeJWRRVm7i5+0FxrtOVTmfSuYZZnsjKpC2csHkTGXM7E0fcR9EPL7C+tOaB2FK+a5qmXVhOVTxrxnfW/B8sSGg3EAWpB1AtNRy6RSOz5yG+kUjPIHvX98qE+hVGIwR5fWntLM2q9ZhT5qEqHP/ueznSUcG6RFSKB6r4ZiRuJOK1ClWKa1oK6xczkE4B9vQpKqq9z+JCsClo548EGKg8x9/bDcH4crn9d2XC+lcwlzZZez9L8XEDV+Jco30wMmUi0g4oOw55dT5inUlnZ8rGJcgy5HG+XDmD8Eb2DzOPLOSeuBfY6UJFrroii5rBJBVlWdQr6kZPxg4YQfuchby8biX5p9I+sW6M8Pb0gaqdpGbv5VilPZ+P1DlDVe1mZ3Yl07oNISTpMOkKDN9hxPmXkZy8kzLno9siaT+C8VFdyEyezacHMjCB/dkZuPn8lQm9hrMyZxXFTpxT8x3JLDvE3uy9VAMp2cdg/HNc2Xs4q3JXU+I5gomXBbE/4RG+OlpkL5r5abh1fINp4YPxO7ycglNpVkVW5hp2Hj/T3pSW07mGWZzEtozd9jgX+dDzmmn0DfZhw+GiU2+fZvNd0zTtAtNoV/upf7lSMRB/ZOgwx0uLUW8+ivnzad3Ip48HtO6v07rmhowYClShklOhyh11yIoMjEX6e6A2V7oQmZbCaiXiwtxRVYDamgz4Ir16wagHMP5wAvPt7a1XAXMmPq7EuW5lGUCVoD793P4l4NSQBifS2ZmycQmyJS/koVFL8GgkS1TlCdJacY6IeEUT7mVyJHkLJ5ssb1Xs3fMB20fdxX3XDuRQxiZ2HF3LtqxMKk69poTko9spHxFPrP9XpJ+ErqEj6FqxhW+zylsvwoDhF0U3I4+tOVm1rYnqOCk5eUwKj6KLsYpSJ84paux+zXT2ZedxVXgUXY3VpPpH093SAe/4N3k5vvY0ETekpBN+gIsjxJvhTDo3pCqyOWEVQjy9EYou9e9tmqZdpBq0tdR2uStUVi6oHhARhVjWoJqruFUnYN42D255A+OWMGRoX/hPWv1KVXPjAS1RyNBAEAvy1FdYnqo54IsM7QWbd7l2Z60xxrNBHB3dw6YJmKi8k0Ak+PjUJpyPH1gEzJOok3VaBq0pqBeftU+UCr4B44NZyPVTkU93OCZP/VLOxMfqWpxVCew7giorhYwDqNU/onZl1w/WmXR2pmxcispOcCw5v9HvAkopzFZNH4U69d+mWYvX8tHynazuOpxBoSO56vJruTr/Gz5Y/yUpVfbXVhxfy66K4cSF9eCHIjfiI7qSd/RtUs9CD2/TX5OUS+c0flSBiOP1gqgcNm+ez5rC+p3myixpprJ+ZpxJ54ZMTBNED1PRNO0i1ug6nvYHsYIdm1AVCkInIVOi6jzh20FAh0YuV4n65D1UnoL432IMaeycJoQNha4WKD2G2rgRtWEjKikLlAGDBiPnfBVlgd6x4O24aa9opF8AYEPl5gEKkvfYK+O9RyMhboAbjBltX37pWBJNflr5+NpT3pXWxxY5Ex/TtThb92H+6RHMx5/GfG1Rw0qnS35B2WijLEMe5av8fSQUNvzZuns2ca24sKUqO0xauUFE9yH4t1TszCIyMn5kyeZneH75x2QF3MC1PTrXvv1tyWw8nElA+FgGho1nsOdBNh46dGYdCsqK1VSIW3s8To9GYSrpZiBRwV1qH1TSlejgQGwFh8gynTunURJEj8BAzMKjZCswC1NINzsR4e9OflEm2XV+ckqKcH3oquATNJ5J/a4iyrOJBG8pnTVN09qgZrragdwVqMXjken9kPvexPLrdFS+FQkMgZJvMGcsbPia4s2YnyViuX8Acudk2PZF7THpiMx4GqNu31fFLtSL36AGDkQsCnZ+jDn3Z/uxLlMwPpiJhAyAzgKZLjQ7NBnW18233NbwGYbxzDOIXwmk50Ngd/Bxg+KtqFUZ9nMOL0NtuBYZPRDjXwtR2YJEBNlbAT9Ziqr7oefWB+PF11Hig4R3taf8ptWoQlebUizITbMxRtVpYay5L2fi40qcndFcOp9+bmNlw9Xw2pBz2dWOuY/VSduJi7+LB67ozpoje8iqtGJx86cjh9mUkY6JO9G97uQyayIHC3IpM9vh16kHfkY1uZV1u9FtZB76kZTLfsfNg6A64022lpxpk2Ap2UUnMaLGcVXESfZVe9ORI/b4lG9iRepk7u3zILebX7K9SOgaPpUJ/tlsWrPZPnbTmXMcLIHjmRwjHCyxEdj9RiZ2KmLHhk0UKlDlm/jx4ERm9nqM+9otYUNWGiWmOz4+nSjL/Im9pS7enxHD2Pi7uNIbhrgd44Wd++tUzJ1NZ03TtLan0a72WlWoz+ZgZt2KTBmDRHdDAqyQfRi19WgjrwZQ8OPXqGkDkF43YMR9i7m75uKe0H9E/TBKy1AWX2RwDIgNtS+l9ljeAcg1oUsUEuuHynRhlFVTYRk4N9bTehy1fD2MG4iEh0FFPmrLBtR776OyHB9CKg/10mzMvOnImH5IKHAkAfXJO5irHGMYrSfgYBqEBkFkT0RVQPZe1PrvUItXnkF3swEx8UhMY/flRHycibMrmkvnBhopG9tdHLvblpTlciQx9xwFpsg/8gavVl7NxMtGM27IBHzchOqKbI4dWcSOjHTK8MAwOhBz2d2M8fLGjSrKytI4mPw63x4trD9qpmwDq47eSM/IMlbv2/YLJhXZOLJ/IT/7/Y6RQx5lpO0E6YfeZXtGOuWUk7LrBd6tvoNret7LdE8oLtjFynWL+SmnpoLmzDkOZnvCY+5mVAd3qkr3s+W//8d3GSWO+6rgcOLz/F/ZzUyMuoZbovxwV+UUFO1lde5K9rranmtmkZKVwbAwYV/u8dO+XzmfzpqmaW2NdPENqvecE6CCasKtgecpSpqmaa1IAhl95T+4ruItntq4+Qy6zTVN07TW0mDnojb/bdsIRWY/hHRuaoC+CStew1xy7NKMj6ZpmqZp2lnSQld7GyTtkZg+SFhTs5VskNj+0o2Ppv0S0oNrr57HeN+my3PO3j/zt92pl/LwXk3TtEtWo13t5VQTobvaNU1zmTu+vl3xaWbFH2vlcbLLq85dlDRN07QLhlvdBZRqtPlWT03TzpIqioqOntmOqpqmaVqb12AdT7gExnlqmqZpmqZp51ztmsvoCqfWFIHIoci1NyH9fNtQWJrWDAkhtt8djO3ic/Z7gc5lWJqmaeeRo+JZu5Few45ojShhAAAgAElEQVR3TfNE7vozxv9OR3p7n6ew3JCbnsey5AuMmUOaLqTiBoHdkRCfsxzPC4wEMnrsBzw98DIsRm9uuu4D7o/p2CCZPIKn8diUt3mwdyTnfDOwxrgFEhESR2hjq+ifbxLKwF4T6Ofred7Cciq/LuQ0PJucLPOapl1YnJjVLtBzPMZt1yCxkeBtQM4h1LovMReuBc8rMN5+BAluDygoPwkpu1BfL8Zcm+4IZQDGopeQ4NNnHChY8iS2V7fX/slzGMZH8xB/YOPL2OaucDTFuiGzFmJM7dz4nZjZqEfuwkzu43xYLQm7DWPB3fbtJJu6jkd35M4ZyPhYxBfISEJ9sgBz5VH7cZ8RGPNnIp39wMsDrCVwdC/q+8WY3+93sZm5hby40BYodCXfWyIdID4WvNyREQORBQmoBjv7WJDfvYVxRwQsnYPtlYRfFv+LiaqiyqYwTStKQbVNYbOdnkCCR4cQAt19qPYNwMLhM9vmshUZvhOYdvkQdq98jLTK8x2bC41z+XVu0lDwChjDhH4TGBDYDT9LFQUFu9mUuIiV2QXnp7fMqTKvadqFpkHFs/4DRODyB7HMmQTuQOFx1JFKJDgKiY9E3l2LsnhDRy+gGPYcQvlGIP3HIv3jMJ6bhbm6zm44qgKSdqCK6rSvpp62G1HcKMRPgU0gbjTitxJVoAATdXgbaoM/4A59B9srpykJqOxqUAWoQtO1sFpSlgEbN6IsjrSIHISEuNdJngDk4RcxxgVCeS4qAyR8KDI7GsO8H3PVCbD4Q3gXcCuD1IMo9yAkJh55qA9GxQzMFc7uFuREXrh2d+dOa+SFKkK9/QrmsR6w4etGKp0O0sx06jatkopqG6WVpYBBebWNsqqK08qEoujwm7xUEIyt6Ch6XvmF7gLKL+nMkNipRFf8zPItn1IoXRjQ+1Ymj2xHwbJ/kFBxPp4+zpR5TdMuNI1uenmK93CMByeBeylq0VzMRUn2vbXFC4Is9beetO7H/PMcVEF75IG3MKaEIOMHwZoVteeofNSCv2DuaarW4IGMGgrWfaifPJBJsUi8L+rHQsCEZa9iLgMkEHn5Q2SgQi15BfO7OpW3mjtqMSwn5K3DfHbdqQvLrIXI1ODa4+GTkF8FQvlOzPvmoDKAKS9guT8OuX0ysnZR7UPQmoz5xBxUgTsy858Yv+6G9I8AZyueTuWFwPD7MGaNRgJ8wd0KmQdQ/3kP8z97Hd8qBKLHYtz4K+gXjQT7gbsFygth98eYT39j36+9x9UYf7wd6dUJirPA4sYZb6zeUl40G5bAhHlYnhhWe/51XTGvfw51qoW3kXMmv4BlsuP3qvWYU+ahKgCPUOSOu5FxcUiAAcd2oT57D/PnI66lzwXHSmHZCU6WnsRUBvmlJ+hQUfsGFY8ruff6P9DLUS+vTnutkV18vOnVfyZXdw8jsL0f7S1WSor2sCXxA37IzHO83b3p1f8BrgmLIMjLm3aqjPz87WxM+pQ1OQX2XJNQJk54gctPvMSzCYn21xnD+P1ND+C7+2HeOJCLMnpz0zV/YrSXPULjrlrMOAAUJYf+xp+37naE54Z/5wlM7DWG3p264mMxqazI4fD+t3j3wFH7W8BjGLf86g5iffzxFCulJQfZvW8x3x4+Ss2GrOIew4g+E4kLjiLYyw9vd3eUtZDUpOd550CmPd6WbgwecCcTwnsR6FZJfn4OFgNc/IoE4kNk9K1c3SOWMB9fVPlh9hz8hG8O7Ke05pwWwnIqv5xNQ+lIr97TmNQjjhBPKC7Ywaakj1mZlV/7LmspfVQW69Y+xHrT5njNbg5WdqHXr4YT6WchocLZ52zL5UfcR3H3dfcRfOBpXkw87AjPnT7xb3BPp5X844fPSVfQUpnXNO3CVKfi2cjozvjxSEeBzGWoj5Jq6wKqDHKauqQNrI4TXW198uiHxAfA0e9QP3giE3sgIwfBT6suwJlPAv36IxaBfWtRmY4H79q1qHvjkLB+4C8N94X3CYVQH1DlqIPpzgfnVF4oKK+GilzU/mPg2Rm5bADywDMYefdgri+xnzbwOmRSH8dLbFBVBZ5+IOUoBXgNxvjLQ0gXsXfll/ghkWdp5FSLYSnI2YvaYIP23ZCB4Y1cpOYcE8JikdD2kL0XleL4GLfut+eDdEb+NB9jpD+U5aLSTCRiGPJkbwyvBzGXZDqXPhckG+n7/s5/rPZ2seSdfyelTrerqvovn/6wHw/xY1D8U4xt7BLiSXDQAEKtP7F403ZK8adH9G1MGDGLkuXPsabEdJzTl5DKZXyQsIMyI5DoqKlMHv0UPmvm8m1uhXPRNVP5cdVjbAq4lhnD+3Fg88usKrTH11Z1wlG8Bb/Qe/mf4fGo7OX8vO1zsiuqcPPojGdpbu249OqjbE/+N9vKCqnEh26RtzFlyINUFj3Otyesjlvrw/CYIahDi/gmMYuiahM3dz8oznWE5UP/wbP5TfcitiS+ydclbgR1Hst4l5cz9iC875PcF21lS+K7/HCyHO/gSdww4FGmWZ9kwaE8lBNhOZVfTqVhe6Jjn+SeKJMdiW+ztEjoGjGVyVc8hfeap/nasZ99y+kDyrTVeQwLnu074qmyySl1obLnRPlRVYnsybXSp3M/OiUdJlcBEkZUYAdKcpLJOhWJ5su8pmkXpmZaPC1IaDcQBakHmu7aPHWlaGT2PMQ3EukZZO/6XplQv8JohCCvL60dJF+3JQqg7+VIRwXrElEpHqjim5G4kYjXKlQprmkprF/MQDoF2NOnqKj2PosLwaagnT8SYKDyHH9vNwTjy+X235UJ61/BXNpk7f00LuTFrn9j/kHA0xs82yFT/4rxmwhkcDSs31n/3K2vY3v6e6hW4OYFXjb7fQyZaN/CM2cp5j2vosraI/O+wLj8DLuxm8sLZ8La+THmTqDbzRjvzWh88sDOjzF3WpC7/oX8Ngy2LcY8fYzngKkYwwOgZCvmvXNRWQomzMXy+EjkN1ORH96o04raTPq0EsuQx/ly5QzCG3kXmkcWck/cC+x0YdxudUXWqRazirIs6hV1VUZBcRlIBcUtvJfN0gMkHU+iGjhY2J6oa+6gd2cf1pYUnrp9s+wQe7P3Ug2kZB+D8c9xZe/hrMpdTbFTsa2ipCSTMvcSbFgpLc0ku+i0SoPRk7EDRtA+ZyEvr1tJ/qm0TzwtwlkcTMs69c+0Andiwh4kMrATciK7TpZVkZW5hp3HGyaAeI1kdJgfR3f/hc8P5qCAfdkmUdG9cGVtBfEcwcTLgtif8AhfHS2yh52fhlvHN5gWPhi/w8spbO9EWE7lV8tpKO1HMD6qC5nJs/n0QAYmsD87AzefvzKh13BW5qyqs+Zq0+lzOov3aG6JjaPg4F/ZXOL6m6L58lPE3vR92AYPpo/Xd6wpVRgdehHVoZzUrFTqxq7ZMq9p2gXptI+8uq2eyrUPWfFHhjq6OlUx6s1HMX8+rRv59LF+NS1RjqjIiKFAFSo5FarcUYesyMBYpL8HanMlLmk2rFYiLrQCqgLU1mTAF+nVC0Y9gPGHE5hvb3cinZ3NCze44h6MP0xCunrVacBW4NXItptVZfZKFYC1DPsnkAE1ldwDu1BlTt1dC9FvKi/OQlhNEujV076OQ/JaVLajMGzagLKORDrGQGcDRx+eXaPp03psyQt5aNQSGpuMrCpPkHYBzJNQFTnkVwsh7t4IhY0XQzOdfdl5XBUeRVdjNcWtVDkXr2jCvUyOJG/hZDPXNDx6ccWAm4jvHEaAu1BZUYG7RThpaef0MnGGbzhd5QRbTpz4Rd8tDP9ouls64B3/Ji/H17kXcUNKOuEHFLdSWE7Fxy+KbkYeW3OyagfKqOOk5OQxKTyKLsYqilwcOuLufxV3XPEbuuS+w78S9+Pik7mh08uPqSjK2MiBuOnEdgti7YFcOgT3JcSWzLocXbXUtItdMy2eCpWVC6oHREQhljWo5ipu1QmYt82DW97AuCUMGdoX/pNW/6nf3Fg/SxQyNBDEgjz1FZanag74IkN7weZdrt1Za4zxbBBHRyucaQImKu8kEAk+PrULofr4gUXAPIk6WeeJbk1BvfisfaJU8A0YH8xCrp+KfLrDMXmq2ZtxLi86TcB44iakXRZq0duo1GIY/juMSWGu3WfNWEe35ocAO3+9ZvLClbDq9nO3VOdv7ktBvevUtKy6+EWrNZSd4FhyfqNRVUphno34KOXibdrjIS18yVIoEHFki/01hlNDbZqLj/1YszGWYEaOeJzrvffww67X2FtUingMYNLlt7rUUlkTyi8fUCKIymHz5vmsKaxfo1NmiaMC7UJYTuVX8+c0HY6rBUzw7Hg994y+Ae+0t3hrewItPrqcVL/8gKpMYEvmNO4MH0HwwZ8I6dITlfsh+6su2LEumqY5qZFPhjozj3dsQlUoCJ2ETImq8wRrBwEdGrlcJeqT91B5CuJ/izGksXOaEDYUulqg9Bhq40bUho2opCxQBgwajJzzRQcFeseCt+OmvaKRfgGADZWbByhI3mOvAPYejYS4AW4wZrR9+aVjSTTZTOPja095p1tMncyL4G6Ih0D+VtTHy1DrN6D2nXDxvk04ctReDPqObmQppNbkYlhlJfZzjSAIcpzrXmeVARSq0tH+EhxUm0aejqW+9h2wj43tfTkSaFAvv/IPQM65nTVkGfIoX+XvI6Gw4c/W3bOJa3c2Qq2i2qYQ9w400gZ+ZiSIHoGBmIVHyVaAKqK4UtHepws+LRVxs4pq2tPeveGJquwwaeUGEd2H4N/kuq2hRHR05/ihz1iZtpf0wmOk5R3mpM21CopZmEK6GUhMl+6/aH1T+3U6EeHvTn5RJtl1fnJKiqh2OSwn8quZNDQLU0k3A4kK7lJnt5CuRAcHYis4RJYLRV7aD+OWy6fgk/4G/2y20in4BI1nUr+riPJ04hl3evkBoIy9Kesp8B/NsM4D6BsMB9J24OqIK03TLjynNTOd9pDIXYFaPB6Z3g+5700sv05H5VuRwBAo+QZzxsKG35mLN2N+lojl/gHInZNh2xd1Lt8RmfE0RlGdV1XsQr34DWrgQMSi7GP15v5sP9ZlCsYHM5GQAdBZINOFD5Mmw/q6+ZbbGj7DMJ55BvErgfR8COwOPm5QvBW1KsN+zuFlqA3XIqMHYvxrISpbkIggewvfJ0vrz35264Px4uso8UHCu9pTftNqVKGT9+RMXqTvRxUrJGgyxptdUUeLoXukc9evK+E/qNQrkOh4jHfeQ6WVIGHtOOOxCs3lhSthFe1FHapGLuuF8foCVJ6BeG/H/N0bjnGvJqQcAtUTBs3C8v51qAoPJCgVc9rzqMSvMLdciTF8OMaC9+2vDw8CilAff11/fOc5cH662ivILMhGLhvP1T1OkljZgU5yhI3paS6tWWAJHM/kGOFgiY3A7jcysVMROzZswl6cizmQsQ/roOu5pU8Ja3PyMT2i8JeG6yKYJUfJqvZlQK+ppEoSxRJAF8tR1qelYZr7WJ20nbj4u3jgiu6sObKHrEorFjd/OnKYTRnpmCqD9EIrseE3MKpgBYfLK5F2EfhbXGu7VOWbWZk6mft6P8zd8hUbc/Oobtd4nJu/ziZ+PDiRmb0e4752S9iQlUaJ6Y6PTyfKMn9ib6lyMayW86vZNCzfxIrUydzb50FuN79ke5HQNXwqE/yz2bRmswujR9yIuOxWYiWBzw/l0cE3lJpmBWU9QU5pWW3cjRjGxt/Fld4wxO0YL+zc3+Dd3Hz5sas+8RPr88cxYeg0RHbzeWbxhTfHVNM0lzUyxrNuB0wV6rM5mFm3IlPGINHdkAArZB9GbT3aREe9gh+/Rk0bgPS6ASPuW8zdjkPiCf1H1K/elpahLL7I4BgQG2pfSu2xvAOQa0KXKCTWD5XpwsImTYVl4Fz9yXoctXw9jBuIhIdBRT5qywbUe+/bJ6UAqDzUS7Mx86YjY/ohocCRBNQn72CucoxvtZ6Ag2kQGgSRPRFVYZ9xvf471OKVLvR2OZEXxeswn30XY/pkJGoQEgWUl8CxA6hUZ9cLBar2Yz71NDL9ToxhMUjPQCjLhwOH4dgZtDk0lxeuhGUeRc1/A/XQNOSyEMSSi9qeARY4NeMg4UPMzwIxru4HIeFIWSEcOgEeAuVZqOcexfz9dOTKAUiowLFtqM//jfljpuv39UuV5XIkMfccB2ojY/97LPe/hzGDHibedoK0Q++yLT2NclcuY7YnPOZuRnVwp6p0P1v++398l1Fy6gmSn/ov3ve8i2ujpjOjrzvKVkJh0V52Fp82Rs+6g+8TluE9YCy3jroOseaRlvoeW9PSKEeRf+QNXq28momXjWbckAn4uAnVFdkcO7KIHRnplKks1m1+nfaxNzFm6BNc794O01ZGafkh9paUu1BRKSdl1wu8U3E7V0f9lt/38cKwlVJYtJftxa6kTAWHE5/n/8puZmLUNdwS5Ye7KqegaC+rc1eyF5uLYTmRX82moT2sd6vv4Jqe9zLdE4oLdrFy3WJ+ynHhviSAsI6BWNp34farLq93yHr8bf68dnVta6SZRUpWBsPChH25xxuvuDdbfhxUNpv3buLKUWPg8AL26G52TWsTpItvYIN3cwVWIqwuryOiaVpbJ4GMvvIfXFfxViPrgGpaC1wsP4bPdfzPhFHs//kplp3USyVpWlvQSrNHLiJGKDL7IfsSPo0yYcVrmEuOXZrxccbFGGdN0y4K0q4z3X08oV0PRsTeiG/aW6zVlU5NazPcWmcm50VE2iMxfZCwpob12yCx1aZdXHzxccbFGGdN+yWkB9dePY/xvk2X+Zy9f+Zvu1PPdH8vzcHwv4rfjp5IJ5XPsWMfsmDHdj2pSNPakAZd7Qqo1F3tmqZpdbjj69sVn2YWXrBWHie7/LzuqK5pmnbBa9DVfkm1fmqapjmliqKio629h4Cmadol59T3dz1fUNM0TdM0TTubatcUPp+x0DTtLGtPaOStTImO+kULpLcZEkJsvzsY28VHP/s0TdPOIUfFUz96Ne2iJoGMHvsBTw+8DIvRm5uu+4D7YzrWvrOlA5GR1zIyOKix7couPRLKwF4T6Ofr6fpr3QKJCIkjtLGV/y9mrXVfLV2npbKqaVqb5hjj2cJOvz3HY9x2DRIbCd4G5BxCrfsSc+Fa8LwC4+1HkGDHtoTlJyFlF+rrxZhr0x2hDMBY9FIjWyIqWPIktle31/7JcxjGR/MQf2Djy9jmrnBEzw2ZtRBjaufGo2lmox65CzO5j/NhtSTsNowFd9u3VGzqOh7dkTtnIONjEV8gIwn1yQLMlUftx31GYMyfiXT2Ay8PsJbA0b2o7xdjfr/f+TEOrlynyTR08O+H3HMHxrBe4N8OinNQezaj3l+IOlTpQn61UDZqFulrLj4+TpQfnxEY8+9HuncEd6AwC7V7PWrxp6hDZU4mYBunqqiyKUzTilJQbVPYbGdl66NLnuE7gWmXD2H3ysdIqzyfy/wIXgFjmNBvAgMCu+FnqaKgYDebEhexMrvA5eFTrXVfLV5Hl1VNu6S1sI6nwOUPYpkzyfGBfxx1pBIJjkLiI5F316Is3tDRCyiGPYdQvhFI/7FI/ziM52Zhrq6zY46qgKQdqFNbJypIPW03orhRiJ8Cm0DcaMRvJapAASbq8DbUBn/AHfoOtldkUhJQ2dWgClCFpmthtaQsAzZuRFkcaRE5CAmpsze4BCAPv4gxLhDKc1EZIOFDkdnRGOb9mKtOgMUfwruAWxmkHkS5ByEx8chDfTAqZmCucHJHIVeu02QaAkY48pcXMPp4QEEaavcJ8O6KDBmAWnjacs7NpqETZcOZ+DhTfiz+EB4MbqWQehwCw5AxtyFDYzEffRy1v9K5NGzTKqmotlFaWQoYlFfbKKuq0GO32zLpzJDYqURX/MzyLZ9SKF0Y0PtWJo9sR8Gyf5BQcaHm/v9n78zjq6quxf9d5yY3A7kZIAljZqJhTJjCIIIDiAjVonUq1lerVhx+T1+1FvU5ttqq1VqH11qfUoQWtY9KhYIIyDzIDIEMkAHIQOZ5zr1n//64N2Qgw7kQkOF8P5/L55Kz795rrb3PPuvsvfbeZls1Mbmc6drx9JuA9vhMsNagFr2AvuiQ8zBh8YUQS9ujJ+1p6C8+hyr3QR77AG3OAGTaaNi4tiWNKkV99Gv0w5293Xohk8eBPRW1xguZGY8k+qO+qQB0WPUO+ipAgpE3P0VGKdTyt9BXtHK6mjXqtiwDFG9Gf3nzqYzlkQXIbaEt1yNmItcEQ91+9HnPoXKBOa9heTQBufsmZNOils7Unoz+q+dQ5Vbk4T+h/WggMiISjDqehvPpyoZA37HIFd7QtB/9oV+hil0S+vlBTbsdCLuyoeG20Y08p/Qy0H7sKU7dq/siz7yFdk0c2gM34Hh6ubk6DjsVtSWU1ZShK43SmhJ61Z8+2mTpPYufz7yPCD9vGqvT2Jv8KSuO59C8CZB4jeeOa35CvC0Qb7FTU32Ug6mL+SrrOM3uvXhEMD7+Hq4ZFEOIlyeOpmoqq7aydONiUprfXcRG1OA7uTE6nnCbP6oui8NHl7DsSFqrPRk9COx7AzPipjKkT39sFp2G+kKy0j7g4yPHnc3JiDzWWCYOnUFCaAyhvgH4Wa0oewUZh17lL0fynPtqWgYyZuS93BARR7BHA6WlhVg0cOtVVBvCrbP+mym+zpmA66cv5noAFNWZv+PFXQfRrZP52Q/mEXrkeV5PynLt6WllaOJ73N9nHX/4+gtylB9xIx5jVngkIb5+eKpaSkv3su3QZ2wsLG/ZB7Q7G6p8Nm96gi26w/Wbgxxt6EfcNROICrCwu95g32dEL58J/GTaI0QUvMMfdu6lGhCvsdw9/f8Rkfs6f9iXTL2BfJwt0lhbNTExuTTp2vFMnIb0Fshbhfqby7EAULVQ2NmPHGB3JRQ3o8m8hiOJQXB8Beprb2RGNDJpNKxZfwE6FgLDRyAWgdRNqDxXJ79pE+qhBCR8OATK6efC28IgzAaqDnU058yL7yyf7mxYWwGNCrzDkRsSUEv3Q4OC6mr3yjfaNtyuUwPtx56PWrwSNfk/kOETkYAVLSOoly0OclLf5l92pwuZvP9t0jua5tTqyUlbwLdVDoLD5jBr/Hy87fNZ4jonWzUdZ2/y/7KntoIGbAyMuos5Yx+nofJpviqxAxYih/8Xtw8qYO2+tzhcVYdmDSKkl52iU36OFxHDnmHeYDs7kz7m67I6/EJncsvIp5hrf4aPMotRCAFhD/GfExJRBav5ds8XFNQ34uHVF++aolNNo3t5QLyHMiF2LCpzEcuS8qls0vGwBkBVkatZ2hgxZj4/HlTJzqT3+bLag5C+1zHN3a2K9Qy+Wf9LtgfN5sEJwzmy403WVzht7GgsQQdUYxKHi+wM7TucPoeyKFKAhBMT3IvqwmTyFSDehIYMY0DDKhbu3ketFszgmNu4acqz2Da+wFdF9QZtCEp3tLqNBG+f3nirAgpr3HDkjOhV9x3/2HkFj1/9ED8ueZGPMxuIH/MzEhpX8P7BZOoN5uPEYFs1MTG5JOnC8bQgYQNBFGQcQXX38uwxGJn/CuIfhVwR4pz6Xre7rXOhDUDeXdmyqrZxC/qcV1D1rv8PuwrprWBzEirdC1V1O5IwCfFdj3L36IruyjprNKRPkNM+lZUtelZVgEOBZyASpKGKXX/3HIu2dLXzu9Jhy1voKzv13junu3y6s2HFRvQ/jcfy2BTk/t9huTMXtXktatlyVHpVOxU7s6EbbcNonRppP63JOwF2BZ4hSLCGKr/4HlyWsU+zdN2DRHRwF+rHFnB/wmvsd+Mw9Kb6/FMjePW1+XTU1B3F61h51HVGdkE2Fv83mBU7kZV5a3BGtORzNDv/VPrsciux4Y8TFdwHKSlAYcHP2waN+8koSOFEg9OdONaqDPGeyIwrQ0jb/ST/PF7prMLSbDx6v8fciDEEZK2mXK7gupET8SlcwJub11F6qp6T2hmiO3maaSQ/byP7T57eGMV3ElPCAzh+8Nd8cbQQBaQW6MQMjsPfgF1baKS6Oo9aazUO7NTU5FFQ2b7dVZKSk4pjzBiG+q5gY41C6xVHTK86MvIzaC2dXptJSkEKTUB6wQmY9huuHTKB9UUbqDZiw3b3hsVvCnfEJ1B+9LfsqHbnRcyIXoq6giUsOhzN/0v4T24PqGR4v0JWr1vGCYc7+Tgx0lZNTEwuTTycK9o76qSUe6OMEoiMG+/6aRXq/afQv203jdw+ZtCe1mpE0AOZOA5oRCVnQKMVlWlHRsUjI7xQO9yM4+uyrB5C3FiHqcpRu5IBfyQuDiY/hvbzEvQP97pn5y7zMWLDJlj5Ko7vliLTpiM3XIPc+FNk+o2o3z6JvqGoVVmd2dBo23CjTo20n/aIS5aLFEfyAp6YvJyOFv+qhhKyz/V6C1VEVnExWmQEfQXKFWhecVw98lYS+4YTZBUa6uuxWoQyi6erp2gk5fBC9k6+j3mzR5GZu519xzexJz+P5pBCLXAwgyy98Et8nzcTW4oT8UCq+xAAVPgOJsJX51jyTsq6qMLu5ekezT+C/lLCzpKS89BaFJW52ziS8ADxA0PYdKSIXqHDGOBIZnNhF+6VnkNqQTHTI2Lor20gw4ANW4cJWAOn85Orf0y/or/w56Q0zk3UcxO5qf/D8tDf8qPYME4cfIb1FW68GZmYmJgAHm277tZduULlF4GKhsgYxLIR1ZXj1rQb/a5X4I730O4IR8YNg39lt82+q5hBSwwyLhjEgjz7TyzPNl/wR8bFwY4D7mnWEzGep8nomvrVdUBHFZcBUWCztZjOFgAWAb0MVdYqZtKejnr9ZeeUcOgtaAsfQW6+Dflsn3vTxF3lU+WGDUtSUZ+nor5YgPz4JbT7RiL3zkY2L2ipsk5taLBtuFOnRtpPa8KiwUPAXogqvkhPx64t4URyaYfvL0op9PPgUwsCSjnNLKFMmvg0N/gqg+YAACAASURBVPsd5usDfySlsgbxGsnMq+5sMzJor9rE31bvZ0P/CYwOm8T0q2ZzY+kyFm5ZSnqjcuaqCtmx4/dsrGhbN0qvdjmazjJVV66gQXm6x1lKz23X06XUqIbd7Myby70REwk9uoYB/a5AFX1KWmPXFapQIOKS04gNnem8e9/M/VNuwS/7Az7Yu/u0kdCe0gtA843jygAP6hod9A+bRPjRLzh2WhfbfT4mJiaXL+2C6Jq7Z+cjgX3bUfUKwmYic2Ja9dyeENSrg+waUEs+cS5YSbwHbWxHaTohfBz0t0DNCdS2bait21CH8kFpMHoMct53vRYYEg9+LqV9ByPDgwAHqqgYUJB82OlwDZmCDPAAPGDqFOf2SycO0elQjs3faXl3RkyN5GPIhl4QOaClLlU1KuOkK78Ag09ng23D7To12H68I5CfzkQsCg5sRVVcnI85y9in+GdpKrsrTv/sOjifBM9zLIDWn9jQYBzlmeTrgIQR2dvKyczPWZedQk7FCbKLsyhzdGBfvZLc3G9YvuMlXl39d/KDbmF2dF8E0CvSydH7EBlopbQyj4JWn8LqSpoAVZtFdp1G5KCxBHbW5tyRpwuc8gQT229Qz2yerzfShA8+1s4EryUlfQvlgVMY33ckw0LhSPY+uowWkhCig4PRK45ToIzZEEB8xnPHVXOw5bzHn7p0OgVbyDRmDp9OjHcncnenlyWS6yb8B9Hli3l37QLSfGYzN34kvm7bx8TE5HKm3VR783dXh1G0FrV4GvLAcGTe+1h+lIMqtSPBA6B6GfqDC05/s63agf55EpZHRyL33gR7/tFyTXojDz6PVtnqV/UHUK8vQ40a5XQk9v8d/YVvndf6zUFb+DAyYCT0Fchz44HTaVlfdj1y24xtPNpLLyEB1ZBTCsGDwOYBVbtQ63OdabJWobbORqaMQvvzAlSBIJEhzpHCJStRrQcqPIaivf4uSmxIRH9ndO32De47TZ3mA1xnwIa1V6O9+xTSmIM6Ueyc4r4yCkSH3d85bdP8dO7Kht22jb8aq9P223B21X484tB++wH0jwSbBSr2oX+4tvNR0Quc72OqXfMdzJC+FdRZQhkc/UOuC8hny8YdzjPIVS45FXbiI25hcvlasuoaEM9IAi2tBbQyOO5errQncbS8iFrdk4A+0QRoTRQ11Dllr9vON0dn8HDcL5nnuZyt+dlU61Zstj7U5q0hpUaBnsqGQ3tJSLyPx64exMZjh8lvsGPxCKQ3WWzPzUE3JE/3qLodrMu4iXlDfsHP5J9sKyqmyTOGQIEzGSvXq4+T3+TPyLjbyJBDVEkQ/SzH2ZKdfSq/ppI1bCm9nhvGzUXkIF/kVZ3WTC3B07gpVjha7SB40A+Z0aeSfVu3U6EM2hAPIq+8k3jZzReZxfTyD6P5VU3ZSyisqW3RT4vlusT7uNYPxnqc4LX9aadFHnWtlzfRwx9hhu9eFq1ZS349/GPvSJ6c8AA3n3yWz/OqT+lnxD4mJiaXLx5dP7UbUZ8/h55/JzJnKjJ4IBJkh4Is1K7jnSxNUvDNl6i5I5G4W9ASvkI/6Lok3jBiYttBtZpalMUfGRML4kClprdcKz4CRTr0i0HiA1B5bmx+0llZGsZiPe0nUau3wPWjkIhwqC9F7dyK+uSvqHyXzVQx6o356MUPIFOHI2HAsd2oJX9BX++KT7SXwNFsCAuBqCsQVQ8FKagtK1CL1xl3mrrLB4M23JGPWrsLxg9Bhoc54zgLUlGbl6EWbW8XedGVDbtpG54G5dneXtEO2s/RCsgthYEBEB0GJSdQW9ajFn+Jyr+IY8xqiziWVNR9up5A1VNUnEJ++BTumTITD9cWPqs2f8aGojpXmnw273gXn/hbmTruV9xs9UR31FJTl0lKdZ2raXihab2IvfJnTPX1w4NGamuzOZr8Ll8dr3ClqScr6VX+p/Z2ZsTM4o6YAKyqjvLKFDYUrSMFB6AoPfYe7zTcyIwrp3D92BuweQhN9QWcOLaIfbk51BqSxwh1pB94jb/U382NMffw06G+aI4aKipT2FtV574t7fv49+5V+I28jjsn/wCxF5Od8Qm7srM5lZsqYEfKdq6dPBWyPuJwR9Psug8RsT9jci8rjTVp7Pzuf1iRW23chhJEeO9gLD79uHv6VW1FPPkhL27a0DLKqueTnp/L+HAhtehkxw5gF3rZ+/yQ22N92LvtU5JcwbyVOYtZcfIN7kr4ITsLFpPp6D6fM7C2iYnJJYb08w9pt1JEqKeJSLu7e42YmJiYmDSj2X7Af94wmbRvn2VVWau3XQlmyrV/4Af1H/Dsth1cxK9OJiYmJm7TxeKiSxQtDJn/BNK3sz1GdVj7R/TlJy5PeUxMTM4Y8ezLIJs3eEYzMf6H+Gd/wKayi2+rLxMTE5NzhcdpcZ2XOuKDxA5FwjtbZuCAJJ/LVx4Tk8sNiWb2ja8wzb/ze7Aw5UV+dzCj2xhFLXA690yZQR9VyokTn/LRvr1dLyoyMTExucyQfv7B7YY4zal2ExOTywkr/v79sXVx0Jq94SQFdY2dJzAxMTExMUTXR2aamJiYXPI0Ull53Lmy38TExMTknNLqHf/Uxo7fiyAmJiYmJiYmJiaXNi7H8zKJ7zQxMTHpEB/Cou5kzuCYntlk3qQTfAiP/jE/io017WxicpnicjxdJxUhmE6oiclFiAQz5bqFPD/qSizaEG79wUIeje3t1t0sXtcy7/YlvHOn8/PmpAmc68OTLhikF1FRs5kUGtL+OLczwit0Lr+c8yGPD4k65w7W+SzrrJFeREbOZHxIn67t3APt2cTE5MKkVYxnp+fWwRXT0O6ahcRHgZ8GhZmozUvRF2wC76vRPnwSCfUBFNSVQfoB1JeL0TfluEoZibboDSS0fVejYPkzON7Z2/In7/Fof3sFCQS2vYnjheaTaTyQRxag3da3YzH1AtST96EnDzVeVneE34X20c+cR2B2lo/XIOTeB5Fp8Yg/kHsIteQj9HXHnddtE9F+/zDSNwB8vcBeDcdTUP9ejP7vNIORDT2oe6/r0f7vV0jtGvR73kTVAVOewfLCNbDpVRyvbAJb6zoFGmsg7yhq/TL0/9sODYCEIm//FW2kQr1+J/o31Z2LfyHV6aWKaqTRodB1O0pBk0PhcLh39JFq3MkXq9PxEn9GjXuGa8+RqJc+glevAQRbbTT5B2Ehy9CZFRd+WeeRHmjPJiYmFyatXKqOtlQSuOpxLM/NBCtQcRJ1rAEJjUESo5CPN6EsftDbF6iCw5ko/0hkxHXIiAS03zyCvqG0VRH1cGgf6tQRjAoy2p1GlDAZCVDgEEiYggSsQ5UrQEdl7UFtDQSsMGyM05FJ340qaAJVjqrQ3SurO2pzYds2lMVli6jRyABrK/MEIb94He36YKgrQuWCRIxD5g9G0x9FX18ClkCI6AcetZBxFGUNQWITkSeGotU/iL62tLPSW9GDugf2do5zByQio3xQ2y3IteOc570H9nY2gdZ1eigD5RmCDE5A7ovHEv07HL/Z4J4dL6Q6vWRpoL7JQU1DDaBR1+SgtrHevYhtVUNpZQ1Ib2LsZqz3maOozHqfN8pDcVQe59yuhT+fZZ1PeqA9m5iYXJC0G/Fs53z6TUB7fCZYa1CLXkBfdMh5uLH4Qoil7dGT9jT0F59Dlfsgj32ANmcAMm00bFzbkkaVoj76Nfrhzt5cvZDJ48CeilrjhcyMRxL9Ud9UADqsegd9FSDByJufIqMUavlb6CtaOW/NGnVblgGKN6O/vPlUxvLIAuS20JbrETORa4Khbj/6vOdQucCc17A8moDcfROyaVFLR2lPRv/Vc6hyK/Lwn9B+NBAZEQkGHc8e090/EJF6qLAiUxIg2RcZY4HyeggMRLRWg7D2NPSXnkOVAyMfwvL7W2HSDCRoI6rMoA0vtDq9ZLFTUVtCWU0ZutIorSmhV33bsS/xiGB8/D1cMyiGEC9PHE3VVFZtZenGxaQYPT5Hwphxw2tcVfIGL+9OcnYB2nh+eutj+B/8Be8dKXL2ItZYJg6dQUJoDKG+AfhZrSh7BRmHXuUvR/Ig6CbuHz+bGD8f7DVpJBU0EBY2gj6OLLbveY/lJ8sNOxnd6mVQZgBL71n8fOZ9RPh501idxt7kT1lxPIdGQDMgM17X8tDNPyfONTjflP3HDk8nMlIX3aURg2UhvYkbMpeZ0QkM8Iaq8n1sP/R31uWXuvYl9SNuxMPcOCicYJ8AfCx2qisPszNpIV/nFbs1gmq0jXmE3s3TtzxEkFVRU3mY75L+ytd5Ja32Se2+PZuYmFycdDDi2aq7T5yG9BbIW4X6m8vpBFC1UNhZlg6wuxKKm9FSXsORxCA4vgL1tTcyIxqZNBrWrL8AF9sLDB+BWARSN6HyXM7Qpk2ohxKQ8OEQKKefC28LgzAbqDrU0ZzzLjV+fiCNqD2pyLipyJFeCAdRSXHIsIBOIi4UpB9BOUA0f7AJGHU8L6o6vZhxkJP6Nv+yO8e8kve/TXpD68ZnIXL4f3H7oALW7nuLw1V1aNYgQnrZKToHfrx4D2VC7FhU5iKWJeVT2aTjYQ2AqiJ0wMMngihbIRs3LiJn0EP8NLqOdVtepyD8Ie4ePZuDqxZzrLvd2s+FXlo9OWkL+LbKQXDYHGaNn4+3fT5LcqvRjMjc+B2ffZ2GlwQwOvFZrjtjmbtPowyV5cPg+Ge4P0ZnX9KHrKwU+kfexk1XP4vfxuf5srAOxJvQkJGE2dewePteaggkevBd3DDxEapX/4aN1YYqwqBeTvS6JNYd2kmJw4+o2LuZMXEelV+/xpaa5k6hu/ZsYmJyseJyPFtvpdT83YKEDQRRkHEE1V0n7jEYmf8K4h+FXBHinCZdt7utc6ENQN5d2RIA37gFfc4rqHrX/4ddhfRWsDkJle6FqrodSZiE+K5HuXv8R3dlnTUa0ifIaZ/KyhY9qyrAocAzEAnSUMWuv3uORVu62vld6bDlLfSVnXrvZylaF7r38nNOq+/7DnXVA2j/4QkH30fVDUF6+dPh6gSfUGTODMQTqD0JxUYfRFxkdXp+sYx9mqXrHiSig9109WMLuD/hNfa7cZB3U30+zYEH9bX5tDWLBT9vGzTuJ6MghRMNzjo8dmaiG6SR/LyN7D/ZSeehKigozSDZkkF9tB8FxWnsJ5U54f0JsWDY8exJvRzF61h51DVqWJCNxf8NZsVOZGXeGqqNyNxUS3lVLUg9VZ32mUZkNpBGdV+W+ExkWkw/8pLn89mRXHQgrSAXD9tvuSFuAusK15/av1SvOcKhk4doAo5W+BAz6ycM6WtjU3WFwXdE43WhVx1iT+5BmoD0ShtXzJrLsFAbW7MqT5XVdXs2MTG5WPFoO8rZerhLuTciJYHIuPGun1ah3n8K/dt208jtY/Tsaa1GBD2QieOARlRyBjRaUZl2ZFQ8MsILtaPBPc26LKuHEDfWWKpy1K5kwB+Ji4PJj6H9vAT9w709P/LXqe4CPt6ABpV7UWkeyEgHatseGPEAaL2gl7SMbLd2lgFUNeqzL5wOoyHVL8I6PY84khfwxOTleHVgS9VQQnaPjkQ2knJ4IXsn38e82aPIzN3OvuOb2JOfR/0FMfIsrttJR0dDpN3sS6ecQ71UEVnFxWiREfQVOH353LmUuWf00gJiGKgVs6swv2UaW50kvbCYmREx9NPWU9lBfqq+kNImYYDVD8Go43lmMqv6AkrswgBvP4RKcyLExOQSx6Pzc9oVKr8IVDRExiCWjaiuHvJNu9HvegXueA/tjnBk3DD4V3bbfrirGD1LDDIuGMSCPPtPLM82X/BHxsXBjgPuaXYu4gEtrtABXQd0VHEZEAU2W4v/bgsAi4BehiprNWRjT0e9/rJzUU3oLWgLH0Fuvg35bJ9roU0P0pXuvj6ABlKMWvgBepwDtpVDggXEB3yEU4dLq2pIPYaqrYHcI6gN36AOFBiX42Ko0++T2hJOJJd2+P6ilELv4WZhr9rE31bvZ0P/CYwOm8T0q2ZzY+kyFm5ZSnqj0cKccmnuhtF0maWOrtQZOxzd63XmMgsCHcnWnczd6GOkLgzXVzdldf6O2NWvnDYTd16u3ZG5DTq6DtKTbcrExOSCpd2d3ryfp+v7vu2oegVhM5E5Ma16ME8I6tVBdg2oJZ+gihUk3oM2tqM0nRA+DvpboOYEats21NZtqEP5oDQYPQY57xvUCQyJBz+X0r6DkeFBgANVVAwoSD7sdMaHTEEGeAAeMHWKc/ulE4egrJOO1ubvtLybnfrZI4i3a8RT0+HAStTnq1HlutOpFm/Ep5VM9lT0/34S/enn0f+4yD2nEy7AOr2wsIx9in+WprK74vTProPzSTgXm2jqleTmfsPyHS/x6uq/kx90C7Oj+7Z1TpQdu64QDx+82v9eVVLVoPCx9cPWQ83Xkf8Rzy99iz1uhBWcRld6nanMWn9iQ4NxlGeS327av3uZG2lyKMTaC58zkdmdNF2UpVdkkKMHExPar6Wzl/4M7kSv7hFsIdOYOXw6Md6dGNOQzCYmJpcrHh3Hd7ooWotaPA15YDgy730sP8pBldqR4AFQvQz9wQWnvzNX7UD/PAnLoyORe2+CPf9ouSa9kQefR2s9t1N/APX6MtSoUYhFwf6/o7/wrfNavzloCx9GBoyEvgJ5boyJdFrWl12P3DZjG4/20ktIQDXklELwILB5QNUu1PpcZ5qsVaits5Epo9D+vABVIEhkiHNkbslKVOtO3WMo2uvvosSGRPR3Rtdu34CqOAcTS53q/hX4eDkdXq31O4c4/yZe4Onu48GC3DofbXKrUcgLtU4vMM7vVLuVwXH3cqU9iaPlRdTqngT0iSZAa6Kooa5d2hoKKsvQYq5nemQZqU1+9OYY23Nz0KniSG4q9tE3c8fQajYVlqJ7xRDYKkLj/GJEL+Mya76DGdK3gjpLKIOjf8h1Afls2biDStqsxDRAPXnlBciV07gxuoykhl70kWNsy8lGNySzO/XVRVl121mbcRMPDX2cu/Wl7K0U+kfcxg2BBWx36eUWWizXJd7HtX4w1uMEr+1PaxXt4o7MJiYmlysebeM72zufjajPn0PPvxOZMxUZPBAJskNBFmrX8U56YgXffImaOxKJuwUt4Sv0g81FeMOIiW3d25palMUfGRML4kClprdcKz4CRTr0i0HiA1B5buzZ2FlZGsbiAu0nUau3wPWjkIhwqC9F7dyK+uSvqHyXzVQx6o356MUPIFOHI2HAsd2oJX9BX++Kb7WXwNFsCAuBqCsQVQ8FKagtK1CL152bld2d6i7g7RrDauN4aq6xbyunD3F1hwaxiUhsu7IuxDq90Kgt4lhS0XkqzAtN60XslT9jqq8fHjRSW5vN0eR3+ep4+xg+B8fSFvBtwH8waexTTHKUkJP5MXtzc6hDUZrxZ/7qfR+zYx7gwWFWlKOaisoU9ld9H8s/jOhlQGZVT1FxCvnhU7hnykw8VC2lpXtZtfkzNhSdidPkIDftE1YH3s/U0b8g0VFCdubH7MnJps6QzO7VV+dl1ZF+4DU+bvoJs654iAe8oar8AOs2L2ZN4RnopeeTnp/L+HAhtehkO8fdHZlNTEwuV6Sff8hp/UE9TUTag78PeUxMTExMTExMTC5R2o14XgZoYcj8J5C+nQWy67D2j+jLT1ye8piYmJiYmJiYnCM8LhuHsxnxQWKHIuGdrWxxQFKnywEufXlMTC4EJJrZN77CNP/O74vClBf53cGM7ym21MTExMTkTJB+/sGqvfNpTrWbmJh8v1jx9++PrYsdduwNJymou3ROJzcxMTG5HLj8RjxNTEwuAhqprDzu/qprExMTE5MLGnPHXhMTExMTExMTk/OC6XiamJiYmJiYmJicF0zH08TkUkCCmXLdQp4fdSUWbQi3/mAhj8b2PneBNB7BRA5IIKyj3e+/B7xC5/LLOR/y+JAoLqkDsS4wO59XLhDdxeta5t2+hHfudH7enDSBszpU7ALRyzDnu28xueQxcBiHwBXT0O6ahcRHgZ8GhZmozUvRF2wC76vRPnwSCfUBFNSVQfoB1JeL0TfluEoZibboDSS0vZ+rYPkzON7Z2/In7/Fof3sFCQS2vYnjhbWuHZ88kEcWoN3Wt2Mx9QLUk/ehJw81XlZ3hN+F9tHPnEdgdpaP1yDk3geRafGIP5B7CLXkI/R1x53XbRPRfv8w0jcAfL3AXg3HU1D/Xoz+7zTjG8jbDNg5cCbaZ/+FdNQr7nsPxy+Xg1/rfIDGGsg7ilq/DP3/tkND+7I6SWOkTo3IbNIzqEYaHQpdt6MUNDkUDkfL0UdiHcOcqXMZ6dcbm4dOTfUJMnLXsiZlK3lN7m/trfnfwNyrxnJw3S/JbjhHu/d7juGO6T9nTC8/rKJoaiqjsHgXWw79H9+V1ba6dQSvXgMIttpo8g/CQtZFeZ5AR5wXOxtCCL7yZZ5JiG3r2OtH+WrVS3xbrRtMY5wLRXfVuJMvVqfjJf6MGvcM155lfheKXobppm8xMXEXj7anFbU/uUjgqsexPDcTrEDFSdSxBiQ0BkmMQj7ehLL4QW9foAoOZ6L8I5ER1yEjEtB+8wj6htKW7FQ9HNqHOnXkoYKMdifXJExGAhQ4BBKmIAHrUOUK0FFZe1BbAwErDBvjdE7Td6MKmkCVoyp098rqjtpc2LYNZXHZImo0MsDayjxByC9eR7s+GOqKULkgEeOQ+YPR9EfR15eAJRAi+oFHLWQcRVlDkNhE5ImhaPUPoq8t7az0thixc1MBavs2sHjC0DFIkEDmHtTJRsjMPz2fQxkozxBkcAJyXzyW6N/h+M0GY2mM2NmdtmFyljRQ3+SgpqEG0KhrclDbWN/inIk/oYEhlCT/lk8KLAQFJXBV3M95vN8gPlz/OZln4Hyea0T8COzly8mU1/i/3Hqs3mEMj7uLO67ph1r9Jt/VtrS5yqz3eaM8FEflccx17ucCRVnW+7yZ74XPwPt4bBh8vX4Bh5oaqKzV3UhzEaJqKK2sAelNjP3Cu0/OPd30LSYmbtJuxLPd4LnfBLTHZ4K1BrXoBfRFh5yHG4svhFjaHlNoT0N/8TlUuQ/y2AdocwYg00bDxrUtaVQp6qNfox/u7G3JC5k8DuypqDVeyMx4JNEf9U0FoMOqd9BXARKMvPkpMkqhlr+FvqKVA9OsUbdlGaB4M/rLm09lLI8sQG4LbbkeMRO5Jhjq9qPPew6VC8x5DcujCcjdNyGbFrXcnPZk9F89hyq3Ig//Ce1HA5ERkWDU8TyVTxd2rtmLenkvSgKQ1/6OJApqxdvo/yruOJ+XnkOVAyMfwvL7W2HSDCRoY8sZ812laV5ubMTOXcls9l49hJ2K2hLKasrQlUZpTQm96tuPpihqq7M4UVzHieIkkk4WMu+Gudwau5W3k7Odt7bXeO645ifE2wLxFjs11Uc5mLqYr7KO0wCgDeHWWf/NFF/nSPf10xdzvSvv6szf8eKugziM5GMYRV1tNrlllSgyyKrwInzWXEb182dnZgV4XctDN/+cONfAe1P2H3l22w6a2uThR9yIx5gVHkmIrx+eruMwtx36jI2F5a59QI2kAcRG1OA7uTE6nnCbP6oui8NHl7DsSBo1zUmssUwcOoOE0BhCfQPws1pR9goyDr3KX47kGdt31ICddetkfvaDeYQeeZ7Xk7Jc+VoZmvge9/dZxx++/oIc1XN6ORoLyW8UfIPqUGhUVOZwsrHd4Z0G0vSE7g4DMmtBN3H/+NnE+Plgr0kjqaCBsLAR9HFksX3Peyw/WY4yWu8G6Kl7x0hddE/3eomh9gPG+hYTE+N4dHxGu4vEaUhvgbxVqL+5nE4AVQuFnWXpALsrobgZQuo1HEkMguMrUF97IzOikUmjYc36C9BBERg+ArEIpG5C5bkcr02bUA8lIOHDIVBOP0PcFgZhNlB1qKNnM918FnZug4L0IygHiOYPNoEKA2nOaJ+bnpLZ5HQc5KS+zb/szvG+5P1vk97NNJ5evYlt+Xfwk0FjCU3JJl+BajrO3uT/ZU9tBQ3YGBh1F3PGPk5D5dN8VWIHPYNv1v+S7UGzeXDCcI7seJP1Fc5yHI0lLV1Ed/mcKfY6GpTgZXG+YarG7/js6zS8JIDRic9yXUe/EW9CQ4YxoGEVC3fvo1YLZnDMbdw05VlsG1/gq6J6Y2nwImLYM8wbbGdn0sd8XVaHX+hMbhn5FHPtz/BRZrGzJ/UeyoTYsajMRSxLyqeyScfDGgBVRcYdGQN2Vo1JHC6yM7TvcPocyqJIARJOTHAvqguTyVcGdTeo13nDUBvrXmbNJ4IoWyEbNy4iZ9BD/DS6jnVbXqcg/CHuHj2bg6sWc0wZsY8xeube6aG6MFDvhtqPUzq3+xYTk65wjQ+2OJ0t3yxI2EAQBRlHUN09KzwGI/NfQfyjkCtCnFPf63a3dRi1Aci7K1vifxq3oM95BdV8bw+7CumtYHMSKt0LVXU7kjAJ8V2PMv6qZ6yss0ZD+gQ57VNZ2aJnVQU4FHgGIkEaqnmw0XMs2tLVzu9Khy1voa/s1HvvHCN2dgefUGTODGdcaO1JKNY5LXK+ozTNGLFzT8t8iWAZ+zRL1z1IRAeR1vqxBdyf8Br7m06/1hlN9fk0B5PU1+bTfVNvpLiqBEJDCBKcDxo9n6PZ+adSZJdbiQ1/nKjgPkhJAYpGqqvzqLVW48BOTU0eBZUdPIS6zcddBA+vQQwfdhOxehrLT5Y581C1lFfVgtRT1U0fpddmklKQQhOQXnACpv2Ga4dMYH3RBqoMpKn2nsiMK0NI2/0k/zxe6Sy/NBuP3u8xN2IMAVmrKT+lWCP5eRvZf/JMnWwjdq4kJScVx5gxDPVdwcYahdYrjphedWTkZ9C65J7T63zQve5iQOZqAFVBQWkGyZYM6qP9KChOYz+pzAnvT4gFjtm7t08VBumBe8eIXu7URdd6GW8/7vctJiad2Sq0GwAAFjpJREFUc9ojT7X+5k5nI4HIuPGun1ah3n8K/dt208jt4wHtaa1GBD2QieOARlRyBjRaUZl2ZFQ8MsILtcO9Cbquy+ohxI11faoctSsZ8Efi4mDyY2g/L0H/cG/P29kIrR1hAFWN+uwLp4MfaCDNqZAGA3buKZkvMRzJC3hi8nI6WtyqGkrIPi/x+20L17ziuHrkrST2DSfIKjTU12O1CGUWz1NzI0boqXzAgyvHvM+bYzQsmoZee5DVW/7EFjcXqpyGnkNqQTHTI2Lor22gqiOB2qXJCBzMIEsv/BLf583ElmQiHkh1HwIAN6PIzxJFZe42jiQ8QPzAEDYdKaJX6DAGOJLZXNiFa3DB69U9mgGZq0/7lbi6bB0dDems/27fNgw2tZ5o80b0OuO6OE2vM2w/JiZnSYer2p23o0LlF4GKhsgYxLIR1ZXj1rQb/a5X4I730O4IR8YNg39lt73buooHtMQg44JBLMiz/8TybPMFf2RcHOw44J5mPRHjeZqMrulhXQd0VHEZEAU2W0vEgi0ALAJ6GaqsVY9lT0e9/rJzoVToLWgLH0Fuvg35bJ9r8ZRBjNjZCKoaUo+hamsg9whqwzeoAwVnkMaAnXtK5kuN2hJOJJd2+P6ilEI/5/axEmzrDbVFlClAQpk08Wlu9jvM1wf+SEplDeI1kplX3Yn/6RJ2Xn1u5dMdDo4d/jWf5zTQd/Bj3DOwkvyKytPLVl3I0wkKBSJdbgvTNo0gqpAdO37Pxoq23ojSq5027HG61ks17GZn3lzujZhI6NE1DOh3BaroU9K6iav8/vUyQle6uymz0tHdaCNG2kZbcXro3jnHddFerzNtPyYmZ0OHjqdq/nffdlR9IhI2E5mzEbU0w3XRE4KsUNZ+/rsBteQT1HUvIon3oI3djL7L4Bx5+Djob4GaE6gDOc5yAqKRYf1g9BjEcqBrx7fHERgyErIPQrUC38HI8CDAgSoqBhQkH0Y5RiNDpiADvnEuLpo6xbn9UuYhKFN0+KS1+Tt3UNXPdCe0s7BzM/ZU9P9+rmun10gaw/SAzJcYlrFP9ehUu7tova5iQj9P8tP2UKgALYzI3lZOpn7OuuwcZ8yZZqPMoU5vxnojTfjgY+2gDYsb+XSLoqG+gMLKSgoOfMiGkOf5Yfx20nfuo7ZNukaaHAqx9sIH6NZsEkJ0cDB6xXEKOmve7dLoFenk6FOIDLTyZXZm92X0BF3ZGYBaUtK3UH7tFMb3LcA/FI7s39f1IpQLQS8jdKG7EZlb31aO/I94fqnze7f7vHbWNpQdu64QDx+8aNfG3GnzZ6lXq0KxhVzP5L7CkfS1ZNR30093qNcZtB8Tk7Ok6308i9aiFk9DHhiOzHsfy49yUKV2JHgAVC9Df3DB6W9uVTvQP0/C8uhI5N6bYM8/Wq5Jb+TB59EqW/2q/gDq9WWoUaMQi4L9f0d/4VvntX5z0BY+jAwYCX0F8txwgDot60tjDqxtPNpLLyEB1ZBTCsGDwOYBVbtQ63OdabJWobbORqaMQvvzAlSBIJEhzlHAJStbVocDeAxFe/1dlNiQiP5Oy2/fgKo4Q6euIzv7jEaeuhmxeEKsBRBk9i/QxjRC5r/RF+46s7K6ois7G5H5It5l5Ww5/1Ptgq9fFGG9dWwBI5k0dBbRNV/zlyPOFe2oXHIq7MRH3MLk8rVk1TUgnpEEWjp4QFYfJ7/Jn5Fxt5Ehh6iSIPpZjrMlOxvdjXzcwpHBt/s3MWbKXKZlHOarktYbJ9WTV16AXDmNG6PLSGroRR85xrac7FNNzBI8jZtihaPVDoIH/ZAZfSrZt3U7Fa3WVnaVRtVt55ujM3g47pfM81zO1vxsqnUrNlsfavPWkFLT86NEXdrZlaapZA1bSq/nhnFzETnIF3lVp917PaGXxRpKiI8XPr4+CBDgP4j+TQ1UVhVS4xLGSJoe0b2H66LLtnGKGgoqy9Birmd6ZBmpTX705hjbc3PcavM9ppcWy3WJ93GtH4z1OMFr+9NOi3IyopeR9mNi0pN0s4F8I+rz59Dz70TmTEUGD0SC7FCQhdp1vPPx0m++RM0dicTdgpbwFfpB1yXxhhET205f1NSiLP7ImFgQByo1veVa8REo0qFfDBIfgMpzI7qls7I0jMV62k+iVm+B60chEeFQX4rauRX1yV9Rzcv9VDHqjfnoxQ8gU4cjYcCx3aglf0Ff74phtJfA0WwIC4GoKxBVDwUpqC0rUIvXncV0cwd2zuyLTJzUdgP56LFINOC750wL6pqu7GxE5r1uxu5eStQWcSyp6PyUpSopqihm5BW/4omhDmpqTpCR/b/8MWULuc17eKp8Nu94F5/4W5k67lfcbPVEd9RSU5dJSnVd26Zq38e/d6/Cb+R13Dn5B4i9mOyMT9iVnU2dO/m4SX3hV3xbNJmbR1zD1o3fUNJq5W1u2iesDryfqaN/QaKjhOzMj9mTk01dcxLdh4jYnzG5l5XGmjR2fvc/rMitbitPl2nqyUp6lf+pvZ0ZMbO4IyYAq6qjvDKFDUXrSDkX29Z3ZefmNKqAHSnbuXbyVMj6iMMdTZOetV5CUNRj/LLV5vCzrn+DWe02kO8+TU/p3sN1YaRt4OBY2gK+DfgPJo19ikmOEnIyP2Zvbo57bb6n9NLzSc/PZXy4kFp0suN3eCN6GWk/JiY9iPTzDzmtldXTRKQ9+PuQx8TExKRnkWCmXPsHflD/QQd7fLqR5gJGs/2A/7xhMmnfPsuqslbOyUWu1znnUrWPm3p12n5MTM4BBo7MvMTQwpD5TyB9O9tHUoe1f0RffuLylMfExOSiQDz7MsjmDZ7RTIz/If7ZH7DJdBpMDGK2H5Pviy5WtV+iiA8SOxQJ7yzE3AFJPpevPCYm5xqJZvaNrzDNv/M2X5jyIr87mHHphQD3oO5a4HTumTKDPqqUEyc+5aN9ey/sRSGXc71fgFx07cfkkqHDqfYGmogwp9pNTEzOCVb8/ftj6+LwKnvDSQrqLsVT103dL0/dTUxMmjEdTxMTExMTExMTk/OCeWC2iYmJiYmJiYnJeUGD02M6zc0UTExMLg58CIu6kzmDY7rfGNzExMTE5HtHg9MdzUt6cZGJyaWIBDPluoU8P+pKLNoQbv3BQh6N7e3WvSxe1zLv9iW8c6fz8+akCXieQRr38SRi2K95dc5rzAr2cu+n0ouoqNlMCg05++mbHrChiYmJiUnXdHFkZjMCV0xDu2sWEh8FfhoUZqI2L0VfsAm8r0b78Ekk1Mf5y7oySD+A+nIx+qYcVykj0Ra9gYS2fzQoWP4Mjnf2tvzJezza315BAoFtb+J4Ya1LIA/kkQVot/XtWBO9APXkfejJQ42X1R3hd6F99DPnEZid5eM1CLn3QWRaPOIP5B5CLfkIfd1x53XbRLTfP4z0DQBfL7BXw/EU1L8Xo/87zfjwsoQib/8VbaRCvX4n+jfVp6cJnIn22X+13UC+mX3v4fjlcmd5gcOR+3+CNj4OAj2hqhB1eAfqrwtQmQ5jdj7Y48fqmJwNqpFGh0LX7SgFTQ6Fw+FeHanGnXyxOh0v8WfUuGe49gzTuI8ngf798LVqhPp6IjR8P7MuPWBDExMTE5Ou6WYfT4GrHsfy3EywAhUnUccakNAYJDEK+XgTyuIHvX2BKjicifKPREZch4xIQPvNI+gbSluyU/VwaB/q1PGKCjLanUaUMBkJUOAQSJiCBKxznRWuo7L2oLYGAlYYNsbpnKbvRhU0gSpHVejuldUdtbmwbRvK4rJF1GhkgLWVeYKQX7yOdn0w1BWhckEixiHzB6Ppj6KvLwFLIET0A49ayDiKsoYgsYnIE0PR6h9EX1vaWenu01SA2r4NLJ4wdAwSJJC5B3WyETLznWm0COTXr6EN9YLybNTBEvDrj4wdiVrg3GbYLTubXCA0UN/koKahBtCoa3JQ21jvngOnaiitrAHpTYy9k18aSeM2tRzc9QxvpQpFZe1Pizmf9IANTUxMTEy6pGvH028C2uMzwVqDWvQC+qJDzrO1xRdCLG2PnrSnob/4HKrcB3nsA7Q5A5Bpo2Hj2pY0qhT10a/RD3c2iuCFTB4H9lTUGi9kZjyS6I/6pgLQYdU76KsACUbe/BQZpVDL30Jf0cp5a9ao27IMULwZ/eXNpzKWRxYgt4W2XI+YiVwTDHX70ec9h8oF5ryG5dEE5O6bkE2LWh5a9mT0Xz2HKrciD/8J7UcDkRGR0JOOZ81e1Mt7URKAvPZ3JFFQK95G/1dxS5p+Y5ErvKFpP/pDv0IVuyT08+PUYcpG7GxygWGnoraEspoydKVRWlNCr/q2m0GL13juuOYnxNsC8RY7NdVHOZi6mK+yjvO9HFzqOZkHbnmU4aeCMxWNJ97h2e07OXXXSm/ihsxlZnQCA7yhqnwf2w/9nXX5pW32erT0nsXPZ95HhJ83jdVp7E3+lBXHc2jemEc8Ihgffw/XDIohxMsTR1M1lVVbWbpxMSmnjnXp3oYmJiYmJmfHaY5nm3imxGlIb4G8Vai/uZxOAFULhZ1l6QC7K6G4GXXlNRxJDILjK1BfeyMzopFJo2HN+gtwxZPA8BGIRSB1EyrP9ajctAn1UAISPhwC5fRz4W1hEGYDVYc6mnPepaa2AhoVeIcjNySglu6HBgXVHUzdm1xEOMhJfZt/2Z2uVvL+t0lvaNv4VNNx9ib/L3tqK2jAxsCou5gz9nEaKp/mq5LvYUrZvod/rH6S5QIQxNjxzzC1TQIfBsc/w/0xOvuSPmRlpdA/8jZuuvpZ/DY+z5eFdS1JtXpy0hbwbZWD4LA5zBo/H2/7fJbkVqOwEDn8v7h9UAFr973F4ao6NGsQIb3sFLVRu3sbmpiYmJicHac5nopm59OChA0EUZBxBNXdc8ljMDL/FcQ/CrkixDklu253W4dRG4C8u7Jl9WnjFvQ5r6DqXf8fdhXSW8HmJFS6F6rqdiRhEuK7HuXukQrdlXXWaEifIKd9Kitb9KyqAIcCz0AkSEM1DzZ6jkVbutr5Xemw5S30lZ167+eOio3ofxqP5bEpyP2/w3JnLmrzWtSy5aj0qvMvz2WMZezTLF33IBEdzDvoxxZwf8Jr7Hfj8Oim+nyag0nqa/M5ranr+RzNzj/13+xyK7HhjxMV3AcpKTj/73aqjoqqOioApJEqR7vocp+JTIvpR17yfD47kosOpBXk4mH7LTfETWBd4XoqXWkdxetYedR1JnVBNhb/N5gVO5GVeWsoVxb8vG3QuJ+MghRONDhfjI91IFK3NjQxMTExOSvaPPKE1n6icm+UUQKRceNdP61Cvf8U+rftpmbbx13a01qNCHogE8cBjajkDGi0ojLtyKh4ZIQXaoebk4FdltVDiBvrXVU5alcy4I/ExcHkx9B+XoL+4d7zPJrbBCtfxfHdUmTadOSGa5Abf4pMvxH12yfRNxSdT2EuaxzJC3hi8nK8OmhGqqGE7B4ehNS84rh65K0k9g0nyCo01NdjtQhlFs929/6FgRYQw0CtmF2F+S3T6uok6YXFzIyIoZ+2nsqOhFZFZBUXo0VG0FegXDWScngheyffx7zZo8jM3c6+45vYk59H/YWmtImJicklTvv12m3+p/KLQEVDZAxi2YjqynFr2o1+1ytwx3tod4Qj44bBv7LbZtpV3KUlBhkXDGJBnv0nlmebL/gj4+JgxwH3NOuJGM/TZHSFDug6oKOKy4AosNlavHZbAFgE9DJUWasoNHs66vWXnQulQm9BW/gIcvNtyGf7XIunzjMlqajPU1FfLEB+/BLafSORe2cjmxd0Xc8mPUdtCSeSSzt8f1FKofdks5BQJk18mpv9DvP1gT+SUlmDeI1k5lV34t+DxfQ0nb/adW0cQUCpU6nsVZv42+r9bOg/gdFhk5h+1WxuLF3Gwi1LSW80vU8TExOT80UXQZgK9m1H1SsIm4nMiWn1FPCEoF4d/KYBteQT54KVxHvQxnaUphPCx0F/C9ScQG3bhtq6DXUoH5QGo8cg5313aIEh8eDnUtp3MDI8CHCgiooBBcmHnU7akCnIAA/AA6ZOcW6/dOIQlHXyQLP5Oy3vzohpj+EFkQNa6lJVozJOuuQKMDdxPY9Yxj7FP0tT2V1x+mfXwfkknP0GmS1IGJG9rZzM/Jx12SnkVJwguziLMkcHbVTZsesK8fCh0101jaRBsIVMY+bw6cR4u9+w9IoMcvRgYkL7tXRU0p/BocE4yjPJ72xzBa0/sR2l0SvJzf2G5Tte4tXVfyc/6BZmR/c1m7yJiYnJeaTrVe1Fa1GLpyEPDEfmvY/lRzmoUjsSPACql6E/uOD0cYeqHeifJ2F5dCRy702w5x8t16Q38uDzaK3nx+oPoF5fhho1CrEo2P939Be+dV7rNwdt4cPIgJHQVyDPjZGJTsv60tiInm082ksvIQHVkFMKwYPA5gFVu1Drc51pslahts5GpoxC+/MCVIEgkSHO0dYlK1GtH3oeQ9FefxclNiSiv9Py2zegKtwdbbEgt85Hm9xqJLdZL+/RyFM3IxZPiLUAgsz+BdqYRsj8N/rCXRBwNdq7TyGNOagTxc4QiSujQHTY/Z052nkeOa9T7SqXnAo78RG3MLl8LVl1DYhnJIGWjtyuGgoqy9Birmd6ZBmpTX705hjbc3NarSQ3kEaL5brE+7jWD8Z6nOC1/WluRbuouu2szbiJh4Y+zt36UvZWCv0jbuOGwAK2b9xxKr4TQPMdzJC+FdRZQhkc/UOuC8hny6k0VgbH3cuV9iSOlhdRq3sS0CeaAK2Jooa6jgs3MTExMTkndLOBfCPq8+fQ8+9E5kxFBg9EguxQkIXadbzzX3/zJWruSCTuFrSEr9APui6JN4yY2HaEoaYWZfFHxsSCOFCp6S3Xio9AkQ79YpD4AFSeG/twdlaWhrFYT/tJ1OotcP0oJCIc6ktRO7eiPvkrKt9lIVWMemM+evEDyNThSBhwbDdqyV/Q17viW+0lcDQbwkIg6gpE1UNBCmrLCtTidWcQWKdBbCIS24Fenn2RiZPabiAfPRaJBnz3uOySj1q7C8YPQYaHOWNhC1JRm5ehFm2/8AL9LmVqiziWdJ5ialU+m3e8i0/8rUwd9ytutnqiO2qpqcskpbquXbU7OJa2gG8D/oNJY59ikqOEnMyP2ZubQ507afR80vNzGR8upBadxP3dX+tIP/AaHzf9hFlXPMQD3lBVfoB1mxezpnlFu6qnqDiF/PAp3DNlJh6qltLSvaza/Bkb/n97d6/SQBCFYfg7S1A2GyJKggbjD4RFsLNVIU1yA16CV5AyXUoLK/U+LLT1DiwEBRVCIJomkEKMGEKM0UIEQeKCyKq771MPw1cMU8yZM9N5TzIpx/Hkr2yrmEwpoYF6vZbql/s6urlnyQNAiGwunf207/b1pOVh5jfyAIgjy6tc3lHxble10/Mf7wMEAPwNAT8XRZCzIKtWZLPjrreOpJM9jY5v45kHCIVpOr+lTa+jZvdBEzMlrU/11bhufuNkFADwX3z9gHwUmSvzV2WL47qVnqULN755gFAklHLnVSiUtJH0pEFbjasDHba6lL4BIMIsl86+fNzoTW+l9qVhRmeP9cAJ1jw/cAwAAADwCoEvuo3R7OCyAAAAAElFTkSuQmCC;" vertex="1" parent="WIyWlLk6GJQsqaUBKTNV-1">
          <mxGeometry x="370" y="250" width="540" height="276.24" as="geometry" />
        </mxCell>
        <mxCell id="zkfFHV4jXpPFQw0GAbJ--0" value="INPUT_DATA" style="swimlane;fontStyle=2;align=center;verticalAlign=top;childLayout=stackLayout;horizontal=1;startSize=26;horizontalStack=0;resizeParent=1;resizeLast=0;collapsible=1;marginBottom=0;rounded=0;shadow=0;strokeWidth=2;strokeColor=#DEBD59;" parent="WIyWlLk6GJQsqaUBKTNV-1" vertex="1">
          <mxGeometry x="250" y="140" width="170" height="100" as="geometry">
            <mxRectangle x="230" y="140" width="160" height="26" as="alternateBounds" />
          </mxGeometry>
        </mxCell>
        <mxCell id="zkfFHV4jXpPFQw0GAbJ--1" value="This is the csv file with data to be run in MadGraph. Ostensibly output from a prior Magellan-MCMC run" style="text;align=left;verticalAlign=top;spacingLeft=4;spacingRight=4;overflow=hidden;rotatable=0;points=[[0,0.5],[1,0.5]];portConstraint=eastwest;whiteSpace=wrap;" parent="zkfFHV4jXpPFQw0GAbJ--0" vertex="1">
          <mxGeometry y="26" width="170" height="74" as="geometry" />
        </mxCell>
        <mxCell id="zkfFHV4jXpPFQw0GAbJ--13" value="NAME" style="swimlane;fontStyle=2;align=center;verticalAlign=top;childLayout=stackLayout;horizontal=1;startSize=26;horizontalStack=0;resizeParent=1;resizeLast=0;collapsible=1;marginBottom=0;rounded=0;shadow=0;strokeWidth=2;strokeColor=#97D077;" parent="WIyWlLk6GJQsqaUBKTNV-1" vertex="1">
          <mxGeometry x="810" y="160" width="200" height="110" as="geometry">
            <mxRectangle x="340" y="380" width="170" height="26" as="alternateBounds" />
          </mxGeometry>
        </mxCell>
        <mxCell id="zkfFHV4jXpPFQw0GAbJ--14" value="&quot;CREATE_JOB_&quot; will be stripped from all variables before being passed on. This will be the name of the job folder that is created in MadGraph/Jobs/" style="text;align=left;verticalAlign=top;spacingLeft=4;spacingRight=4;overflow=hidden;rotatable=0;points=[[0,0.5],[1,0.5]];portConstraint=eastwest;whiteSpace=wrap;fillColor=default;strokeColor=#97D077;strokeWidth=2;" parent="zkfFHV4jXpPFQw0GAbJ--13" vertex="1">
          <mxGeometry y="26" width="200" height="84" as="geometry" />
        </mxCell>
        <mxCell id="zkfFHV4jXpPFQw0GAbJ--16" value="" style="endArrow=block;endSize=10;endFill=0;shadow=0;strokeWidth=1;rounded=0;edgeStyle=elbowEdgeStyle;elbow=vertical;fillColor=#d5e8d4;strokeColor=#82b366;entryX=0.556;entryY=0.217;entryDx=0;entryDy=0;entryPerimeter=0;" parent="WIyWlLk6GJQsqaUBKTNV-1" source="zkfFHV4jXpPFQw0GAbJ--13" target="iUEYl7UZDT7DJrYxAWYP-9" edge="1">
          <mxGeometry width="160" relative="1" as="geometry">
            <mxPoint x="210" y="373" as="sourcePoint" />
            <mxPoint x="730" y="310" as="targetPoint" />
            <Array as="points">
              <mxPoint x="860" y="290" />
              <mxPoint x="690" y="290" />
              <mxPoint x="640" y="290" />
              <mxPoint x="900" y="290" />
              <mxPoint x="700" y="310" />
              <mxPoint x="790" y="310" />
            </Array>
          </mxGeometry>
        </mxCell>
        <mxCell id="iUEYl7UZDT7DJrYxAWYP-1" style="edgeStyle=orthogonalEdgeStyle;rounded=0;orthogonalLoop=1;jettySize=auto;html=1;exitX=0.588;exitY=1.011;exitDx=0;exitDy=0;exitPerimeter=0;fillColor=#fff2cc;strokeColor=#d6b656;" edge="1" parent="WIyWlLk6GJQsqaUBKTNV-1" source="zkfFHV4jXpPFQw0GAbJ--1">
          <mxGeometry relative="1" as="geometry">
            <mxPoint x="260" y="330" as="sourcePoint" />
            <mxPoint x="360" y="330" as="targetPoint" />
            <Array as="points">
              <mxPoint x="350" y="330" />
            </Array>
          </mxGeometry>
        </mxCell>
        <mxCell id="iUEYl7UZDT7DJrYxAWYP-3" value="LOCAL" style="swimlane;fontStyle=2;align=center;verticalAlign=top;childLayout=stackLayout;horizontal=1;startSize=26;horizontalStack=0;resizeParent=1;resizeLast=0;collapsible=1;marginBottom=0;rounded=0;shadow=0;strokeWidth=1;strokeColor=#D45757;" vertex="1" parent="WIyWlLk6GJQsqaUBKTNV-1">
          <mxGeometry x="190" y="250" width="140" height="80" as="geometry">
            <mxRectangle x="230" y="140" width="160" height="26" as="alternateBounds" />
          </mxGeometry>
        </mxCell>
        <mxCell id="iUEYl7UZDT7DJrYxAWYP-4" value="This determines if a job is set up to run locally or on a computing Cluster." style="text;align=left;verticalAlign=top;spacingLeft=4;spacingRight=4;overflow=hidden;rotatable=0;points=[[0,0.5],[1,0.5]];portConstraint=eastwest;whiteSpace=wrap;" vertex="1" parent="iUEYl7UZDT7DJrYxAWYP-3">
          <mxGeometry y="26" width="140" height="54" as="geometry" />
        </mxCell>
        <mxCell id="iUEYl7UZDT7DJrYxAWYP-12" value="" style="endArrow=none;html=1;rounded=0;strokeColor=#DEBD59;entryX=0.944;entryY=0.326;entryDx=0;entryDy=0;entryPerimeter=0;" edge="1" parent="WIyWlLk6GJQsqaUBKTNV-1" source="iUEYl7UZDT7DJrYxAWYP-9" target="iUEYl7UZDT7DJrYxAWYP-9">
          <mxGeometry width="50" height="50" relative="1" as="geometry">
            <mxPoint x="560" y="370" as="sourcePoint" />
            <mxPoint x="610" y="320" as="targetPoint" />
            <Array as="points">
              <mxPoint x="380" y="340" />
              <mxPoint x="580" y="340" />
            </Array>
          </mxGeometry>
        </mxCell>
        <mxCell id="iUEYl7UZDT7DJrYxAWYP-13" value="" style="endArrow=classic;html=1;rounded=0;strokeColor=#b85450;exitX=0.997;exitY=0.796;exitDx=0;exitDy=0;exitPerimeter=0;fillColor=#f8cecc;entryX=0.001;entryY=0.345;entryDx=0;entryDy=0;entryPerimeter=0;" edge="1" parent="WIyWlLk6GJQsqaUBKTNV-1" source="iUEYl7UZDT7DJrYxAWYP-4" target="iUEYl7UZDT7DJrYxAWYP-9">
          <mxGeometry width="50" height="50" relative="1" as="geometry">
            <mxPoint x="400" y="400" as="sourcePoint" />
            <mxPoint x="450" y="350" as="targetPoint" />
            <Array as="points" />
          </mxGeometry>
        </mxCell>
        <mxCell id="iUEYl7UZDT7DJrYxAWYP-14" value="" style="endArrow=none;html=1;rounded=0;strokeColor=#000000;exitX=0;exitY=0.362;exitDx=0;exitDy=0;exitPerimeter=0;" edge="1" parent="WIyWlLk6GJQsqaUBKTNV-1" source="iUEYl7UZDT7DJrYxAWYP-9">
          <mxGeometry width="50" height="50" relative="1" as="geometry">
            <mxPoint x="400" y="400" as="sourcePoint" />
            <mxPoint x="440" y="350" as="targetPoint" />
          </mxGeometry>
        </mxCell>
        <mxCell id="iUEYl7UZDT7DJrYxAWYP-20" style="edgeStyle=orthogonalEdgeStyle;rounded=0;orthogonalLoop=1;jettySize=auto;html=1;entryX=0.389;entryY=0.652;entryDx=0;entryDy=0;entryPerimeter=0;strokeColor=#7EA6E0;" edge="1" parent="WIyWlLk6GJQsqaUBKTNV-1" source="iUEYl7UZDT7DJrYxAWYP-16" target="iUEYl7UZDT7DJrYxAWYP-9">
          <mxGeometry relative="1" as="geometry">
            <Array as="points">
              <mxPoint x="920" y="335" />
              <mxPoint x="920" y="430" />
            </Array>
          </mxGeometry>
        </mxCell>
        <mxCell id="iUEYl7UZDT7DJrYxAWYP-16" value="SPLIT_NAME &amp; nJobs" style="swimlane;fontStyle=2;align=center;verticalAlign=top;childLayout=stackLayout;horizontal=1;startSize=26;horizontalStack=0;resizeParent=1;resizeLast=0;collapsible=1;marginBottom=0;rounded=0;shadow=0;strokeWidth=1;strokeColor=#7EA6E0;" vertex="1" parent="WIyWlLk6GJQsqaUBKTNV-1">
          <mxGeometry x="940" y="290" width="220" height="90" as="geometry">
            <mxRectangle x="230" y="140" width="160" height="26" as="alternateBounds" />
          </mxGeometry>
        </mxCell>
        <mxCell id="iUEYl7UZDT7DJrYxAWYP-17" value="&quot;nJobs&quot; is how many parts the to split the input data into, and &quot;SPLIT_NAME&quot; is the name that will be given to these parts + an alphabetical tag." style="text;align=left;verticalAlign=top;spacingLeft=4;spacingRight=4;overflow=hidden;rotatable=0;points=[[0,0.5],[1,0.5]];portConstraint=eastwest;whiteSpace=wrap;" vertex="1" parent="iUEYl7UZDT7DJrYxAWYP-16">
          <mxGeometry y="26" width="220" height="64" as="geometry" />
        </mxCell>
        <mxCell id="iUEYl7UZDT7DJrYxAWYP-19" style="edgeStyle=orthogonalEdgeStyle;rounded=0;orthogonalLoop=1;jettySize=auto;html=1;entryX=0.574;entryY=0.398;entryDx=0;entryDy=0;entryPerimeter=0;strokeColor=#7EA6E0;" edge="1" parent="WIyWlLk6GJQsqaUBKTNV-1" source="iUEYl7UZDT7DJrYxAWYP-17" target="iUEYl7UZDT7DJrYxAWYP-9">
          <mxGeometry relative="1" as="geometry">
            <Array as="points">
              <mxPoint x="940" y="360" />
              <mxPoint x="940" y="360" />
            </Array>
          </mxGeometry>
        </mxCell>
        <mxCell id="iUEYl7UZDT7DJrYxAWYP-24" style="edgeStyle=orthogonalEdgeStyle;rounded=0;orthogonalLoop=1;jettySize=auto;html=1;entryX=0.003;entryY=0.523;entryDx=0;entryDy=0;entryPerimeter=0;strokeColor=#55D495;exitX=1.009;exitY=0.321;exitDx=0;exitDy=0;exitPerimeter=0;" edge="1" parent="WIyWlLk6GJQsqaUBKTNV-1" source="iUEYl7UZDT7DJrYxAWYP-23" target="iUEYl7UZDT7DJrYxAWYP-9">
          <mxGeometry relative="1" as="geometry">
            <Array as="points">
              <mxPoint x="351" y="400" />
              <mxPoint x="360" y="400" />
              <mxPoint x="360" y="395" />
            </Array>
          </mxGeometry>
        </mxCell>
        <mxCell id="iUEYl7UZDT7DJrYxAWYP-22" value="PROC_IN &amp; PROC_OUT" style="swimlane;fontStyle=2;align=center;verticalAlign=top;childLayout=stackLayout;horizontal=1;startSize=26;horizontalStack=0;resizeParent=1;resizeLast=0;collapsible=1;marginBottom=0;rounded=0;shadow=0;strokeWidth=1;strokeColor=#55D495;" vertex="1" parent="WIyWlLk6GJQsqaUBKTNV-1">
          <mxGeometry x="180" y="348.12" width="170" height="80" as="geometry">
            <mxRectangle x="230" y="140" width="160" height="26" as="alternateBounds" />
          </mxGeometry>
        </mxCell>
        <mxCell id="iUEYl7UZDT7DJrYxAWYP-23" value="This is for the MadGraph process to be run. Be sure to add a &quot;\&quot; before each space!" style="text;align=left;verticalAlign=top;spacingLeft=4;spacingRight=4;overflow=hidden;rotatable=0;points=[[0,0.5],[1,0.5]];portConstraint=eastwest;whiteSpace=wrap;" vertex="1" parent="iUEYl7UZDT7DJrYxAWYP-22">
          <mxGeometry y="26" width="170" height="54" as="geometry" />
        </mxCell>
        <mxCell id="iUEYl7UZDT7DJrYxAWYP-26" value="" style="endArrow=none;html=1;rounded=0;strokeColor=#55D495;entryX=0.002;entryY=0.47;entryDx=0;entryDy=0;entryPerimeter=0;" edge="1" parent="WIyWlLk6GJQsqaUBKTNV-1" target="iUEYl7UZDT7DJrYxAWYP-9">
          <mxGeometry width="50" height="50" relative="1" as="geometry">
            <mxPoint x="371" y="410" as="sourcePoint" />
            <mxPoint x="370" y="550" as="targetPoint" />
            <Array as="points">
              <mxPoint x="510" y="410" />
              <mxPoint x="370" y="410" />
              <mxPoint x="370" y="380" />
              <mxPoint x="500" y="380" />
            </Array>
          </mxGeometry>
        </mxCell>
        <mxCell id="iUEYl7UZDT7DJrYxAWYP-27" value="" style="shape=curlyBracket;whiteSpace=wrap;html=1;rounded=1;flipH=1;strokeColor=#FF3399;strokeWidth=1;fillColor=none;" vertex="1" parent="WIyWlLk6GJQsqaUBKTNV-1">
          <mxGeometry x="790" y="430" width="20" height="80" as="geometry" />
        </mxCell>
        <mxCell id="iUEYl7UZDT7DJrYxAWYP-31" style="edgeStyle=orthogonalEdgeStyle;rounded=0;orthogonalLoop=1;jettySize=auto;html=1;entryX=0.441;entryY=0.502;entryDx=0;entryDy=0;entryPerimeter=0;strokeColor=#FF3399;" edge="1" parent="WIyWlLk6GJQsqaUBKTNV-1" source="iUEYl7UZDT7DJrYxAWYP-29" target="iUEYl7UZDT7DJrYxAWYP-27">
          <mxGeometry relative="1" as="geometry" />
        </mxCell>
        <mxCell id="iUEYl7UZDT7DJrYxAWYP-29" value="TEMPLATES" style="swimlane;fontStyle=2;align=center;verticalAlign=top;childLayout=stackLayout;horizontal=1;startSize=26;horizontalStack=0;resizeParent=1;resizeLast=0;collapsible=1;marginBottom=0;rounded=0;shadow=0;strokeWidth=2;strokeColor=#FF3399;" vertex="1" parent="WIyWlLk6GJQsqaUBKTNV-1">
          <mxGeometry x="940" y="420" width="210" height="80" as="geometry">
            <mxRectangle x="230" y="140" width="160" height="26" as="alternateBounds" />
          </mxGeometry>
        </mxCell>
        <mxCell id="iUEYl7UZDT7DJrYxAWYP-30" value="These are important templates that the user may wish to switch or edit for their specific needs" style="text;align=left;verticalAlign=top;spacingLeft=4;spacingRight=4;overflow=hidden;rotatable=0;points=[[0,0.5],[1,0.5]];portConstraint=eastwest;whiteSpace=wrap;" vertex="1" parent="iUEYl7UZDT7DJrYxAWYP-29">
          <mxGeometry y="26" width="210" height="54" as="geometry" />
        </mxCell>
        <mxCell id="iUEYl7UZDT7DJrYxAWYP-34" style="edgeStyle=orthogonalEdgeStyle;rounded=0;orthogonalLoop=1;jettySize=auto;html=1;entryX=-0.004;entryY=0.973;entryDx=0;entryDy=0;entryPerimeter=0;strokeColor=#000000;" edge="1" parent="WIyWlLk6GJQsqaUBKTNV-1" source="iUEYl7UZDT7DJrYxAWYP-32" target="iUEYl7UZDT7DJrYxAWYP-9">
          <mxGeometry relative="1" as="geometry">
            <Array as="points">
              <mxPoint x="350" y="486" />
              <mxPoint x="350" y="519" />
            </Array>
          </mxGeometry>
        </mxCell>
        <mxCell id="iUEYl7UZDT7DJrYxAWYP-32" value="LIST" style="swimlane;fontStyle=2;align=center;verticalAlign=top;childLayout=stackLayout;horizontal=1;startSize=26;horizontalStack=0;resizeParent=1;resizeLast=0;collapsible=1;marginBottom=0;rounded=0;shadow=0;strokeWidth=1;" vertex="1" parent="WIyWlLk6GJQsqaUBKTNV-1">
          <mxGeometry x="190" y="446.24" width="150" height="80" as="geometry">
            <mxRectangle x="230" y="140" width="160" height="26" as="alternateBounds" />
          </mxGeometry>
        </mxCell>
        <mxCell id="iUEYl7UZDT7DJrYxAWYP-33" value="Paths to each job will be stored here ready for submission/running." style="text;align=left;verticalAlign=top;spacingLeft=4;spacingRight=4;overflow=hidden;rotatable=0;points=[[0,0.5],[1,0.5]];portConstraint=eastwest;whiteSpace=wrap;" vertex="1" parent="iUEYl7UZDT7DJrYxAWYP-32">
          <mxGeometry y="26" width="150" height="54" as="geometry" />
        </mxCell>
      </root>
    </mxGraphModel>
  </diagram>
</mxfile>
